<?xml version="1.0" encoding="utf-8"?>
<!-- Generator: Adobe Illustrator 16.0.2, SVG Export Plug-In . SVG Version: 6.00 Build 0)  -->
<!DOCTYPE svg PUBLIC "-//W3C//DTD SVG 1.1//EN" "http://www.w3.org/Graphics/SVG/1.1/DTD/svg11.dtd">
<svg version="1.1" id="Layer_1" xmlns="http://www.w3.org/2000/svg" xmlns:xlink="http://www.w3.org/1999/xlink" x="0px" y="0px"
	 width="193.098px" height="112.293px" viewBox="0 0 193.098 112.293" enable-background="new 0 0 193.098 112.293"
	 xml:space="preserve">
<g>
	<g>
		<path fill="#EB4680" d="M28.742,17.936c-0.329,0-0.648-0.172-0.825-0.477c-0.263-0.455-0.107-1.037,0.349-1.3
			c0.553-0.319,1.11-0.635,1.675-0.944c0.457-0.25,1.039-0.086,1.292,0.375s0.085,1.039-0.375,1.293
			c-0.551,0.303-1.098,0.611-1.64,0.924C29.067,17.895,28.903,17.936,28.742,17.936z"/>
	</g>
	<g>
		<path fill="#EB4680" d="M192.146,56.219c-0.508,0-0.932-0.403-0.951-0.916c-0.045-1.211-0.162-2.433-0.348-3.631
			c-0.082-0.521,0.275-1.009,0.793-1.088c0.521-0.076,1.006,0.274,1.086,0.795c0.197,1.271,0.322,2.567,0.371,3.852
			c0.021,0.523-0.389,0.966-0.916,0.986C192.17,56.219,192.158,56.219,192.146,56.219z M190.459,47.004
			c-0.4,0-0.771-0.254-0.904-0.653c-0.377-1.144-0.826-2.292-1.328-3.411c-0.217-0.48-0.002-1.043,0.479-1.26
			c0.477-0.215,1.043-0.002,1.258,0.479c0.531,1.178,1,2.387,1.398,3.594c0.166,0.5-0.105,1.037-0.604,1.202
			C190.656,46.987,190.557,47.004,190.459,47.004z M186.43,38.535c-0.318,0-0.629-0.158-0.809-0.445
			c-0.639-1.018-1.342-2.039-2.084-3.033c-0.316-0.422-0.23-1.019,0.189-1.334c0.424-0.313,1.02-0.227,1.334,0.193
			c0.775,1.035,1.506,2.1,2.172,3.162c0.279,0.444,0.145,1.032-0.301,1.313C186.775,38.489,186.602,38.535,186.43,38.535z
			 M180.674,31.118c-0.254,0-0.508-0.102-0.695-0.303c-0.824-0.881-1.699-1.755-2.611-2.618c-0.385-0.357-0.402-0.961-0.041-1.344
			c0.359-0.385,0.963-0.401,1.344-0.043c0.945,0.891,1.846,1.792,2.701,2.707c0.355,0.383,0.338,0.984-0.047,1.344
			C181.139,31.035,180.908,31.118,180.674,31.118z M173.744,24.778c-0.207,0-0.416-0.067-0.59-0.205
			c-0.951-0.755-1.941-1.497-2.971-2.228c-0.428-0.305-0.527-0.899-0.223-1.326c0.301-0.43,0.896-0.528,1.328-0.223
			c1.053,0.748,2.07,1.508,3.045,2.282c0.414,0.327,0.48,0.927,0.156,1.339C174.303,24.655,174.023,24.778,173.744,24.778z
			 M166.025,19.413c-0.17,0-0.342-0.045-0.496-0.14c-0.67-0.411-1.354-0.82-2.051-1.221l-1.16-0.658
			c-0.459-0.256-0.623-0.836-0.365-1.293c0.252-0.461,0.832-0.625,1.293-0.368l1.182,0.669c0.715,0.413,1.414,0.829,2.098,1.25
			c0.447,0.275,0.59,0.859,0.314,1.309C166.66,19.254,166.346,19.413,166.025,19.413z M157.777,14.907
			c-0.141,0-0.283-0.032-0.418-0.097c-1.109-0.539-2.236-1.063-3.381-1.569c-0.48-0.212-0.695-0.772-0.484-1.257
			c0.213-0.479,0.777-0.699,1.256-0.482c1.164,0.515,2.309,1.047,3.443,1.596c0.473,0.229,0.668,0.799,0.438,1.271
			C158.469,14.711,158.131,14.907,157.777,14.907z M35.418,14.428c-0.356,0-0.696-0.201-0.86-0.543
			c-0.227-0.474-0.026-1.041,0.449-1.268c1.134-0.542,2.285-1.066,3.453-1.574c0.481-0.212,1.042,0.014,1.252,0.493
			c0.21,0.483-0.011,1.044-0.494,1.253c-1.145,0.498-2.276,1.014-3.392,1.547C35.695,14.398,35.556,14.428,35.418,14.428z
			 M149.152,11.168c-0.115,0-0.23-0.02-0.342-0.063c-1.156-0.442-2.324-0.872-3.506-1.283c-0.494-0.175-0.756-0.718-0.584-1.214
			c0.176-0.497,0.715-0.755,1.213-0.585c1.201,0.42,2.387,0.854,3.563,1.305c0.488,0.188,0.732,0.74,0.545,1.229
			C149.895,10.938,149.533,11.168,149.152,11.168z M44.069,10.752c-0.385,0-0.748-0.234-0.891-0.617
			c-0.186-0.491,0.063-1.041,0.555-1.226c1.177-0.444,2.367-0.87,3.569-1.278c0.496-0.175,1.038,0.097,1.207,0.592
			c0.17,0.498-0.097,1.039-0.594,1.209c-1.182,0.402-2.354,0.822-3.511,1.259C44.294,10.732,44.181,10.752,44.069,10.752z
			 M140.254,8.133c-0.092,0-0.186-0.015-0.273-0.041c-1.189-0.356-2.387-0.698-3.596-1.023c-0.506-0.139-0.807-0.66-0.67-1.167
			c0.135-0.507,0.658-0.81,1.166-0.671c1.225,0.331,2.439,0.676,3.645,1.039c0.504,0.15,0.789,0.682,0.641,1.186
			C141.041,7.866,140.664,8.133,140.254,8.133z M52.985,7.782c-0.413,0-0.793-0.271-0.914-0.687
			c-0.146-0.504,0.143-1.033,0.647-1.178c1.207-0.354,2.424-0.689,3.651-1.012c0.506-0.128,1.029,0.171,1.162,0.682
			c0.133,0.508-0.172,1.029-0.68,1.162c-1.21,0.315-2.409,0.647-3.599,0.994C53.163,7.77,53.073,7.782,52.985,7.782z M131.154,5.739
			c-0.07,0-0.143-0.008-0.213-0.022c-1.211-0.274-2.432-0.535-3.656-0.78c-0.516-0.104-0.85-0.606-0.746-1.121
			c0.102-0.517,0.607-0.853,1.121-0.745c1.24,0.249,2.475,0.514,3.701,0.79c0.514,0.117,0.834,0.626,0.719,1.14
			C131.979,5.442,131.588,5.739,131.154,5.739z M62.092,5.463c-0.438,0-0.831-0.304-0.929-0.75
			c-0.112-0.513,0.212-1.019,0.726-1.132c1.228-0.27,2.465-0.524,3.708-0.764c0.517-0.095,1.016,0.242,1.114,0.757
			c0.099,0.516-0.24,1.016-0.755,1.113c-1.227,0.236-2.447,0.486-3.66,0.753C62.228,5.455,62.16,5.463,62.092,5.463z M121.92,3.949
			c-0.053,0-0.104-0.004-0.152-0.013c-1.23-0.197-2.463-0.384-3.701-0.552c-0.521-0.07-0.885-0.553-0.813-1.072
			c0.07-0.521,0.551-0.893,1.07-0.813c1.254,0.172,2.502,0.358,3.744,0.56c0.521,0.081,0.873,0.571,0.787,1.089
			C122.783,3.616,122.377,3.949,121.92,3.949z M71.333,3.747c-0.462,0-0.867-0.338-0.939-0.809c-0.08-0.519,0.277-1.007,0.796-1.084
			c1.244-0.191,2.493-0.368,3.747-0.532c0.523-0.05,0.998,0.305,1.066,0.824c0.067,0.521-0.301,0.998-0.822,1.064
			c-1.239,0.16-2.474,0.334-3.702,0.524C71.43,3.743,71.38,3.747,71.333,3.747z M112.592,2.725c-0.033,0-0.066,0-0.098-0.004
			c-1.24-0.127-2.482-0.238-3.727-0.334c-0.521-0.041-0.918-0.498-0.877-1.022s0.488-0.915,1.025-0.874
			c1.258,0.098,2.514,0.208,3.768,0.336c0.523,0.055,0.904,0.521,0.852,1.043C113.486,2.36,113.074,2.725,112.592,2.725z
			 M80.664,2.598c-0.486,0-0.9-0.371-0.947-0.863c-0.048-0.521,0.336-0.987,0.859-1.036c1.254-0.117,2.511-0.219,3.771-0.31
			c0.51-0.029,0.979,0.361,1.016,0.886c0.036,0.524-0.36,0.978-0.884,1.015c-1.245,0.086-2.487,0.188-3.726,0.305
			C80.723,2.596,80.693,2.598,80.664,2.598z M103.209,2.049c-0.014,0-0.029,0-0.041,0c-1.246-0.057-2.492-0.098-3.738-0.123
			c-0.527-0.012-0.943-0.446-0.932-0.971c0.012-0.523,0.441-0.902,0.971-0.934c1.26,0.025,2.521,0.068,3.781,0.123
			c0.525,0.023,0.932,0.468,0.91,0.992C104.137,1.65,103.715,2.049,103.209,2.049z M90.045,1.996c-0.509,0-0.932-0.404-0.95-0.918
			c-0.019-0.525,0.391-0.967,0.917-0.984c1.259-0.045,2.52-0.076,3.781-0.094c0.003,0,0.008,0,0.012,0
			c0.521,0,0.945,0.42,0.952,0.94c0.007,0.526-0.414,0.958-0.939,0.963c-1.247,0.017-2.493,0.048-3.738,0.091
			C90.068,1.996,90.058,1.996,90.045,1.996z"/>
	</g>
	<g>
		<path fill="#EB4680" d="M191.545,63.762c-0.063,0-0.125-0.006-0.189-0.02c-0.512-0.104-0.848-0.604-0.746-1.117
			c0.121-0.606,0.225-1.214,0.309-1.818c0.074-0.521,0.549-0.885,1.074-0.812c0.521,0.072,0.885,0.554,0.811,1.074
			c-0.088,0.644-0.197,1.286-0.326,1.926C192.385,63.45,191.986,63.762,191.545,63.762z"/>
	</g>
</g>
<g>
	<g>
		<path fill="#EB4680" d="M162.721,97.18c-0.336,0-0.662-0.178-0.836-0.493c-0.252-0.461-0.084-1.039,0.375-1.292
			c0.553-0.303,1.102-0.611,1.643-0.924c0.451-0.264,1.035-0.107,1.299,0.348s0.107,1.037-0.348,1.299
			c-0.553,0.32-1.111,0.637-1.676,0.944C163.035,97.141,162.875,97.18,162.721,97.18z"/>
	</g>
	<g>
		<path fill="#EB4680" d="M97.354,112.293c-0.526,0-0.953-0.425-0.954-0.949c-0.001-0.525,0.425-0.953,0.952-0.953
			c1.285-0.002,2.566-0.02,3.85-0.051c0.557,0.047,0.963,0.403,0.977,0.929c0.012,0.524-0.404,0.963-0.928,0.976
			C99.951,112.274,98.652,112.293,97.354,112.293L97.354,112.293z M91.542,112.198c-0.011,0-0.021,0-0.032,0
			c-1.298-0.042-2.596-0.104-3.892-0.176c-0.524-0.03-0.926-0.479-0.896-1.004c0.029-0.524,0.457-0.948,1.004-0.896
			c1.281,0.071,2.563,0.129,3.847,0.172c0.525,0.02,0.937,0.459,0.919,0.983C92.476,111.793,92.053,112.198,91.542,112.198z
			 M107.027,112.002c-0.5,0-0.92-0.391-0.949-0.896c-0.029-0.524,0.371-0.974,0.896-1.007c1.281-0.075,2.563-0.168,3.836-0.273
			c0.521-0.021,0.984,0.344,1.029,0.868c0.045,0.522-0.346,0.983-0.869,1.026c-1.293,0.111-2.588,0.203-3.885,0.279
			C107.066,112.002,107.047,112.002,107.027,112.002z M81.876,111.59c-0.029,0-0.059-0.002-0.088-0.004
			c-1.296-0.121-2.588-0.257-3.877-0.408c-0.521-0.063-0.895-0.534-0.833-1.058c0.06-0.521,0.531-0.907,1.057-0.832
			c1.272,0.148,2.549,0.284,3.829,0.401c0.523,0.048,0.909,0.513,0.861,1.035C82.778,111.219,82.363,111.59,81.876,111.59z
			 M116.67,111.137c-0.477,0-0.885-0.354-0.943-0.838c-0.063-0.522,0.309-0.996,0.832-1.059c1.275-0.154,2.549-0.32,3.814-0.508
			c0.523-0.064,1.004,0.285,1.08,0.806c0.076,0.521-0.283,1.003-0.805,1.079c-1.283,0.188-2.568,0.357-3.863,0.512
			C116.746,111.135,116.707,111.137,116.67,111.137z M72.263,110.401c-0.048,0-0.098-0.004-0.147-0.013
			c-1.287-0.199-2.57-0.413-3.845-0.645c-0.517-0.093-0.86-0.59-0.768-1.105c0.094-0.518,0.58-0.854,1.106-0.769
			c1.26,0.228,2.526,0.44,3.799,0.638c0.52,0.082,0.875,0.567,0.794,1.088C73.129,110.064,72.724,110.401,72.263,110.401z
			 M126.238,109.684c-0.449,0-0.85-0.321-0.932-0.779c-0.098-0.52,0.246-1.014,0.762-1.109c1.268-0.231,2.523-0.48,3.775-0.744
			c0.518-0.106,1.02,0.219,1.127,0.733s-0.219,1.021-0.734,1.128c-1.266,0.268-2.541,0.521-3.822,0.758
			C126.354,109.678,126.297,109.684,126.238,109.684z M62.74,108.615c-0.067,0-0.137-0.008-0.207-0.021
			c-1.274-0.283-2.54-0.582-3.797-0.896c-0.51-0.126-0.82-0.645-0.692-1.154c0.126-0.509,0.641-0.82,1.153-0.69
			c1.242,0.309,2.491,0.604,3.749,0.883c0.513,0.112,0.836,0.623,0.723,1.136C63.57,108.313,63.177,108.615,62.74,108.615z
			 M135.697,107.613c-0.426,0-0.813-0.287-0.922-0.718c-0.131-0.511,0.178-1.026,0.688-1.156c1.246-0.319,2.482-0.653,3.711-1.004
			c0.506-0.142,1.033,0.147,1.178,0.653c0.145,0.505-0.148,1.031-0.654,1.176c-1.244,0.355-2.5,0.695-3.766,1.02
			C135.854,107.604,135.775,107.613,135.697,107.613z M53.358,106.196c-0.089,0-0.18-0.011-0.271-0.039
			c-1.253-0.37-2.495-0.759-3.724-1.163c-0.5-0.166-0.771-0.703-0.607-1.203c0.164-0.498,0.702-0.772,1.202-0.605
			c1.213,0.4,2.436,0.781,3.67,1.146c0.503,0.15,0.791,0.68,0.642,1.184C54.148,105.928,53.769,106.196,53.358,106.196z
			 M144.979,104.879c-0.396,0-0.768-0.25-0.9-0.648c-0.166-0.498,0.1-1.037,0.598-1.204c1.223-0.409,2.428-0.837,3.623-1.283
			c0.494-0.187,1.039,0.069,1.225,0.562c0.184,0.494-0.068,1.041-0.561,1.225c-1.213,0.453-2.441,0.885-3.68,1.301
			C145.182,104.861,145.08,104.879,144.979,104.879z M44.185,103.096c-0.113,0-0.228-0.021-0.34-0.063
			c-1.223-0.468-2.431-0.95-3.625-1.455c-0.484-0.204-0.711-0.764-0.507-1.247c0.205-0.482,0.762-0.71,1.247-0.508
			c1.174,0.496,2.363,0.973,3.565,1.434c0.491,0.188,0.736,0.735,0.548,1.229C44.929,102.863,44.568,103.096,44.185,103.096z
			 M154.021,101.424c-0.367,0-0.717-0.213-0.873-0.574c-0.209-0.482,0.016-1.043,0.496-1.25c1.182-0.512,2.348-1.039,3.496-1.586
			c0.477-0.223,1.041-0.022,1.27,0.451c0.227,0.475,0.023,1.043-0.451,1.271c-1.168,0.554-2.357,1.093-3.561,1.61
			C154.275,101.4,154.148,101.424,154.021,101.424z M35.299,99.256c-0.139,0-0.281-0.029-0.416-0.097
			c-1.179-0.573-2.341-1.166-3.483-1.776c-0.463-0.25-0.638-0.826-0.389-1.291c0.248-0.461,0.825-0.635,1.289-0.389
			c1.12,0.602,2.259,1.182,3.417,1.745c0.473,0.229,0.669,0.8,0.439,1.271C35.99,99.059,35.652,99.256,35.299,99.256z
			 M26.814,94.596c-0.171,0-0.344-0.043-0.5-0.141c-1.13-0.699-2.224-1.412-3.283-2.138c-0.434-0.296-0.544-0.89-0.248-1.322
			c0.295-0.433,0.888-0.544,1.323-0.247c1.034,0.707,2.104,1.401,3.21,2.086c0.447,0.278,0.585,0.864,0.309,1.313
			C27.444,94.438,27.133,94.596,26.814,94.596z M18.903,89.028c-0.209,0-0.42-0.071-0.596-0.212
			c-1.041-0.837-2.037-1.688-2.987-2.549c-0.39-0.354-0.42-0.954-0.067-1.344c0.354-0.394,0.955-0.42,1.344-0.067
			c0.924,0.837,1.892,1.664,2.903,2.478c0.409,0.329,0.474,0.928,0.145,1.338C19.458,88.905,19.182,89.028,18.903,89.028z
			 M11.848,82.412c-0.259,0-0.518-0.105-0.706-0.314c-0.887-0.978-1.74-1.991-2.537-3.014c-0.322-0.416-0.248-1.014,0.167-1.338
			c0.415-0.32,1.01-0.246,1.335,0.166c0.768,0.985,1.59,1.965,2.445,2.911c0.354,0.388,0.323,0.99-0.067,1.343
			C12.304,82.332,12.075,82.412,11.848,82.412z M6.087,74.653c-0.325,0-0.643-0.167-0.821-0.467
			c-0.678-1.15-1.302-2.329-1.852-3.505c-0.223-0.476-0.018-1.043,0.458-1.266c0.475-0.224,1.043-0.017,1.265,0.459
			c0.524,1.121,1.119,2.244,1.768,3.342c0.267,0.453,0.117,1.037-0.335,1.305C6.418,74.61,6.251,74.653,6.087,74.653z M2.234,65.799
			c-0.414,0-0.794-0.271-0.915-0.688c-0.364-1.276-0.66-2.584-0.875-3.884c-0.086-0.521,0.264-1.01,0.783-1.098
			c0.516-0.093,1.008,0.265,1.095,0.784c0.205,1.228,0.483,2.466,0.829,3.673c0.144,0.506-0.149,1.03-0.654,1.176
			C2.409,65.788,2.322,65.799,2.234,65.799z M0.952,56.237c-0.004,0-0.01,0-0.015,0C0.411,56.23-0.008,55.797,0,55.271
			c0.021-1.325,0.124-2.661,0.304-3.974c0.071-0.521,0.539-0.894,1.072-0.812c0.521,0.069,0.885,0.551,0.813,1.069
			c-0.169,1.234-0.266,2.496-0.286,3.744C1.895,55.821,1.47,56.237,0.952,56.237z"/>
	</g>
	<g>
		<path fill="#EB4680" d="M2.546,46.676c-0.096,0-0.193-0.016-0.29-0.047c-0.5-0.16-0.777-0.695-0.616-1.195
			c0.196-0.617,0.412-1.23,0.645-1.844c0.187-0.492,0.737-0.736,1.228-0.551c0.491,0.187,0.738,0.736,0.551,1.228
			c-0.22,0.579-0.425,1.163-0.611,1.747C3.323,46.418,2.949,46.676,2.546,46.676z"/>
	</g>
</g>
<g>
	<path fill="#EB4680" d="M28.884,64.574c-0.396,0-0.766-0.249-0.9-0.645c-0.428-1.258-0.76-2.543-0.985-3.824
		c-0.092-0.52,0.254-1.012,0.771-1.102c0.516-0.095,1.011,0.252,1.103,0.771c0.209,1.185,0.516,2.375,0.913,3.541
		c0.17,0.498-0.097,1.037-0.594,1.208C29.089,64.557,28.985,64.574,28.884,64.574z M27.638,55.204c-0.022,0-0.045,0-0.069-0.004
		c-0.524-0.037-0.918-0.489-0.881-1.015c0.092-1.305,0.292-2.617,0.597-3.909c0.12-0.511,0.635-0.823,1.145-0.708
		c0.511,0.121,0.828,0.632,0.708,1.145c-0.281,1.191-0.466,2.405-0.552,3.606C28.55,54.821,28.133,55.204,27.638,55.204z
		 M30.134,46.084c-0.14,0-0.281-0.029-0.415-0.097c-0.473-0.229-0.67-0.797-0.441-1.271c0.56-1.152,1.212-2.299,1.94-3.412
		c0.289-0.439,0.879-0.561,1.318-0.274c0.44,0.288,0.563,0.879,0.275,1.317c-0.684,1.045-1.297,2.121-1.821,3.201
		C30.827,45.887,30.487,46.084,30.134,46.084z M35.529,38.288c-0.23,0-0.461-0.083-0.644-0.252
		c-0.387-0.354-0.413-0.956-0.057-1.344c0.855-0.931,1.784-1.853,2.76-2.742c0.393-0.35,0.991-0.323,1.345,0.065
		c0.353,0.389,0.324,0.99-0.064,1.344c-0.935,0.852-1.822,1.732-2.639,2.621C36.042,38.185,35.786,38.288,35.529,38.288z
		 M42.675,32.028c-0.296,0-0.588-0.138-0.774-0.397c-0.307-0.429-0.208-1.022,0.218-1.328c1.026-0.735,2.109-1.457,3.219-2.146
		c0.448-0.277,1.033-0.141,1.311,0.307c0.277,0.446,0.14,1.034-0.307,1.312c-1.088,0.675-2.125,1.368-3.113,2.076
		C43.061,31.971,42.866,32.028,42.675,32.028z M50.815,27.116c-0.347,0-0.681-0.19-0.85-0.521c-0.238-0.469-0.052-1.041,0.417-1.279
		c1.136-0.58,2.296-1.13,3.481-1.658c0.481-0.212,1.043,0.002,1.257,0.483c0.213,0.479-0.003,1.04-0.483,1.256
		c-1.153,0.513-2.285,1.052-3.391,1.614C51.108,27.084,50.96,27.116,50.815,27.116z M59.542,23.344
		c-0.389,0-0.754-0.242-0.894-0.629c-0.181-0.492,0.074-1.039,0.568-1.22c1.196-0.435,2.411-0.848,3.642-1.235
		c0.504-0.158,1.037,0.121,1.194,0.619c0.159,0.5-0.119,1.037-0.62,1.194c-1.205,0.381-2.394,0.785-3.565,1.21
		C59.76,23.324,59.649,23.344,59.542,23.344z M68.638,20.563c-0.426,0-0.813-0.288-0.922-0.721c-0.128-0.51,0.18-1.026,0.69-1.154
		c0.998-0.251,2.006-0.489,3.019-0.71c0.519-0.113,1.022,0.214,1.133,0.727c0.112,0.513-0.213,1.021-0.726,1.132
		c-0.994,0.217-1.981,0.452-2.961,0.697C68.793,20.551,68.715,20.563,68.638,20.563z"/>
</g>
<g>
	<path fill="#EB4680" d="M96.306,96.916c-0.002,0-0.004,0-0.006,0c-1.28-0.009-2.56-0.035-3.836-0.085
		c-0.525-0.019-0.935-0.461-0.916-0.983c0.02-0.524,0.476-0.963,0.986-0.916c1.259,0.046,2.518,0.072,3.777,0.08
		c0.526,0.002,0.949,0.432,0.946,0.957C97.255,96.493,96.829,96.916,96.306,96.916z M102.016,96.813
		c-0.508,0-0.93-0.401-0.951-0.912c-0.021-0.525,0.387-0.969,0.912-0.991c1.258-0.052,2.516-0.126,3.768-0.219
		c0.531-0.041,0.98,0.354,1.021,0.879c0.039,0.524-0.355,0.979-0.879,1.021c-1.271,0.094-2.551,0.168-3.83,0.222
		C102.041,96.813,102.029,96.813,102.016,96.813z M86.799,96.482c-0.027,0-0.055,0-0.083-0.004
		c-1.277-0.108-2.551-0.238-3.818-0.389c-0.522-0.063-0.895-0.535-0.833-1.059c0.062-0.521,0.533-0.893,1.057-0.833
		c1.247,0.147,2.5,0.274,3.759,0.383c0.523,0.046,0.912,0.507,0.866,1.03C87.703,96.108,87.288,96.482,86.799,96.482z
		 M111.496,96.03c-0.473,0-0.885-0.354-0.943-0.835c-0.064-0.521,0.307-0.996,0.828-1.063c1.252-0.153,2.498-0.33,3.736-0.524
		c0.521-0.086,1.008,0.271,1.088,0.79c0.082,0.52-0.271,1.006-0.791,1.087c-1.26,0.201-2.527,0.38-3.801,0.537
		C111.574,96.028,111.537,96.03,111.496,96.03z M77.357,95.281c-0.053,0-0.106-0.006-0.161-0.016
		c-1.268-0.215-2.527-0.453-3.776-0.709c-0.515-0.108-0.845-0.612-0.739-1.127c0.106-0.516,0.612-0.84,1.125-0.74
		c1.227,0.257,2.464,0.488,3.709,0.701c0.518,0.088,0.866,0.578,0.778,1.099C78.216,94.952,77.813,95.281,77.357,95.281z
		 M120.879,94.457c-0.439,0-0.834-0.308-0.93-0.756c-0.109-0.513,0.219-1.02,0.73-1.129c1.234-0.262,2.459-0.548,3.67-0.854
		c0.506-0.127,1.025,0.18,1.156,0.688c0.129,0.511-0.178,1.028-0.689,1.156c-1.232,0.313-2.482,0.604-3.74,0.872
		C121.01,94.448,120.945,94.457,120.879,94.457z M68.054,93.264c-0.081,0-0.164-0.01-0.246-0.031
		c-1.246-0.331-2.478-0.684-3.696-1.061c-0.502-0.153-0.784-0.688-0.629-1.188c0.155-0.502,0.683-0.788,1.191-0.628
		c1.194,0.367,2.402,0.714,3.624,1.037c0.508,0.134,0.811,0.656,0.676,1.162C68.86,92.983,68.475,93.264,68.054,93.264z
		 M130.076,92.032c-0.404,0-0.781-0.259-0.906-0.664c-0.16-0.5,0.117-1.034,0.617-1.194c1.205-0.383,2.393-0.789,3.564-1.217
		c0.49-0.178,1.039,0.072,1.219,0.565c0.182,0.493-0.072,1.041-0.564,1.223c-1.197,0.438-2.414,0.853-3.645,1.242
		C130.268,92.016,130.17,92.032,130.076,92.032z M58.992,90.366c-0.113,0-0.227-0.021-0.337-0.063
		c-1.209-0.457-2.4-0.939-3.568-1.445c-0.482-0.208-0.704-0.77-0.495-1.252c0.209-0.48,0.766-0.703,1.252-0.495
		c1.142,0.495,2.305,0.967,3.486,1.415c0.492,0.186,0.739,0.734,0.552,1.227C59.737,90.133,59.376,90.366,58.992,90.366z
		 M138.969,88.658c-0.363,0-0.709-0.21-0.869-0.563c-0.215-0.479,0-1.041,0.48-1.258c1.15-0.517,2.283-1.058,3.391-1.621
		c0.469-0.236,1.041-0.051,1.281,0.414c0.24,0.469,0.053,1.041-0.416,1.28c-1.135,0.579-2.293,1.134-3.479,1.663
		C139.23,88.631,139.1,88.658,138.969,88.658z M50.312,86.473c-0.149,0-0.301-0.034-0.442-0.108c-0.817-0.43-1.621-0.872-2.41-1.329
		c-0.454-0.264-0.61-0.844-0.347-1.302c0.26-0.453,0.842-0.608,1.3-0.347c0.767,0.442,1.549,0.875,2.343,1.293
		c0.465,0.244,0.644,0.82,0.399,1.285C50.985,86.288,50.654,86.473,50.312,86.473z M147.375,84.207c-0.32,0-0.627-0.158-0.811-0.447
		c-0.277-0.445-0.141-1.032,0.305-1.313c1.086-0.677,2.123-1.371,3.109-2.082c0.43-0.307,1.021-0.212,1.33,0.217
		c0.307,0.428,0.207,1.021-0.219,1.326c-1.021,0.736-2.09,1.454-3.213,2.154C147.721,84.161,147.545,84.207,147.375,84.207z
		 M154.973,78.5c-0.258,0-0.516-0.104-0.703-0.31c-0.355-0.39-0.328-0.99,0.063-1.347c0.932-0.852,1.816-1.735,2.631-2.625
		c0.354-0.392,0.957-0.418,1.342-0.063c0.391,0.354,0.418,0.955,0.064,1.346c-0.854,0.934-1.777,1.856-2.756,2.748
		C155.432,78.418,155.201,78.5,154.973,78.5z M161.162,71.31c-0.176,0-0.357-0.052-0.52-0.154c-0.438-0.288-0.564-0.876-0.279-1.317
		c0.684-1.049,1.291-2.127,1.811-3.205c0.227-0.473,0.793-0.674,1.27-0.445c0.475,0.227,0.674,0.795,0.445,1.27
		c-0.553,1.15-1.201,2.303-1.928,3.418C161.777,71.157,161.473,71.31,161.162,71.31z M164.934,62.627
		c-0.07,0-0.145-0.008-0.215-0.023c-0.514-0.119-0.834-0.629-0.715-1.143c0.275-1.192,0.457-2.408,0.537-3.609
		c0.033-0.523,0.496-0.908,1.01-0.887c0.525,0.035,0.922,0.488,0.889,1.014c-0.086,1.301-0.281,2.617-0.58,3.91
		C165.758,62.329,165.365,62.627,164.934,62.627z M165.164,53.182c-0.453,0-0.854-0.323-0.938-0.782
		c-0.211-1.181-0.523-2.37-0.928-3.536c-0.172-0.496,0.092-1.039,0.59-1.21c0.494-0.173,1.037,0.093,1.209,0.589
		c0.436,1.258,0.771,2.541,1.002,3.818c0.094,0.519-0.25,1.014-0.768,1.105C165.275,53.178,165.221,53.182,165.164,53.182z
		 M161.789,44.34c-0.326,0-0.643-0.164-0.82-0.465c-0.615-1.033-1.313-2.062-2.072-3.056c-0.32-0.42-0.24-1.015,0.178-1.335
		c0.418-0.316,1.016-0.238,1.336,0.179c0.803,1.052,1.541,2.144,2.193,3.238c0.271,0.454,0.121,1.038-0.33,1.305
		C162.121,44.299,161.953,44.34,161.789,44.34z M155.854,36.939c-0.24,0-0.479-0.089-0.664-0.27
		c-0.863-0.841-1.797-1.676-2.777-2.485c-0.406-0.333-0.465-0.933-0.129-1.339c0.334-0.404,0.932-0.465,1.338-0.129
		c1.021,0.842,1.996,1.713,2.895,2.588c0.379,0.367,0.387,0.97,0.02,1.347C156.35,36.842,156.102,36.939,155.854,36.939z
		 M148.42,31.017c-0.182,0-0.361-0.05-0.525-0.156c-1.014-0.671-2.078-1.329-3.189-1.97c-0.453-0.262-0.609-0.844-0.348-1.299
		c0.262-0.457,0.846-0.612,1.301-0.349c1.145,0.66,2.236,1.336,3.285,2.028c0.439,0.29,0.563,0.879,0.271,1.318
		C149.033,30.867,148.729,31.017,148.42,31.017z"/>
</g>
<g>
	<path fill="#EB4680" d="M96.777,77.094c-9.092,0-18.201-2.008-25.143-6.016c-6.908-3.988-10.712-9.339-10.712-15.064
		c0-5.547,3.576-10.721,10.083-14.623v-8.112h1.904v9.207l-0.476,0.274c-6.195,3.578-9.606,8.283-9.606,13.254
		c0,5.018,3.466,9.781,9.76,13.416c13.304,7.683,34.882,7.724,48.099,0.09l0.953,1.648C114.795,75.12,105.793,77.094,96.777,77.094z
		"/>
</g>
<g>
	<path fill="#EB4680" d="M68.875,39.649c-0.153,0-0.308-0.037-0.452-0.115c-0.463-0.249-0.635-0.827-0.385-1.29l3.057-5.648
		c0.167-0.308,0.522-0.563,0.837-0.5c0.345,0,0.663,0.188,0.831,0.488l3.102,5.557c0.257,0.461,0.092,1.039-0.367,1.295
		c-0.458,0.255-1.04,0.091-1.295-0.366l-2.258-4.044l-2.233,4.126C69.54,39.469,69.213,39.649,68.875,39.649z"/>
</g>
<path fill="#EB4680" d="M123.143,71.312c-2.213-0.007-4.014-1.043-4.018-2.322c-0.008-1.276,1.779-2.31,3.992-2.305
	c2.215,0.004,4.014,1.041,4.021,2.319C127.143,70.283,125.354,71.314,123.143,71.312z"/>
</svg>
