<?xml version="1.0" encoding="utf-8"?>
<!-- Generator: Adobe Illustrator 16.0.2, SVG Export Plug-In . SVG Version: 6.00 Build 0)  -->
<!DOCTYPE svg PUBLIC "-//W3C//DTD SVG 1.1//EN" "http://www.w3.org/Graphics/SVG/1.1/DTD/svg11.dtd">
<svg version="1.1" id="Layer_1" xmlns="http://www.w3.org/2000/svg" xmlns:xlink="http://www.w3.org/1999/xlink" x="0px" y="0px"
	 width="199.667px" height="295.273px" viewBox="0 0 199.667 295.273" enable-background="new 0 0 199.667 295.273"
	 xml:space="preserve">
<path fill="#F76195" d="M113.982,251.795c0,24.362-16.167,43.479-16.167,43.479s-16.166-19.116-16.166-43.479
	c0-11.261,7.238-20.388,16.166-20.388C106.744,231.407,113.982,240.534,113.982,251.795z"/>
<g>
	<g>
		<path fill="#0BA19F" d="M130.317,185.932l29.021,15.461V181.82c0-2.744-0.521-5.152-1.523-7.063l-12.536-23.847
			c-2.698-5.132-8.536-6.043-14.96-2.333l0,0L130.317,185.932L130.317,185.932z"/>
		<path fill="#0BA19F" d="M64.688,185.932l-29.021,15.461V181.82c0-2.744,0.521-5.152,1.524-7.063l12.535-23.847
			c2.698-5.132,8.537-6.043,14.961-2.333l0,0L64.688,185.932L64.688,185.932z"/>
	</g>
</g>
<path fill="#0BA19F" d="M111.32,225.628H83.684v3.897h0.005c-0.001,0.037-0.005,0.074-0.005,0.113c0,4.441,6.187,8.045,13.818,8.045
	c7.632,0,13.818-3.604,13.818-8.045c0-0.039-0.003-0.076-0.003-0.113h0.003V225.628z"/>
<path fill="#0BA19F" d="M130.507,191.063H64.498v19.613h0.011c-0.002,0.088-0.011,0.176-0.011,0.266
	c0,10.615,14.776,19.22,33.004,19.22c18.227,0,33.005-8.604,33.005-19.22c0-0.088-0.012-0.178-0.014-0.266h0.014V191.063z"/>
<g>
	<path fill="#D1EBFF" d="M173.253,222.994h-1.903v-41.172c0-4.734-0.976-8.991-2.901-12.656l-9.75-18.542l2.334-19.53
		c3.758-31.425-3.759-62.629-21.171-87.865c-0.729-1.062-1.478-2.113-2.241-3.158L111.378,4.123L112.917,3l26.242,35.948
		c0.772,1.058,1.531,2.124,2.271,3.2c17.674,25.617,25.307,57.286,21.495,89.173l-2.266,18.941l9.473,18.02
		c2.074,3.94,3.121,8.496,3.121,13.542V222.994L173.253,222.994z"/>
</g>
<path fill="#A8CFF0" d="M149.103,129.667c3.346-27.974-3.132-56.43-19.131-79.619c-0.672-0.973-1.357-1.939-2.057-2.895L97.502,5.49
	L67.087,47.154c-0.699,0.956-1.384,1.922-2.055,2.895c-15.999,23.188-22.478,51.645-19.133,79.619l7.768,64.964h0.016
	c-0.003,0.115-0.016,0.234-0.016,0.351c0,14.099,19.625,25.528,43.835,25.528c24.208,0,43.835-11.43,43.835-25.528
	c0-0.116-0.012-0.235-0.016-0.351h0.016L149.103,129.667z"/>
<path fill="#D1EBFF" d="M90.897,118.029c-1.547-38.626,0.612-77.793,6.38-112.232l-30.19,41.356
	c-0.699,0.956-1.384,1.921-2.055,2.895c-15.999,23.188-22.478,51.645-19.133,79.619l7.768,64.962h0.016
	c-0.003,0.117-0.016,0.236-0.016,0.354c0,13.608,18.289,24.729,41.334,25.482L90.897,118.029z"/>
<g>
	<path fill="#0BA19F" d="M90.862,146.925c0,6.059-2.091,10.351-5.49,12.429c-0.103,0.062-3.266,2.07-3.371,2.128
		c-3.537,1.978-1.274-2.511-6.646-5.611c-10.81-6.241-19.573-21.355-19.573-33.76c0-6.134-5.67-6.184-2.197-8.232
		c0.097-0.057,3.941-2.171,4.04-2.225c3.527-1.91,8.347-1.558,13.664,1.511C82.099,119.407,90.862,134.521,90.862,146.925z"/>
	<path fill="#0FBAB8" d="M87,149.211c0,12.404-8.764,17.401-19.573,11.16c-10.811-6.241-19.573-21.356-19.573-33.761
		c0-12.405,8.763-17.401,19.573-11.16C78.236,121.691,87,136.807,87,149.211z"/>
	<path fill="#084C94" d="M83.32,147.087c0,10.072-7.116,14.129-15.893,9.061c-8.779-5.067-15.895-17.341-15.895-27.415
		c0-10.072,7.116-14.129,15.895-9.062C76.204,124.74,83.32,137.014,83.32,147.087z"/>
	<path fill="#0BA19F" d="M70.552,154.838c-8.778-5.068-15.894-17.342-15.894-27.415c0-4.644,1.515-8.004,4.005-9.786
		c-4.296,0.784-7.131,4.741-7.131,11.096c0,10.073,7.116,22.348,15.895,27.415c4.73,2.733,8.977,2.809,11.889,0.725
		C76.803,157.332,73.792,156.708,70.552,154.838z"/>
	<path opacity="0.5" fill="#FFFFFF" enable-background="new    " d="M68.001,114.954c-5.182-2.992-10.543-2.792-13.027-1.618
		c3.264-0.913,7.878-0.36,12.265,2.172c10.81,6.241,19.573,21.355,19.573,33.761c0,6.458-2.942,11.031-6.746,12.933
		c3.99-1.476,7.508-6.118,7.508-13.488C87.574,136.311,78.811,121.195,68.001,114.954z"/>
</g>
<g>
	<path fill="#0FBAB8" d="M65.009,212.761l-23.1,44.232l-4.672-2.757v-18.729c0-2.625,0.498-5.506,1.459-8.445l11.995-36.67
		c2.582-7.893,8.17-15.218,14.317-18.767l0,0l4.488,2.714L65.009,212.761z"/>
	<path fill="#0BA19F" d="M69.681,215.518L41.91,256.993v-18.728c0-2.625,0.499-5.509,1.459-8.445l11.995-36.67
		c2.582-7.894,8.17-15.217,14.317-18.767l0,0V215.518z"/>
	<path opacity="0.5" fill="#FFFFFF" enable-background="new    " d="M42.318,238.775c0-2.627,0.498-5.508,1.459-8.446l11.995-36.67
		c2.467-7.542,7.679-14.554,13.501-18.261v-1.116l0,0c-6.147,3.549-11.735,10.873-14.318,18.765L42.96,229.719
		c-0.96,2.938-1.458,5.818-1.458,8.443v18.73l0.816-1.22V238.775z"/>
	<path fill="#0BA19F" d="M129.994,212.761l23.101,44.232l4.671-2.757v-18.729c0-2.625-0.498-5.506-1.458-8.445l-11.997-36.67
		c-2.58-7.893-8.168-15.218-14.316-18.766l0,0l-4.488,2.713L129.994,212.761z"/>
	<path fill="#0FBAB8" d="M125.324,215.518l27.77,41.476v-18.728c0-2.625-0.497-5.509-1.459-8.445l-11.994-36.67
		c-2.582-7.894-8.169-15.217-14.316-18.767l0,0V215.518z"/>
	<path opacity="0.5" fill="#FFFFFF" enable-background="new    " d="M152.25,229.82l-11.998-36.67
		c-2.58-7.894-8.168-15.217-14.316-18.766l0,0v0.236c5.563,3.801,10.488,10.574,12.863,17.839l11.998,36.672
		c0.959,2.937,1.457,5.818,1.457,8.443v17.247l1.453,2.171v-18.728C153.707,235.639,153.208,232.757,152.25,229.82z"/>
</g>
<path fill="#0FBAB8" d="M127.916,47.154L97.502,5.49L67.087,47.154c-0.171,0.233-0.332,0.472-0.499,0.706
	c5.261,6.896,17.119,11.708,30.914,11.708c13.796,0,25.651-4.812,30.914-11.708C128.248,47.626,128.087,47.387,127.916,47.154z"/>
<path fill="#3ECFCD" d="M67.08,47.164c-0.167,0.23-0.327,0.465-0.492,0.696c4.468,5.855,13.699,10.196,24.825,11.376
	c1.082-18.535,3.037-36.557,5.864-53.439l-30.19,41.356C67.084,47.156,67.082,47.16,67.08,47.164z"/>
</svg>
