<?xml version="1.0" encoding="utf-8"?>
<!-- Generator: Adobe Illustrator 16.0.2, SVG Export Plug-In . SVG Version: 6.00 Build 0)  -->
<!DOCTYPE svg PUBLIC "-//W3C//DTD SVG 1.1//EN" "http://www.w3.org/Graphics/SVG/1.1/DTD/svg11.dtd">
<svg version="1.1" id="Layer_1" xmlns="http://www.w3.org/2000/svg" xmlns:xlink="http://www.w3.org/1999/xlink" x="0px" y="0px"
	 width="378.598px" height="979.167px" viewBox="0 -165.167 378.598 979.167" enable-background="new 0 -165.167 378.598 979.167"
	 xml:space="preserve">
<path fill="#009343" d="M326.126,196.533c-28.47-54.111-62.105-107.572-70.84-168.093C210.466-118.5-0.22-155.746,0-165.167
	L0.001,0.491v768.153L-2.113,814c1.624-3.564,3.038-7.205,4.228-10.888C16.077,759.979,80,744,45.973,623.345
	c-12.306-43.631-18.083-90.973-5.437-134.515c12.646-43.538,55.012-82.126,99.595-73.861c35.624,6.618,60.854,39.555,95.288,50.821
	c58.104,19.028,120.26-34.213,131.959-94.228c2.052-10.528,2.988-21.079,2.988-31.616
	C370.367,290.396,349.608,241.152,326.126,196.533"/>
<polygon fill="#009343" points="-252.537,573.923 -330.4,529.612 -330.4,491.104 -252.537,535.413 "/>
<rect x="49.316" y="-83.667" fill="none" width="346.479" height="771.129"/>
<path opacity="0.7" fill="#06823B" enable-background="new    " d="M55.437,681.567c0.189,1.968,0.352,3.931,0.506,5.896
	c33.423-17.055,55.471-53.801,54.165-91.479c-1.028-29.291-14.837-55.864-28.188-81.563c-3.787-7.288-7.716-14.829-11.24-22.255
	c-11.593-24.394-27.402-70.131-3.164-102.489c14.62-19.534,42.617-29.963,74.896-27.909c18.344,1.173,36.623,5.757,54.311,10.191
	c9.652,2.42,19.632,4.917,29.569,6.865c35.476,6.931,64.283,3.951,85.602-8.844c33.424-20.057,44.376-60.305,43.654-91.366
	c-0.893-34.117-13.574-66.721-27.627-99.902l-1.667-3.939c-12.7-29.958-25.843-60.934-28.854-93.363
	c-6.229-66.68,36.109-135.429,98.396-159.965l-2.011-5.111C329.309-58.273,285.556,12.909,291.928,81.921
	c3.092,33.28,16.405,64.652,29.269,94.989l1.667,3.944c13.837,32.676,26.325,64.748,27.195,97.905
	c0.991,36.931-15.121,70.985-40.987,86.508c-20.123,12.078-47.625,14.827-81.729,8.166c-9.798-1.92-19.704-4.397-29.286-6.797
	c-17.93-4.498-36.452-9.147-55.301-10.348c-34.127-2.176-63.899,9.069-79.639,30.093c-25.969,34.684-9.519,82.636,2.605,108.137
	c3.568,7.526,7.509,15.104,11.32,22.437c13.07,25.159,26.591,51.178,27.574,79.225C105.744,631.107,85.886,665.053,55.437,681.567"
	/>
</svg>
