<?xml version="1.0" encoding="utf-8"?>
<!-- Generator: Adobe Illustrator 16.0.2, SVG Export Plug-In . SVG Version: 6.00 Build 0)  -->
<!DOCTYPE svg PUBLIC "-//W3C//DTD SVG 1.1//EN" "http://www.w3.org/Graphics/SVG/1.1/DTD/svg11.dtd">
<svg version="1.1" id="Layer_1" xmlns="http://www.w3.org/2000/svg" xmlns:xlink="http://www.w3.org/1999/xlink" x="0px" y="0px"
	 width="512px" height="768px" viewBox="0 0 512 768" enable-background="new 0 0 512 768" xml:space="preserve">
<rect x="127.165" y="-86.263" fill="none" width="440.744" height="924.526"/>
<path fill="#009343" d="M512.319,121.95C400.685,257.36,179.221,292.291,71.149,438.819C21.242,506.491,0.723,595.092,15.81,677.807
	c5.767,31.62,16.701,62.207,31.962,90.478h464.548V121.95z"/>
<path opacity="0.7" fill="#06823B" d="M127.165,364.947c0-3.495,0.163-7.031,0.514-10.609c3.222-33.14,22.417-65.903,54.047-92.264
	c27.178-22.646,59.675-38.099,91.093-53.049l2.018-0.96C344.674,174.83,406.8,143.528,459.787,96.991
	c60.43-53.092,96.471-118.163,101.5-183.254l6.622,0.513c-5.15,66.826-41.993,133.495-103.736,187.727
	c-53.632,47.115-116.183,78.636-186.479,112.098l-2.019,0.95c-31.045,14.776-63.161,30.047-89.701,52.158
	c-30.271,25.226-48.631,56.409-51.675,87.794c-5.585,57.296,38.316,104.379,64.972,127.363
	c15.719,13.551,32.966,25.931,49.657,37.908c23.89,17.154,48.609,34.892,69.444,56.49c65.616,67.979,87.389,173.071,54.216,261.524
	l-6.217-2.334c32.3-86.102,11.082-188.409-52.776-254.574c-20.428-21.164-44.891-38.721-68.54-55.706
	c-16.805-12.065-34.188-24.533-50.125-38.284C168.947,464.964,127.165,420.308,127.165,364.947"/>
</svg>
