<?xml version="1.0" encoding="utf-8"?>
<!-- Generator: Adobe Illustrator 16.0.2, SVG Export Plug-In . SVG Version: 6.00 Build 0)  -->
<!DOCTYPE svg PUBLIC "-//W3C//DTD SVG 1.1//EN" "http://www.w3.org/Graphics/SVG/1.1/DTD/svg11.dtd">
<svg version="1.1" id="Layer_1" xmlns="http://www.w3.org/2000/svg" xmlns:xlink="http://www.w3.org/1999/xlink" x="0px" y="0px"
	 width="199.667px" height="349.875px" viewBox="0 0 199.667 349.875" enable-background="new 0 0 199.667 349.875"
	 xml:space="preserve">
<g>
	<g>
		<g>
			<path fill="#EB4680" d="M30.742,249.949c-0.329,0-0.648-0.171-0.825-0.476c-0.263-0.456-0.107-1.038,0.349-1.3
				c0.553-0.319,1.11-0.635,1.675-0.944c0.457-0.251,1.039-0.087,1.292,0.375c0.253,0.461,0.085,1.039-0.375,1.292
				c-0.551,0.303-1.098,0.612-1.64,0.924C31.067,249.908,30.903,249.949,30.742,249.949z"/>
		</g>
		<g>
			<path fill="#EB4680" d="M194.146,288.232c-0.508,0-0.932-0.403-0.95-0.916c-0.046-1.21-0.164-2.432-0.349-3.631
				c-0.082-0.52,0.275-1.008,0.793-1.087c0.522-0.077,1.006,0.274,1.087,0.794c0.197,1.271,0.322,2.568,0.37,3.852
				c0.021,0.523-0.389,0.966-0.915,0.986C194.169,288.232,194.158,288.232,194.146,288.232z M192.458,279.017
				c-0.4,0-0.771-0.253-0.903-0.653c-0.377-1.143-0.826-2.292-1.329-3.411c-0.216-0.48-0.002-1.043,0.478-1.259
				c0.478-0.215,1.043-0.002,1.259,0.478c0.53,1.178,1,2.387,1.399,3.593c0.166,0.5-0.106,1.038-0.604,1.203
				C192.656,279.001,192.556,279.017,192.458,279.017z M188.429,270.549c-0.318,0-0.628-0.158-0.809-0.446
				c-0.637-1.017-1.34-2.039-2.083-3.032c-0.316-0.422-0.23-1.019,0.189-1.334c0.424-0.313,1.019-0.227,1.334,0.193
				c0.775,1.035,1.506,2.1,2.173,3.162c0.279,0.444,0.143,1.032-0.301,1.313C188.775,270.503,188.601,270.549,188.429,270.549z
				 M182.674,263.132c-0.255,0-0.509-0.102-0.695-0.303c-0.825-0.881-1.699-1.755-2.613-2.618c-0.383-0.358-0.402-0.961-0.041-1.344
				c0.36-0.385,0.963-0.401,1.344-0.043c0.946,0.891,1.846,1.792,2.701,2.707c0.357,0.383,0.338,0.985-0.046,1.344
				C183.139,263.049,182.907,263.132,182.674,263.132z M175.743,256.792c-0.207,0-0.415-0.067-0.589-0.205
				c-0.952-0.755-1.942-1.497-2.97-2.227c-0.428-0.305-0.528-0.9-0.223-1.327c0.301-0.43,0.897-0.528,1.327-0.223
				c1.054,0.749,2.071,1.509,3.046,2.283c0.413,0.327,0.481,0.926,0.156,1.338C176.302,256.669,176.023,256.792,175.743,256.792z
				 M168.026,251.427c-0.171,0-0.342-0.045-0.496-0.14c-0.671-0.411-1.355-0.82-2.052-1.221l-1.16-0.658
				c-0.459-0.256-0.623-0.836-0.366-1.293c0.253-0.461,0.833-0.625,1.294-0.368l1.182,0.669c0.714,0.413,1.413,0.829,2.097,1.25
				c0.448,0.275,0.589,0.86,0.314,1.309C168.659,251.267,168.346,251.427,168.026,251.427z M159.777,246.921
				c-0.141,0-0.283-0.032-0.417-0.097c-1.111-0.539-2.238-1.063-3.381-1.569c-0.481-0.212-0.697-0.773-0.485-1.257
				c0.213-0.479,0.777-0.699,1.256-0.483c1.164,0.515,2.309,1.048,3.443,1.597c0.472,0.229,0.669,0.798,0.438,1.271
				C160.468,246.724,160.13,246.921,159.777,246.921z M37.418,246.441c-0.356,0-0.696-0.201-0.86-0.542
				c-0.227-0.474-0.026-1.041,0.449-1.268c1.134-0.542,2.285-1.067,3.453-1.574c0.481-0.212,1.042,0.013,1.252,0.493
				c0.21,0.483-0.011,1.044-0.494,1.253c-1.145,0.498-2.276,1.013-3.392,1.546C37.695,246.412,37.556,246.441,37.418,246.441z
				 M151.152,243.181c-0.115,0-0.23-0.019-0.342-0.063c-1.156-0.442-2.324-0.872-3.506-1.283c-0.494-0.175-0.756-0.718-0.583-1.214
				c0.175-0.497,0.714-0.755,1.212-0.585c1.201,0.42,2.387,0.855,3.562,1.305c0.489,0.189,0.734,0.74,0.546,1.23
				C151.894,242.951,151.533,243.181,151.152,243.181z M46.069,242.765c-0.385,0-0.748-0.234-0.891-0.617
				c-0.186-0.491,0.063-1.041,0.555-1.225c1.177-0.444,2.367-0.87,3.569-1.279c0.496-0.174,1.038,0.097,1.207,0.593
				c0.17,0.498-0.097,1.039-0.594,1.208c-1.182,0.403-2.354,0.822-3.511,1.259C46.294,242.746,46.181,242.765,46.069,242.765z
				 M142.253,240.147c-0.091,0-0.184-0.015-0.273-0.041c-1.189-0.357-2.387-0.699-3.595-1.024c-0.507-0.138-0.807-0.66-0.671-1.167
				s0.658-0.809,1.167-0.671c1.225,0.331,2.44,0.676,3.645,1.039c0.504,0.15,0.788,0.682,0.64,1.186
				C143.04,239.88,142.664,240.147,142.253,240.147z M54.985,239.796c-0.413,0-0.793-0.27-0.914-0.686
				c-0.146-0.504,0.143-1.034,0.647-1.179c1.207-0.353,2.424-0.689,3.651-1.011c0.506-0.128,1.029,0.171,1.162,0.681
				c0.133,0.509-0.172,1.03-0.68,1.162c-1.21,0.316-2.409,0.648-3.599,0.995C55.163,239.783,55.073,239.796,54.985,239.796z
				 M133.154,237.753c-0.071,0-0.142-0.008-0.212-0.022c-1.212-0.275-2.432-0.535-3.658-0.781c-0.515-0.104-0.848-0.606-0.746-1.121
				c0.102-0.517,0.608-0.853,1.121-0.745c1.242,0.249,2.476,0.513,3.703,0.79c0.513,0.117,0.834,0.626,0.718,1.14
				C133.979,237.456,133.587,237.753,133.154,237.753z M64.092,237.476c-0.438,0-0.831-0.303-0.929-0.749
				c-0.112-0.513,0.212-1.019,0.726-1.132c1.228-0.27,2.465-0.524,3.708-0.764c0.517-0.095,1.016,0.242,1.114,0.757
				c0.099,0.515-0.24,1.015-0.755,1.113c-1.227,0.236-2.447,0.487-3.66,0.753C64.228,237.469,64.16,237.476,64.092,237.476z
				 M123.919,235.963c-0.052,0-0.103-0.004-0.152-0.013c-1.231-0.197-2.463-0.383-3.701-0.552c-0.522-0.07-0.885-0.552-0.813-1.072
				c0.071-0.521,0.552-0.893,1.071-0.813c1.253,0.173,2.502,0.359,3.744,0.56c0.521,0.082,0.874,0.572,0.788,1.089
				C124.782,235.63,124.376,235.963,123.919,235.963z M73.333,235.761c-0.462,0-0.867-0.338-0.939-0.809
				c-0.08-0.519,0.277-1.006,0.796-1.084c1.244-0.191,2.493-0.368,3.747-0.532c0.523-0.05,0.998,0.305,1.066,0.824
				c0.067,0.522-0.301,0.998-0.822,1.065c-1.239,0.16-2.474,0.334-3.702,0.524C73.43,235.757,73.38,235.761,73.333,235.761z
				 M114.591,234.738c-0.033,0-0.065,0-0.097-0.004c-1.24-0.126-2.483-0.238-3.727-0.334c-0.522-0.041-0.917-0.498-0.876-1.022
				c0.041-0.524,0.487-0.915,1.024-0.874c1.258,0.097,2.515,0.208,3.768,0.336c0.524,0.054,0.905,0.521,0.851,1.043
				C115.487,234.374,115.073,234.738,114.591,234.738z M82.664,234.612c-0.486,0-0.9-0.372-0.947-0.864
				c-0.048-0.522,0.336-0.987,0.859-1.036c1.254-0.117,2.511-0.219,3.771-0.309c0.51-0.03,0.979,0.361,1.016,0.885
				c0.036,0.524-0.36,0.978-0.884,1.015c-1.245,0.085-2.487,0.188-3.726,0.305C82.723,234.61,82.693,234.612,82.664,234.612z
				 M105.208,234.062c-0.013,0-0.028,0-0.041,0c-1.245-0.056-2.491-0.097-3.738-0.123c-0.526-0.011-0.942-0.446-0.931-0.97
				c0.011-0.524,0.442-0.902,0.97-0.934c1.26,0.026,2.522,0.069,3.781,0.123c0.526,0.024,0.933,0.468,0.911,0.993
				C106.137,233.664,105.715,234.062,105.208,234.062z M92.045,234.01c-0.509,0-0.932-0.405-0.95-0.918
				c-0.019-0.526,0.391-0.967,0.917-0.985c1.259-0.044,2.52-0.076,3.781-0.093c0.003,0,0.008,0,0.012,0
				c0.521,0,0.945,0.42,0.952,0.94c0.007,0.526-0.414,0.958-0.939,0.963c-1.247,0.017-2.493,0.048-3.738,0.091
				C92.068,234.01,92.058,234.01,92.045,234.01z"/>
		</g>
		<g>
			<path fill="#EB4680" d="M193.545,295.775c-0.063,0-0.126-0.005-0.189-0.019c-0.513-0.104-0.848-0.604-0.746-1.118
				c0.121-0.606,0.223-1.213,0.307-1.818c0.075-0.521,0.55-0.885,1.075-0.811c0.521,0.072,0.885,0.554,0.811,1.074
				c-0.089,0.644-0.197,1.286-0.326,1.926C194.385,295.464,193.987,295.775,193.545,295.775z"/>
		</g>
	</g>
	<g>
		<g>
			<path fill="#EB4680" d="M164.721,329.194c-0.336,0-0.662-0.179-0.836-0.494c-0.252-0.461-0.085-1.039,0.375-1.292
				c0.552-0.303,1.101-0.611,1.642-0.924c0.452-0.264,1.035-0.107,1.299,0.348c0.264,0.455,0.108,1.037-0.348,1.299
				c-0.552,0.32-1.112,0.636-1.675,0.944C165.034,329.155,164.875,329.194,164.721,329.194z"/>
		</g>
		<g>
			<path fill="#EB4680" d="M99.353,344.307c-0.526,0-0.952-0.425-0.953-0.949c-0.001-0.526,0.425-0.954,0.951-0.954
				c1.285-0.002,2.567-0.019,3.85-0.05c0.556,0.047,0.963,0.403,0.976,0.928c0.013,0.525-0.403,0.963-0.928,0.976
				C101.951,344.288,100.652,344.306,99.353,344.307L99.353,344.307z M93.542,344.212c-0.011,0-0.021,0-0.032,0
				c-1.298-0.042-2.596-0.104-3.892-0.176c-0.524-0.03-0.926-0.479-0.896-1.004c0.029-0.524,0.457-0.948,1.004-0.896
				c1.281,0.072,2.563,0.13,3.847,0.173c0.525,0.019,0.937,0.458,0.919,0.983C94.476,343.807,94.053,344.212,93.542,344.212z
				 M109.028,344.016c-0.5,0-0.92-0.391-0.95-0.896c-0.03-0.524,0.37-0.974,0.896-1.006c1.281-0.076,2.562-0.169,3.836-0.274
				c0.522-0.022,0.985,0.344,1.03,0.868c0.045,0.523-0.346,0.984-0.87,1.027c-1.292,0.11-2.588,0.203-3.885,0.279
				C109.067,344.016,109.046,344.016,109.028,344.016z M83.876,343.603c-0.029,0-0.059-0.002-0.088-0.004
				c-1.296-0.12-2.588-0.256-3.877-0.407c-0.521-0.063-0.895-0.535-0.833-1.058c0.06-0.521,0.531-0.908,1.057-0.832
				c1.272,0.148,2.549,0.284,3.829,0.401c0.523,0.048,0.909,0.513,0.861,1.035C84.778,343.232,84.363,343.603,83.876,343.603z
				 M118.67,343.151c-0.476,0-0.885-0.355-0.944-0.839c-0.063-0.522,0.309-0.996,0.833-1.058c1.275-0.154,2.549-0.321,3.814-0.508
				c0.524-0.064,1.004,0.285,1.08,0.806s-0.284,1.003-0.805,1.079c-1.283,0.187-2.569,0.357-3.863,0.512
				C118.746,343.149,118.707,343.151,118.67,343.151z M74.263,342.415c-0.048,0-0.098-0.004-0.147-0.012
				c-1.287-0.2-2.57-0.414-3.845-0.645c-0.517-0.093-0.86-0.59-0.768-1.106c0.094-0.517,0.58-0.853,1.106-0.768
				c1.26,0.227,2.526,0.44,3.799,0.638c0.52,0.082,0.875,0.567,0.794,1.088C75.129,342.078,74.724,342.415,74.263,342.415z
				 M128.239,341.697c-0.45,0-0.85-0.321-0.933-0.779c-0.097-0.519,0.246-1.013,0.762-1.109c1.268-0.232,2.524-0.481,3.775-0.745
				c0.519-0.106,1.021,0.219,1.128,0.734c0.107,0.515-0.22,1.021-0.734,1.128c-1.266,0.268-2.541,0.521-3.824,0.757
				C128.354,341.691,128.297,341.697,128.239,341.697z M64.74,340.629c-0.067,0-0.137-0.008-0.207-0.022
				c-1.274-0.283-2.54-0.582-3.797-0.896c-0.51-0.126-0.82-0.645-0.692-1.154c0.126-0.509,0.641-0.821,1.153-0.691
				c1.242,0.309,2.491,0.604,3.749,0.883c0.513,0.113,0.836,0.623,0.723,1.136C65.57,340.327,65.177,340.629,64.74,340.629z
				 M137.697,339.627c-0.426,0-0.813-0.287-0.922-0.718c-0.13-0.51,0.178-1.026,0.688-1.156c1.246-0.32,2.483-0.654,3.71-1.004
				c0.507-0.142,1.034,0.148,1.178,0.654c0.144,0.504-0.148,1.03-0.654,1.175c-1.245,0.356-2.5,0.695-3.766,1.019
				C137.854,339.617,137.775,339.627,137.697,339.627z M55.358,338.21c-0.089,0-0.18-0.011-0.271-0.039
				c-1.253-0.37-2.495-0.759-3.724-1.163c-0.5-0.166-0.771-0.703-0.607-1.203c0.164-0.498,0.702-0.773,1.202-0.606
				c1.213,0.4,2.436,0.781,3.67,1.147c0.503,0.15,0.791,0.679,0.642,1.184C56.148,337.942,55.769,338.21,55.358,338.21z
				 M146.979,336.893c-0.398,0-0.768-0.251-0.901-0.649c-0.167-0.498,0.1-1.037,0.598-1.204c1.222-0.409,2.428-0.837,3.623-1.283
				c0.493-0.186,1.039,0.069,1.225,0.562c0.182,0.493-0.069,1.041-0.562,1.224c-1.212,0.453-2.44,0.885-3.68,1.301
				C147.181,336.875,147.079,336.893,146.979,336.893z M46.185,335.109c-0.113,0-0.228-0.021-0.34-0.063
				c-1.223-0.468-2.431-0.951-3.625-1.455c-0.484-0.204-0.711-0.764-0.507-1.247c0.205-0.483,0.762-0.71,1.247-0.508
				c1.174,0.496,2.363,0.973,3.565,1.434c0.491,0.188,0.736,0.735,0.548,1.229C46.929,334.877,46.568,335.109,46.185,335.109z
				 M156.022,333.438c-0.368,0-0.718-0.214-0.874-0.574c-0.208-0.483,0.015-1.043,0.496-1.251c1.182-0.512,2.348-1.039,3.497-1.586
				c0.476-0.223,1.041-0.022,1.268,0.452c0.227,0.474,0.024,1.042-0.45,1.27c-1.169,0.554-2.357,1.093-3.56,1.611
				C156.276,333.414,156.148,333.438,156.022,333.438z M37.299,331.27c-0.139,0-0.281-0.03-0.416-0.097
				c-1.179-0.573-2.341-1.166-3.483-1.777c-0.463-0.249-0.638-0.825-0.389-1.29c0.248-0.461,0.825-0.636,1.289-0.389
				c1.12,0.601,2.259,1.181,3.417,1.745c0.473,0.23,0.669,0.8,0.439,1.271C37.99,331.072,37.652,331.27,37.299,331.27z
				 M28.814,326.61c-0.171,0-0.344-0.044-0.5-0.141c-1.13-0.699-2.224-1.413-3.283-2.138c-0.434-0.296-0.544-0.889-0.248-1.322
				c0.295-0.433,0.888-0.544,1.323-0.247c1.034,0.707,2.104,1.401,3.21,2.086c0.447,0.278,0.585,0.864,0.309,1.313
				C29.444,326.451,29.133,326.61,28.814,326.61z M20.903,321.042c-0.209,0-0.42-0.071-0.596-0.212
				c-1.041-0.837-2.037-1.688-2.987-2.549c-0.39-0.354-0.42-0.954-0.067-1.344c0.354-0.393,0.955-0.42,1.344-0.067
				c0.924,0.837,1.892,1.664,2.903,2.477c0.409,0.33,0.474,0.929,0.145,1.338C21.458,320.919,21.182,321.042,20.903,321.042z
				 M13.848,314.426c-0.259,0-0.518-0.105-0.706-0.314c-0.887-0.978-1.74-1.992-2.537-3.015c-0.322-0.416-0.248-1.013,0.167-1.337
				c0.415-0.321,1.01-0.247,1.335,0.166c0.768,0.985,1.59,1.965,2.445,2.911c0.354,0.388,0.323,0.99-0.067,1.342
				C14.304,314.346,14.075,314.426,13.848,314.426z M8.087,306.667c-0.325,0-0.643-0.167-0.821-0.467
				c-0.678-1.15-1.302-2.329-1.852-3.504c-0.223-0.476-0.018-1.043,0.458-1.266c0.475-0.224,1.043-0.017,1.265,0.459
				c0.524,1.121,1.119,2.244,1.768,3.341c0.267,0.453,0.117,1.037-0.335,1.305C8.418,306.624,8.251,306.667,8.087,306.667z
				 M4.234,297.813c-0.414,0-0.794-0.271-0.915-0.689c-0.364-1.277-0.66-2.584-0.875-3.884c-0.086-0.521,0.264-1.009,0.783-1.097
				c0.516-0.093,1.008,0.264,1.095,0.784c0.205,1.228,0.483,2.465,0.829,3.672c0.144,0.506-0.149,1.031-0.654,1.177
				C4.409,297.802,4.322,297.813,4.234,297.813z M2.952,288.251c-0.004,0-0.01,0-0.015,0c-0.526-0.007-0.945-0.44-0.937-0.967
				c0.021-1.325,0.124-2.661,0.304-3.974c0.071-0.52,0.539-0.893,1.072-0.811c0.521,0.07,0.885,0.551,0.813,1.07
				c-0.169,1.234-0.266,2.495-0.286,3.744C3.895,287.835,3.47,288.251,2.952,288.251z"/>
		</g>
		<g>
			<path fill="#EB4680" d="M4.546,278.689c-0.096,0-0.193-0.015-0.29-0.047c-0.5-0.16-0.777-0.695-0.616-1.195
				c0.196-0.617,0.412-1.23,0.645-1.844c0.187-0.491,0.737-0.736,1.228-0.55s0.738,0.736,0.551,1.227
				c-0.22,0.58-0.425,1.164-0.611,1.747C5.323,278.431,4.949,278.689,4.546,278.689z"/>
		</g>
	</g>
	<g>
		<path fill="#EB4680" d="M30.884,296.588c-0.396,0-0.766-0.249-0.9-0.645c-0.428-1.257-0.76-2.543-0.985-3.824
			c-0.092-0.519,0.254-1.011,0.771-1.102c0.516-0.094,1.011,0.252,1.103,0.771c0.209,1.184,0.516,2.375,0.913,3.541
			c0.17,0.498-0.097,1.037-0.594,1.208C31.089,296.571,30.985,296.588,30.884,296.588z M29.638,287.218
			c-0.022,0-0.045,0-0.069-0.004c-0.524-0.037-0.918-0.49-0.881-1.015c0.092-1.305,0.292-2.617,0.597-3.909
			c0.12-0.511,0.635-0.823,1.145-0.708c0.511,0.121,0.828,0.632,0.708,1.145c-0.281,1.191-0.466,2.405-0.552,3.606
			C30.55,286.835,30.133,287.218,29.638,287.218z M32.134,278.098c-0.14,0-0.281-0.03-0.415-0.097
			c-0.473-0.229-0.67-0.797-0.441-1.271c0.56-1.152,1.212-2.299,1.94-3.411c0.289-0.44,0.879-0.561,1.318-0.275
			c0.44,0.288,0.563,0.879,0.275,1.318c-0.684,1.044-1.297,2.121-1.821,3.201C32.827,277.901,32.487,278.098,32.134,278.098z
			 M37.529,270.302c-0.23,0-0.461-0.083-0.644-0.252c-0.387-0.354-0.413-0.956-0.057-1.344c0.855-0.931,1.784-1.853,2.76-2.742
			c0.393-0.35,0.991-0.323,1.345,0.065c0.353,0.389,0.324,0.991-0.064,1.344c-0.935,0.851-1.822,1.732-2.639,2.621
			C38.042,270.198,37.786,270.302,37.529,270.302z M44.675,264.042c-0.296,0-0.588-0.138-0.774-0.398
			c-0.307-0.428-0.208-1.022,0.218-1.327c1.026-0.736,2.109-1.458,3.219-2.147c0.448-0.277,1.033-0.14,1.311,0.307
			c0.277,0.446,0.14,1.034-0.307,1.311c-1.088,0.675-2.125,1.368-3.113,2.076C45.061,263.984,44.866,264.042,44.675,264.042z
			 M52.815,259.13c-0.347,0-0.681-0.19-0.85-0.521c-0.238-0.469-0.052-1.041,0.417-1.279c1.136-0.58,2.296-1.13,3.481-1.658
			c0.481-0.212,1.043,0.002,1.257,0.483c0.213,0.479-0.003,1.041-0.483,1.256c-1.153,0.513-2.285,1.052-3.391,1.614
			C53.108,259.097,52.96,259.13,52.815,259.13z M61.542,255.357c-0.389,0-0.754-0.242-0.894-0.628
			c-0.181-0.493,0.074-1.039,0.568-1.22c1.196-0.435,2.411-0.848,3.642-1.236c0.504-0.158,1.037,0.121,1.194,0.619
			c0.159,0.501-0.119,1.037-0.62,1.195c-1.205,0.381-2.394,0.785-3.565,1.21C61.76,255.338,61.649,255.357,61.542,255.357z
			 M70.638,252.576c-0.426,0-0.813-0.288-0.922-0.721c-0.128-0.509,0.18-1.026,0.69-1.154c0.998-0.251,2.006-0.489,3.019-0.71
			c0.519-0.113,1.022,0.214,1.133,0.727c0.112,0.513-0.213,1.021-0.726,1.132c-0.994,0.217-1.981,0.452-2.961,0.697
			C70.793,252.565,70.715,252.576,70.638,252.576z"/>
	</g>
	<g>
		<path fill="#EB4680" d="M98.306,328.929c-0.002,0-0.004,0-0.006,0c-1.28-0.008-2.56-0.035-3.836-0.084
			c-0.525-0.019-0.935-0.461-0.916-0.984c0.02-0.524,0.476-0.963,0.986-0.915c1.259,0.045,2.518,0.072,3.777,0.08
			c0.526,0.002,0.949,0.431,0.946,0.957C99.255,328.507,98.829,328.929,98.306,328.929z M104.015,328.826
			c-0.507,0-0.93-0.401-0.95-0.912c-0.022-0.526,0.385-0.969,0.911-0.991c1.258-0.052,2.515-0.126,3.768-0.219
			c0.531-0.041,0.981,0.354,1.021,0.879s-0.355,0.979-0.879,1.021c-1.271,0.093-2.55,0.167-3.829,0.221
			C104.041,328.826,104.029,328.826,104.015,328.826z M88.799,328.496c-0.027,0-0.055,0-0.083-0.004
			c-1.277-0.108-2.551-0.238-3.818-0.389c-0.522-0.062-0.895-0.535-0.833-1.058c0.062-0.521,0.533-0.893,1.057-0.833
			c1.247,0.148,2.5,0.275,3.759,0.383c0.523,0.045,0.912,0.506,0.866,1.03C89.703,328.122,89.288,328.496,88.799,328.496z
			 M113.495,328.044c-0.472,0-0.883-0.354-0.942-0.835c-0.065-0.522,0.307-0.996,0.827-1.062c1.253-0.154,2.499-0.33,3.736-0.525
			c0.522-0.086,1.008,0.271,1.089,0.79c0.082,0.519-0.271,1.006-0.792,1.087c-1.258,0.201-2.526,0.38-3.799,0.537
			C113.573,328.042,113.536,328.044,113.495,328.044z M79.357,327.295c-0.053,0-0.106-0.006-0.161-0.015
			c-1.268-0.216-2.527-0.454-3.776-0.71c-0.515-0.108-0.845-0.612-0.739-1.127s0.612-0.84,1.125-0.74
			c1.227,0.257,2.464,0.489,3.709,0.701c0.518,0.088,0.866,0.578,0.778,1.099C80.216,326.966,79.813,327.295,79.357,327.295z
			 M122.878,326.47c-0.439,0-0.834-0.307-0.93-0.755c-0.109-0.513,0.22-1.019,0.732-1.129c1.234-0.262,2.458-0.548,3.669-0.853
			c0.506-0.127,1.026,0.179,1.156,0.688c0.13,0.51-0.178,1.028-0.688,1.156c-1.234,0.313-2.484,0.604-3.742,0.872
			C123.01,326.462,122.945,326.47,122.878,326.47z M70.054,325.278c-0.081,0-0.164-0.01-0.246-0.032
			c-1.246-0.331-2.478-0.684-3.696-1.06c-0.502-0.154-0.784-0.688-0.629-1.189c0.155-0.502,0.683-0.788,1.191-0.628
			c1.194,0.368,2.402,0.714,3.624,1.037c0.508,0.134,0.811,0.656,0.676,1.163C70.86,324.997,70.475,325.278,70.054,325.278z
			 M132.076,324.046c-0.405,0-0.781-0.259-0.907-0.664c-0.16-0.5,0.117-1.035,0.617-1.195c1.205-0.383,2.394-0.788,3.565-1.216
			c0.491-0.178,1.039,0.072,1.219,0.565c0.182,0.494-0.073,1.041-0.565,1.223c-1.197,0.438-2.413,0.852-3.644,1.242
			C132.268,324.03,132.169,324.046,132.076,324.046z M60.992,322.38c-0.113,0-0.227-0.021-0.337-0.063
			c-1.209-0.457-2.4-0.94-3.568-1.446c-0.482-0.208-0.704-0.77-0.495-1.252c0.209-0.48,0.766-0.703,1.252-0.495
			c1.142,0.495,2.305,0.967,3.486,1.415c0.492,0.186,0.739,0.735,0.552,1.227C61.737,322.146,61.376,322.38,60.992,322.38z
			 M140.969,320.672c-0.364,0-0.71-0.21-0.87-0.563c-0.215-0.479,0-1.041,0.48-1.257c1.152-0.517,2.284-1.058,3.391-1.622
			c0.47-0.236,1.042-0.051,1.281,0.414c0.24,0.469,0.054,1.041-0.415,1.281c-1.136,0.579-2.294,1.134-3.478,1.663
			C141.231,320.644,141.099,320.672,140.969,320.672z M52.312,318.487c-0.149,0-0.301-0.035-0.442-0.109
			c-0.817-0.43-1.621-0.872-2.41-1.329c-0.454-0.264-0.61-0.844-0.347-1.302c0.26-0.453,0.842-0.609,1.3-0.346
			c0.767,0.442,1.549,0.874,2.343,1.292c0.465,0.244,0.644,0.82,0.399,1.285C52.985,318.302,52.654,318.487,52.312,318.487z
			 M149.375,316.22c-0.32,0-0.628-0.158-0.811-0.446c-0.277-0.446-0.141-1.033,0.305-1.313c1.085-0.677,2.123-1.371,3.11-2.082
			c0.429-0.307,1.021-0.212,1.329,0.216c0.307,0.428,0.208,1.022-0.218,1.327c-1.021,0.736-2.091,1.454-3.214,2.154
			C149.72,316.175,149.545,316.22,149.375,316.22z M156.972,310.513c-0.258,0-0.515-0.104-0.703-0.309
			c-0.355-0.389-0.327-0.99,0.062-1.346c0.933-0.852,1.818-1.736,2.632-2.625c0.354-0.392,0.956-0.418,1.342-0.063
			c0.391,0.354,0.417,0.955,0.063,1.346c-0.852,0.933-1.777,1.856-2.755,2.747C157.431,310.432,157.2,310.513,156.972,310.513z
			 M163.162,303.323c-0.176,0-0.358-0.051-0.519-0.154c-0.438-0.288-0.565-0.876-0.279-1.318c0.682-1.048,1.29-2.126,1.809-3.205
			c0.227-0.472,0.794-0.674,1.27-0.445c0.474,0.227,0.673,0.795,0.446,1.27c-0.554,1.15-1.201,2.303-1.928,3.418
			C163.777,303.171,163.472,303.323,163.162,303.323z M166.934,294.641c-0.071,0-0.145-0.008-0.216-0.024
			c-0.513-0.119-0.833-0.629-0.714-1.142c0.275-1.193,0.456-2.409,0.536-3.61c0.033-0.523,0.496-0.908,1.011-0.886
			c0.524,0.035,0.922,0.488,0.888,1.013c-0.085,1.301-0.282,2.617-0.58,3.911C167.757,294.343,167.365,294.641,166.934,294.641z
			 M167.164,285.195c-0.454,0-0.854-0.323-0.937-0.782c-0.212-1.181-0.524-2.37-0.928-3.536c-0.173-0.496,0.091-1.039,0.589-1.21
			c0.495-0.173,1.037,0.093,1.21,0.589c0.434,1.258,0.771,2.541,1.002,3.818c0.093,0.519-0.251,1.014-0.768,1.106
			C167.275,285.191,167.22,285.195,167.164,285.195z M163.788,276.354c-0.325,0-0.641-0.164-0.82-0.465
			c-0.615-1.033-1.312-2.062-2.072-3.056c-0.32-0.42-0.24-1.015,0.178-1.335c0.418-0.316,1.015-0.238,1.335,0.179
			c0.803,1.052,1.542,2.143,2.195,3.238c0.27,0.454,0.121,1.038-0.331,1.305C164.121,276.313,163.952,276.354,163.788,276.354z
			 M157.854,268.953c-0.241,0-0.479-0.089-0.665-0.27c-0.863-0.84-1.796-1.675-2.777-2.485c-0.407-0.333-0.465-0.933-0.13-1.338
			c0.334-0.405,0.933-0.465,1.338-0.13c1.022,0.842,1.996,1.714,2.896,2.589c0.379,0.366,0.387,0.969,0.019,1.346
			C158.349,268.856,158.102,268.953,157.854,268.953z M150.419,263.03c-0.181,0-0.361-0.05-0.524-0.156
			c-1.015-0.671-2.078-1.329-3.19-1.97c-0.453-0.262-0.609-0.844-0.348-1.299c0.262-0.456,0.846-0.612,1.3-0.348
			c1.145,0.66,2.238,1.336,3.286,2.028c0.439,0.29,0.562,0.879,0.271,1.318C151.033,262.881,150.728,263.03,150.419,263.03z"/>
	</g>
	<g>
		<path fill="#EB4680" d="M98.777,309.107c-9.092,0-18.201-2.008-25.143-6.015c-6.908-3.989-10.712-9.339-10.712-15.064
			c0-5.547,3.576-10.722,10.083-14.624v-8.112h1.904v9.207l-0.476,0.275c-6.195,3.577-9.606,8.283-9.606,13.254
			c0,5.017,3.466,9.781,9.76,13.415c13.304,7.683,34.882,7.724,48.099,0.09l0.952,1.648
			C116.794,307.134,107.793,309.107,98.777,309.107z"/>
	</g>
	<path fill="#F76195" d="M113.982,251.795c0,24.362-16.167,43.479-16.167,43.479s-16.166-19.117-16.166-43.479
		c0-11.261,7.238-20.388,16.166-20.388C106.743,231.407,113.982,240.534,113.982,251.795z"/>
	<g>
		<g>
			<path fill="#0BA19F" d="M130.317,185.932l29.021,15.46V181.82c0-2.744-0.521-5.152-1.524-7.063l-12.536-23.847
				c-2.699-5.132-8.536-6.043-14.96-2.333l0,0V185.932z"/>
			<path fill="#0BA19F" d="M64.688,185.932l-29.021,15.46V181.82c0-2.744,0.521-5.152,1.524-7.063l12.535-23.847
				c2.698-5.132,8.537-6.043,14.961-2.333l0,0V185.932z"/>
		</g>
	</g>
	<path fill="#0BA19F" d="M111.32,225.628H83.684v3.898h0.005c-0.001,0.037-0.005,0.074-0.005,0.112
		c0,4.442,6.187,8.045,13.818,8.045c7.632,0,13.818-3.603,13.818-8.045c0-0.038-0.003-0.075-0.003-0.112h0.003V225.628z"/>
	<path fill="#0BA19F" d="M130.507,191.063H64.498v19.613h0.011c-0.002,0.087-0.011,0.176-0.011,0.266
		c0,10.614,14.776,19.219,33.004,19.219c18.227,0,33.005-8.604,33.005-19.219c0-0.089-0.011-0.178-0.013-0.266h0.013V191.063z"/>
	<g>
		<path fill="#D1EBFF" d="M173.253,222.994h-1.903v-41.172c0-4.734-0.976-8.991-2.902-12.656l-9.75-18.542l2.334-19.53
			c3.759-31.425-3.758-62.629-21.17-87.865c-0.73-1.062-1.478-2.113-2.242-3.158L111.379,4.123L112.917,3l26.242,35.948
			c0.773,1.058,1.532,2.124,2.271,3.2c17.674,25.617,25.307,57.286,21.496,89.173l-2.266,18.941l9.473,18.019
			c2.073,3.94,3.121,8.497,3.121,13.542V222.994z"/>
	</g>
	<path fill="#A8CFF0" d="M149.103,129.667c3.346-27.974-3.132-56.43-19.131-79.619c-0.671-0.973-1.357-1.939-2.056-2.895
		L97.502,5.49L67.087,47.154c-0.699,0.956-1.384,1.922-2.055,2.895c-15.999,23.188-22.478,51.645-19.133,79.619l7.768,64.964h0.016
		c-0.003,0.115-0.016,0.234-0.016,0.351c0,14.098,19.625,25.528,43.835,25.528c24.209,0,43.835-11.43,43.835-25.528
		c0-0.117-0.011-0.236-0.015-0.351h0.015L149.103,129.667z"/>
	<path fill="#D1EBFF" d="M90.897,118.029c-1.547-38.626,0.612-77.793,6.38-112.232l-30.19,41.356
		c-0.699,0.956-1.384,1.921-2.055,2.895c-15.999,23.188-22.478,51.645-19.133,79.619l7.768,64.962h0.016
		c-0.003,0.117-0.016,0.236-0.016,0.353c0,13.609,18.289,24.729,41.334,25.483L90.897,118.029z"/>
	<g>
		<path fill="#0BA19F" d="M90.862,146.925c0,6.059-2.091,10.351-5.49,12.429c-0.103,0.062-3.266,2.07-3.371,2.128
			c-3.537,1.978-1.274-2.511-6.646-5.611c-10.81-6.241-19.573-21.355-19.573-33.76c0-6.134-5.67-6.184-2.197-8.232
			c0.097-0.057,3.941-2.171,4.04-2.225c3.527-1.91,8.347-1.558,13.664,1.511C82.099,119.407,90.862,134.521,90.862,146.925z"/>
		<path fill="#0FBAB8" d="M87,149.211c0,12.404-8.764,17.401-19.573,11.16c-10.811-6.241-19.573-21.356-19.573-33.761
			s8.763-17.401,19.573-11.16C78.236,121.691,87,136.807,87,149.211z"/>
		<path fill="#084C94" d="M83.32,147.087c0,10.072-7.116,14.129-15.893,9.061c-8.779-5.067-15.895-17.341-15.895-27.415
			c0-10.072,7.116-14.129,15.895-9.062C76.204,124.74,83.32,137.014,83.32,147.087z"/>
		<path fill="#0BA19F" d="M70.552,154.838c-8.778-5.068-15.894-17.342-15.894-27.415c0-4.644,1.515-8.004,4.005-9.786
			c-4.296,0.784-7.131,4.741-7.131,11.096c0,10.073,7.116,22.348,15.895,27.415c4.73,2.733,8.977,2.809,11.889,0.725
			C76.803,157.332,73.792,156.708,70.552,154.838z"/>
		<path opacity="0.5" fill="#FFFFFF" d="M68.001,114.954c-5.182-2.992-10.543-2.792-13.027-1.618
			c3.264-0.913,7.878-0.36,12.265,2.172c10.81,6.241,19.573,21.355,19.573,33.761c0,6.458-2.942,11.031-6.746,12.933
			c3.99-1.476,7.508-6.118,7.508-13.488C87.574,136.311,78.811,121.195,68.001,114.954z"/>
	</g>
	<g>
		<path fill="#0FBAB8" d="M65.009,212.761l-23.1,44.232l-4.672-2.757v-18.728c0-2.625,0.498-5.506,1.459-8.445l11.995-36.67
			c2.582-7.893,8.17-15.218,14.317-18.767l0,0l4.488,2.714L65.009,212.761z"/>
		<path fill="#0BA19F" d="M69.681,215.518L41.91,256.993v-18.727c0-2.626,0.499-5.509,1.459-8.446l11.995-36.67
			c2.582-7.893,8.17-15.217,14.317-18.766l0,0V215.518z"/>
		<path opacity="0.5" fill="#FFFFFF" d="M42.318,238.776c0-2.627,0.498-5.508,1.459-8.447l11.995-36.67
			c2.467-7.542,7.679-14.553,13.501-18.261v-1.116l0,0c-6.147,3.549-11.735,10.873-14.318,18.765L42.96,229.719
			c-0.96,2.937-1.458,5.818-1.458,8.443v18.73l0.816-1.219V238.776z"/>
		<path fill="#0BA19F" d="M129.994,212.761l23.1,44.232l4.671-2.757v-18.728c0-2.625-0.498-5.506-1.458-8.445l-11.997-36.67
			c-2.58-7.893-8.168-15.218-14.317-18.766l0,0l-4.487,2.713L129.994,212.761z"/>
		<path fill="#0FBAB8" d="M125.323,215.518l27.771,41.475v-18.728c0-2.625-0.498-5.508-1.459-8.445l-11.995-36.67
			c-2.582-7.893-8.169-15.217-14.317-18.766l0,0V215.518z"/>
		<path opacity="0.5" fill="#FFFFFF" d="M152.249,229.82l-11.997-36.67c-2.58-7.893-8.168-15.217-14.317-18.765l0,0v0.236
			c5.562,3.801,10.488,10.575,12.864,17.839l11.997,36.672c0.959,2.937,1.457,5.818,1.457,8.443v17.247l1.454,2.171v-18.728
			C153.706,235.638,153.208,232.757,152.249,229.82z"/>
	</g>
	<path fill="#0FBAB8" d="M127.916,47.154L97.502,5.49L67.087,47.154c-0.171,0.233-0.332,0.472-0.499,0.706
		c5.261,6.896,17.119,11.708,30.914,11.708c13.796,0,25.651-4.812,30.914-11.708C128.247,47.626,128.087,47.387,127.916,47.154z"/>
	<path fill="#3ECFCD" d="M67.08,47.164c-0.167,0.23-0.327,0.465-0.492,0.696c4.468,5.855,13.699,10.196,24.825,11.376
		c1.082-18.535,3.037-36.557,5.864-53.439l-30.19,41.356C67.084,47.156,67.082,47.16,67.08,47.164z"/>
	<g>
		<path fill="#EB4680" d="M70.875,271.663c-0.153,0-0.308-0.037-0.452-0.115c-0.463-0.249-0.635-0.827-0.385-1.29l3.057-5.649
			c0.167-0.307,0.522-0.563,0.837-0.5c0.345,0,0.663,0.188,0.831,0.489l3.102,5.556c0.257,0.461,0.092,1.039-0.367,1.295
			c-0.458,0.255-1.04,0.091-1.295-0.366l-2.258-4.044l-2.233,4.126C71.54,271.482,71.213,271.663,70.875,271.663z"/>
	</g>
	<path fill="#EB4680" d="M125.143,303.325c-2.214-0.006-4.014-1.043-4.019-2.322c-0.007-1.277,1.781-2.309,3.993-2.305
		c2.214,0.004,4.014,1.041,4.021,2.319C129.143,302.297,127.354,303.328,125.143,303.325z"/>
</g>
</svg>
