<?xml version="1.0" encoding="utf-8"?>
<!-- Generator: Adobe Illustrator 16.0.2, SVG Export Plug-In . SVG Version: 6.00 Build 0)  -->
<!DOCTYPE svg PUBLIC "-//W3C//DTD SVG 1.1//EN" "http://www.w3.org/Graphics/SVG/1.1/DTD/svg11.dtd">
<svg version="1.1" id="Layer_1" xmlns="http://www.w3.org/2000/svg" xmlns:xlink="http://www.w3.org/1999/xlink" x="0px" y="0px"
	 width="200px" height="200px" viewBox="0 0 200 200" enable-background="new 0 0 200 200" xml:space="preserve">
<g>
	<path fill-rule="evenodd" clip-rule="evenodd" fill="#2D2D2D" d="M50.571,80.234c6.504,2.62,13.388,4.087,18.154-3.619
		c2.266,2.404,0.864,4.513,0.711,6.41c-1.155,14.333,8.011,21.967,21.812,18.019c25.193-7.208,48.732-37.36,49.992-63.769
		c0.273-5.761-1.705-8.112-7.688-7.56c-8.696,0.801-17.024,3.383-26.445,5.771c3.976-7.042,8.06-12.589,9.43-19.344
		c0.993-4.897,3.181-10.967-0.849-15.682c-0.936,0-1.761,0.752-2.805,1.504c-2.286,1.472-4.619-0.095-7.02,0.239
		C88.096,1.181,67.203,18.48,67.076,37.511C53.242,14.975,31.796,6.897,7.249,4.615C3.821,4.298,0.546,4.828,0.048,9.3
		c0.192,2.611-0.454,5.274,0.44,7.852C5.171,47.717,22,68.725,50.571,80.234z M80.529,24.918c6.275-9.8,16.13-13.626,26.811-16.078
		c2.357-0.54,3.261,0.063,3.226,2.78c-0.149,11.346-15.888,29.728-28.458,32.204c2.521-7.374,8.035-12.056,12.434-17.503
		c1.421-1.759,4.403-3.13,1.269-6.226c-2.916-2.882-4.605-0.504-6.493,0.925c-2.406,1.819-4.609,3.905-6.899,5.877
		c-1.167,1.967-2.538,3.729-5.171,5.081C77.301,28.815,78.491,26.69,80.529,24.918z M86.125,60.036
		c11.423-14.472,27.091-20.766,44.814-23.037c5.141-0.657,3.017,3.008,2.656,4.928c-3.416,18.276-13.19,32.626-27.698,43.934
		c-3.877,3.021-8.088,5.481-12.727,7.217c-2.437,0.913-4.828,1.543-8.266,1.121c3.76-9.688,9.984-16.652,15.998-23.748
		c2.415-2.852,4.908-5.633,7.396-8.42c1.607-1.802,3.008-3.354,1.031-6.02c-2.323-3.132-4.061-0.883-5.829,0.255
		c-4.944,3.177-9.164,7.222-12.979,11.665c-4.379,5.101-8.65,10.296-13.829,16.479C77.042,74.229,80.787,66.794,86.125,60.036z
		 M10.264,13.735c26.733-1.068,54.127,22.632,57.525,50.988C59.733,54.686,52.519,45.2,43.239,37.804
		c-2.695-2.148-5.253-8.53-9.863-3.979c-5.044,4.983,2.068,7.008,4.187,9.611c6.771,8.316,14.465,15.911,19.218,25.71
		c0.729,1.504,2.642,3.277,0.993,4.991c-1.2,1.249-3.087,0.231-4.639-0.175C32.1,68.442,8.127,38.319,7.298,16.758
		C7.189,13.919,8.036,13.825,10.264,13.735z"/>
	<path fill-rule="evenodd" clip-rule="evenodd" fill="#2D2D2D" d="M199.071,160.777c-8.101-13.517-17.14-26.255-29.599-36.185
		c-4.645-3.704-9.821-6.098-15.901-6.688c-17.22-1.678-34.435-3.442-51.613-5.48c-8.104-0.962-16.083-3.331-24.19-3.796
		c-11.088-0.634-15.815,6.827-11.381,17.096c3.727,8.634,10.783,13.197,19.813,14.992c-0.685,2.245-1.041,2.337-5.541,1.446
		c-9.367-0.235-17.743-3.578-25.85-7.979c-7.383-4.008-14.821-7.939-22.414-11.523c-5.2-2.455-10.831-3.021-16.41-1.109
		c-9.272,3.177-11.182,10.606-4.557,17.798c2.212,2.402,4.618,4.68,7.196,6.676c26.098,20.224,54.205,35.199,88.653,32.41
		c20.199-1.635,38.1,2.369,51.615,18.808c2.649,3.22,5.092,2.928,8.071-0.091c10.354-10.486,20.882-20.804,31.499-31.021
		C200.447,164.22,200.354,162.919,199.071,160.777z M188.789,166.368c-7.751,7.117-15.325,14.448-22.685,21.972
		c-2.644,2.704-4.492,2.334-6.844,0.063c-1.511-1.461-3.219-2.717-4.759-4.149c-8.734-8.131-18.6-12.433-30.983-12.293
		c-15.632,0.18-31.508,0.497-46.833-2.965c-23.122-5.226-42.167-18.343-59.799-33.64c-4.202-3.646-2.146-6.142,2.018-7.41
		c3.405-1.037,6.934-0.469,10.342,0.666c6.039,2.012,11.533,5.109,16.826,8.542c21.142,13.7,43.435,15.68,68.07,6.439
		c-8.236-4.663-16.278-6.136-23.968-8.584c-5.575-1.776-11.145-3.625-15.372-7.991c-2.609-2.692-4.101-6.007-2.665-9.574
		c1.649-4.101,5.344-1.768,7.945-1.403c23.125,3.237,46.059,7.895,69.57,8.027c7.201,0.043,13.705,3.101,18.807,8.328
		c7.855,8.048,14.77,16.879,21.068,26.202C191.501,161.521,191.713,163.684,188.789,166.368z"/>
</g>
</svg>
