<?xml version="1.0" encoding="utf-8"?>
<!-- Generator: Adobe Illustrator 16.0.2, SVG Export Plug-In . SVG Version: 6.00 Build 0)  -->
<!DOCTYPE svg PUBLIC "-//W3C//DTD SVG 1.1//EN" "http://www.w3.org/Graphics/SVG/1.1/DTD/svg11.dtd">
<svg version="1.1" id="Layer_1" xmlns="http://www.w3.org/2000/svg" xmlns:xlink="http://www.w3.org/1999/xlink" x="0px" y="0px"
	 width="200px" height="200px" viewBox="0 0 200 200" enable-background="new 0 0 200 200" xml:space="preserve">
<g>
	<path fill-rule="evenodd" clip-rule="evenodd" fill="#070707" d="M110.637,111.813c-0.314,0.508-0.512,1.044-0.525,1.668
		c-0.014,0.582,0.037,1.298-0.429,1.676c-0.542,0.438-0.649,0.945-0.683,1.544c-0.135,0.18-0.136,0.358,0.001,0.537
		c0.054,0.307,0.04,0.647,0.176,0.913c0.421,0.826,0.503,1.726,0.612,2.612c0.109,0.882,0.119,0.942,0.963,1.042
		c0.229,0.175,0.19,0.056,0.436,0.091c0.772,1.244,0.813,2.621,0.813,4.062c0,0.504,0,1.042,0,1.042h0.443
		c0,1,0.084,0.926,0.051,1.268c-0.152,0.172-0.031,0.494-0.041,0.686c0-0.001,0.02,0.059,0.02,0.058c0,0.001,0.01,0.031,0.01,0.031
		c-0.237,1.707-1.163,3.347-1.274,5.078c-0.109,0.295-0.208,0.604-0.208,0.868c0,0.001,0,0.001,0,0.002
		c0-0.001,0.431-0.002,0.507-0.003c0.268-0.019,0.688,0.097,0.94-0.078c0.996-0.142,2.058-0.313,3.029-0.567
		c0.784-0.206,1.029-0.568,0.865-1.299c-0.072-0.316-0.224-0.59-0.396-0.858c-0.105-0.164-0.247-0.328-0.231-0.546
		c-0.002-0.206,0.057-0.639,0.056-0.639H116v-0.153c0-0.61,0.092-0.847,0.178-1.847c0.063,0,0.127,0,0.191,0
		c0.098,0-0.059,0.51,0.104,0.627c0.044,0.096,0.088,0.286,0.132,0.384c0.011,0.189-0.072,0.438,0.08,0.607
		c0.051,0.45,0.052,0.937,0.161,1.372c0.339,1.348,0.563,2.73,0.964,4.066c0.549,1.834,1.229,3.603,2.274,5.214
		c0.521,0.801,1.149,1.465,2.146,1.646c0.25,0.142,0.5,0.139,0.752,0.007c0.287-0.172,0.632-0.146,0.927-0.348
		c1.767-1.198,2.769-2.951,3.382-4.9c0.637-2.028,1.289-4.057,1.582-6.191c0.262-1.902,0.761-3.78,0.999-5.691
		c0.168-0.214,0.128-0.458,0.128-0.689c0,0.001,0,0.001,0,0.002c0-0.001,0-0.002,0-0.002c0-0.203-0.132-0.25-0.123-0.453
		c0.179-0.254,0.242-0.65,0.242-0.65H130c0,0,0-0.315,0-0.316c0-0.271,0.096-0.629,0.105-0.9c0.165-0.217,0.258-0.783,0.258-0.783
		h-0.053c0,0-0.077-0.243-0.068-0.406c0.17-0.209,0.02-0.408,0.037-0.635c-0.001,0-0.025,0.021-0.025,0.022
		c0-0.001-0.012,0.01-0.011,0.009c0.009-0.136,0.011-0.265,0.019-0.399c0.17-0.209,0.064-0.449,0.081-0.677
		c0.009-0.171-0.076-0.193-0.067-0.364c0.167-0.218-0.034-0.55-0.034-0.55H130c0,0,0-0.294,0-0.295c0-0.308,0.243-0.617,0.253-0.925
		c0.145-0.36,0.255-0.72,0.11-1.078c-0.041-0.265,0.006-0.506,0.126-0.775c0.161-0.362,0.171-0.777,0.103-1.166
		c-0.107-0.596,0.099-1.162,0.132-1.743c0.014-0.259,0.14-0.183,0.27-0.091c0.221,0.132,0.44,0.157,0.649-0.022
		c0.271-0.63,0.488-1.321,1.425-1.118c0.092,0.021,0.212-0.12,0.327-0.165c0.225-0.089,0.362-0.34,0.635-0.337
		c0.168,0.001,0.338,0.001,0.508,0.002c0.633,0.253,0.366,0.253,0.646-0.436c0.166-0.176-0.183-0.388-0.183-0.586
		c0,0.001,0,0.001,0,0.002c0-0.001,0-0.002,0-0.002c0-0.327,0.214-0.654,0.269-0.981c-0.049-0.268,0.29-0.579-0.007-0.804
		c-0.529,0.078-0.915,0.236-1.236,0.742c-0.413,0.65-0.898,0.744-1.654,0.429c-0.216-0.148-0.803-0.151-1.018,0.002
		c-0.51,0.116-0.354,0.657-1.354,0.983c0-0.607,0-1.161,0-1.716c0-0.037,0.348-0.08,0.344-0.125
		c0.015,0.042,0.223,0.084,0.238,0.125c0.035-0.154,0.168-0.309,0.204-0.463c0.119-0.077,0.165-0.201,0.165-0.323
		c-0.006-3.473,0.013-6.946,0.006-10.418c0.001-0.279,0.013-0.559,0.014-0.838c0.012-0.034-0.02-0.069-0.008-0.104
		c0.184-0.404,0.037-0.829,0.037-1.243c0,0,0-0.001,0-0.001c1-0.282,1.382-0.793,1.532-1.652c0.115-0.653,0.423-1.216,0.872-1.706
		c0.387-0.423,0.729-0.888,0.929-1.436c0.232-0.641,0.243-1.319,0.407-1.975c0.16-0.176,0.024-0.386,0.024-0.583
		c0,0,0.003,0,0.003,0.001c0,0,0.001-0.001,0.001-0.001c0-0.106,0.055-0.216,0.031-0.319c-0.354-1.492-0.397-1.521-1.642-1.259
		c-0.172,0.036-0.328,0.079-0.499,0.119c-0.1,0.045-0.108,0.114-0.106,0.188c-0.152,0.359,0.027,0.756-0.033,1.126
		c-0.269,0.85-0.832,1.525-1.323,2.244c-0.293-0.122-0.138-0.376-0.138-0.557c-0.009-20.1-0.008-40.199-0.006-60.298
		c0-0.196-0.037-0.397,0.044-0.588c-0.056-0.382-0.024-0.762,0.006-1.142c0.189-0.363,0.058-0.749,0.058-1.124c0,0,0,0,0,0.001
		c0,0,0-0.001,0-0.001c0-0.321-0.012-0.644,0.008-0.963c0.045-0.71,0.662-1.394,1.309-1.493c0.332-0.041,0.694,0.133,1.002-0.116
		c0.006-0.5,0.016-1,0.021-1.499c-0.008-0.198-0.019-0.396-0.019-0.593c-0.001-5.443-0.005-10.887,0.01-16.33
		c0.001-0.437-0.087-0.576-0.552-0.573c-3.785,0.02-7.57,0.02-11.355,0c-0.455-0.002-0.56,0.116-0.557,0.563
		c0.016,2.865-0.002,5.73-0.008,8.596c0.008,3.28,0.014,6.561,0.021,9.842c0.349,0.25,0.741,0.068,1.111,0.11
		c-0.046-0.019-0.092-0.024-0.138-0.037c0.047,0.008,0.092,0.02,0.138,0.037c0.913,0.186,1.007,0.311,1.181,1.165
		c0.051,0.252,0.064,0.513,0.131,0.756c0.224,0.815,0.365,1.635,0.292,2.482c0.025,0.34-0.11,0.695,0.091,1.02
		c0.02,0.467,0.055,0.935,0.055,1.402c-0.013,9.73-0.029,19.46-0.044,29.19c-0.001,0.198,0.009,0.396,0.014,0.594
		c-0.007,0.216-0.021,0.432-0.021,0.647c0.009,9.905,0.02,19.81,0.023,29.714c0,0.125,0.043,0.266,0.028,0.395
		c-0.032,0.087-0.081,0.17-0.155,0.249c-1.039-0.446-2.114-0.746-3.25-0.796c-0.009-0.036-0.018-0.072-0.025-0.107
		c0.158-0.903,0.316-1.805,0.475-2.708c0.156-0.17,0.072-0.375,0.082-0.566c0.01-0.137,0.07-0.273,0.08-0.409
		c0.151-0.174,0.127-0.379,0.127-0.572c0,0,0,0,0,0c0,0,0,0,0-0.001c0-0.17-0.034-0.468-0.025-0.638
		c0.176-0.251,0.021,0.074,0.021-0.926H121c0,0,0,0.256,0,0.256c0-0.312,0.142-0.623,0.151-0.935
		c0.146-0.937,0.21-1.874,0.058-2.811c-0.008-0.208,0.013-0.415,0.005-0.622c-0.01-0.192,0.089-0.397-0.063-0.569l0.007,0
		c-0.043-0.229-0.079-0.458-0.127-0.685c-0.257-1.216-0.549-2.412-1.729-3.115c-0.18-0.151-0.358-0.151-0.538,0.001
		c-0.816,0.334-1.2,1.04-1.491,1.8c-0.605,1.589-0.881,3.25-1.109,4.931c-0.207,1.514-0.479,3.02-0.662,4.538
		c-0.16,0.167-0.074,0.373-0.086,0.563c-0.045,0.462-0.004,0.924-0.047,1.387c-0.18,0.25,0.002,0.531,0.002,0.797v0c0,0,0,0,0,0.001
		c0,0.565-0.157,1.135-0.025,1.697c-0.094,0.089-0.271,0.158-0.203,0.326c-0.227,0.185-0.035,0.448-0.139,0.654
		c-0.449,0.896-0.743,1.858-1.115,2.784c-0.377,0.939-0.727,1.89-1.086,2.836c-0.15,0.288-0.153,0.575-0.002,0.862
		c0.204,0.814,0.35,1.639,0.45,2.471c0.013,0.189-0.073,0.394,0.084,0.561c-0.054,0.466,0.276,0.92,0.091,1.409
		c-0.256-0.108-0.305-0.32-0.389-0.49c-0.09-0.179-0.248-0.329-0.391-0.331c-0.145-0.003-0.197,0.227-0.273,0.381
		c-0.448,0.893-0.4,1.851-0.478,2.826c-0.169,0.213,0.106,0.458,0.106,0.689c0-0.001,0-0.001,0-0.002c0,0.001,0,0.002,0,0.002
		c0,0.239-0.207,0.479-0.218,0.719c-0.163,0.211-0.157,0.452-0.171,0.682C111.492,109.728,111.246,110.831,110.637,111.813z
		 M130.419,64.905c0.002,2.583,0.419,5.095,0.419,8.095c-0.001,0-0.838,0-0.838,0s0-0.7,0-0.703
		C130,69.718,130.417,67.485,130.419,64.905z M120.434,91.216c0.002,0.003,0.004,0.006,0.005,0.01
		c-0.003,0.022-0.004,0.045-0.013,0.067C120.431,91.267,120.432,91.242,120.434,91.216z M115.227,94.004
		c-0.003,0.031-0.002,0.062-0.006,0.092c0.002-0.033,0.002-0.066,0.004-0.1C115.226,93.999,115.227,94.001,115.227,94.004z
		 M116.184,128.834c-0.002-0.01-0.004-0.018-0.006-0.027C116.18,128.816,116.182,128.824,116.184,128.834
		C116.184,128.834,116.184,128.834,116.184,128.834z"/>
	<path fill-rule="evenodd" clip-rule="evenodd" fill="#070707" d="M199.795,27.914c0.018-1.84-0.008-3.681,0.018-5.521
		c0.007-0.438-0.127-0.554-0.547-0.534c-0.592,0.029-1.188-0.007-1.783-0.016c-0.927,0.004-1.854,0.008-2.781,0.012
		c-0.158,0.126-0.076,0.302-0.083,0.454c-0.045,0.969-0.05,1.939-0.091,2.909c-0.098,2.323-0.049,4.653-0.021,6.979
		c0.007,0.549,0.186,0.76,0.722,0.842c0.412,0.063,0.596,0.277,0.664,0.657c0.119,0.657,0.235,1.313,0.225,1.986
		c-0.031,2.109-0.047,4.218-0.082,6.327c-0.081,4.923-0.066,9.849-0.06,14.774c0.066,2.885,0.024,5.773,0.024,8.714
		c0,0.077,0,0.153,0,0.23c0-1.204-0.163-2.408-0.292-3.61c-0.201-1.898-0.472-3.791-0.462-5.708c0.004-0.504,0.022-1.008-0.03-1.513
		c-0.148-1.416-0.253-2.835-0.388-4.251c-0.176-1.848-0.302-3.7-0.5-5.545c-0.221-2.042-0.363-4.091-0.461-6.142
		c-0.082-1.729-0.24-3.45-0.397-5.172c-0.17-1.866-0.412-3.724-0.494-5.599c-0.023-0.562,0.022-1.153-0.252-1.686
		c-0.005-0.096-0.011-0.191-0.015-0.287c-0.021-0.301,0.101-0.615-0.081-0.901c-0.009-0.239-0.019-0.477-0.028-0.716
		c-0.018-0.267,0.094-0.547-0.078-0.8c-0.01-0.271-0.02-0.543-0.029-0.815c-0.021-0.271,0.096-0.554-0.08-0.809
		c0.002-0.261-0.141-0.31-0.379-0.31c-1.686,0.002-3.371-0.007-5.057-0.021c-0.25-0.002-0.415,0.064-0.45,0.331
		c-0.13,0.135-0.087,0.306-0.087,0.463c-0.002,3.19-0.002,6.381,0,9.571c0,0.158-0.043,0.328,0.088,0.463
		c0.137,0.36,0.451,0.185,0.686,0.208c0.254,0.025,0.377,0.013,0.47,0.363c0.129,0.485,0.148,0.982,0.281,1.459
		c0.009,0.192-0.073,0.397,0.079,0.569c0.013,0.342,0.037,0.684,0.037,1.025c0,14.947-0.001,29.893-0.004,44.84
		c0,0.63-0.003,1.261-0.015,1.892c-0.184,0.403-0.062,0.826-0.062,1.239c0,0,0-0.001,0-0.001c0,0,0,0.001,0,0.001
		c0,0.328-0.11,0.628-0.126,0.94c-0.059,1.186-0.507,1.475-1.284,1.509c-0.23,0.129-0.144,0.352-0.144,0.535
		c-0.006,3.185-0.007,6.37-0.004,9.556c0.001,0.173-0.059,0.364,0.098,0.51c0.079,0.31,0.333,0.208,0.525,0.209
		c1.513,0.006,3.026,0.002,4.538,0c0.211-0.113,0.138-0.315,0.138-0.484c0.004-3.319,0.005-6.637,0.001-9.956
		c0-0.167,0.074-0.371-0.146-0.476c-0.001,0-0.001,0-0.001,0c-0.472,0.114-0.885,0.117-1.054-0.468
		c-0.066-0.225-0.135-0.442-0.108-0.679c-0.009-0.2,0.079-0.413-0.077-0.593c-0.03-0.487-0.088-0.974-0.027-1.463
		c-0.073-0.182-0.051-0.37-0.047-0.557c0.014,0.186,0.023,0.372,0.047,0.557c0.002-0.662,0.025-1.324,0.002-1.985
		c-0.018-0.475,0.113-0.96-0.084-1.425c-0.007-0.198-0.019-0.396-0.02-0.593c-0.071-9.641-0.033-19.44-0.006-29.082
		c0.004-1.387,0.017-2.319,0.025-4.319c0.033,0,0.067,0,0.102,0l0.021,0.189l-0.021,0.11c0.018,0.268-0.094,0.588,0.076,0.841
		c0.011,0.17,0.021,0.36,0.031,0.53c0.009,0.194-0.076,0.411,0.081,0.583c0.009,0.134-0.305,0.272-0.295,0.406
		c0.018,0.264-0.241,0.547-0.241,0.795c0,0.326,0,0.652,0,0.979c0,0.251,0.183,0.502,0.323,0.753
		c0.008,0.199,0.179,0.397,0.187,0.596c0.02,0.235-0.009,0.485,0.162,0.703c0.009,0.199,0.059,0.398,0.068,0.598
		c0.018,0.234-0.069,0.483,0.101,0.701c0.009,0.199,0.028,0.398,0.037,0.598c0.017,0.234-0.085,0.483,0.085,0.701
		c0.01,0.2,0.022,0.399,0.031,0.599c0.017,0.235-0.088,0.483,0.082,0.7c0.01,0.2,0.02,0.399,0.028,0.599
		c0.017,0.235-0.089,0.483,0.081,0.7c0.01,0.2,0.019,0.401,0.028,0.601c0.015,0.234-0.089,0.482,0.079,0.698
		c0.01,0.201,0.02,0.402,0.029,0.603c0.015,0.233-0.089,0.48,0.079,0.697c0.01,0.201,0.02,0.402,0.029,0.603
		c0.015,0.234-0.089,0.48,0.079,0.697c0.01,0.201,0.02,0.403,0.029,0.604c0.014,0.233-0.089,0.479,0.078,0.695
		c0.01,0.201,0.02,0.403,0.029,0.604c0.016,0.233-0.088,0.479,0.079,0.695c0.011,0.202,0.021,0.403,0.03,0.605
		c0.014,0.233-0.089,0.479,0.078,0.694c0.01,0.203,0.02,0.405,0.029,0.607c0.014,0.232-0.088,0.478,0.079,0.692
		c0.01,0.203,0.021,0.405,0.03,0.607c0.013,0.232-0.089,0.478,0.078,0.692c0.01,0.203,0.02,0.406,0.029,0.609
		c0.014,0.231-0.088,0.476,0.078,0.69c0.01,0.203,0.021,0.406,0.03,0.609c0.013,0.231-0.087,0.476,0.078,0.69
		c0.011,0.204,0.021,0.407,0.03,0.61c0.014,0.231-0.088,0.475,0.078,0.689c0.01,0.204,0.02,0.407,0.029,0.611
		c0.014,0.23-0.086,0.475,0.078,0.688c0.011,0.204,0.021,0.407,0.031,0.611c0.013,0.231-0.088,0.475,0.078,0.688
		c0.01,0.205,0.02,0.409,0.029,0.613c0.014,0.23-0.086,0.473,0.078,0.686c0.01,0.205,0.021,0.409,0.03,0.613
		c0.013,0.23-0.087,0.473,0.077,0.686c0.011,0.205,0.021,0.409,0.031,0.614c0.014,0.23-0.086,0.473,0.078,0.686
		c0.01,0.205,0.02,0.41,0.029,0.614c0.014,0.23-0.086,0.472,0.078,0.685c0.037,0.379,0.111,0.757,0.029,1.139
		c0.03,0.378-0.109,0.769,0.082,1.136c0.009,0.235,0.018,0.469,0.027,0.704c0.018,0.235-0.09,0.485,0.081,0.704
		c0.009,0.167,0.019,0.333,0.028,0.5c0.008,0.197-0.076,0.405,0.077,0.583c0.011,0.168,0.021,0.336,0.03,0.504
		c0.009,0.195-0.076,0.403,0.079,0.578c0.046,0.492,0.093,0.984,0.139,1.477c0.008,0.196-0.078,0.405,0.079,0.581
		c0.01,0.134,0.019,0.268,0.027,0.401c0.009,0.194-0.074,0.4,0.08,0.573c0.01,0.163,0.02,0.325,0.029,0.488
		c0.012,0.2-0.08,0.415,0.082,0.595c0.008,0.135,0.017,0.27,0.025,0.404c0.016,0.228-0.088,0.469,0.082,0.679
		c0.009,0.165,0.018,0.331,0.027,0.496c0.015,0.233-0.089,0.479,0.079,0.695c0.009,0.235-0.09,0.471-0.08,0.708
		c0.029,0.486-0.028,0.981-0.028,1.458c0,0.038,0,0.075,0,0.113c0,0.323-0.032,0.646,0.106,0.97
		c0.012,0.237,0.075,0.474,0.085,0.711c0.01,0.198-0.05,0.409,0.104,0.588c0.009,0.089,0.046,0.179,0.04,0.267
		c-0.033,0.523,0.198,0.728,0.735,0.708c0.952-0.036,1.91-0.041,2.862-0.007c0.48,0.018,0.607-0.133,0.604-0.607
		c-0.011-1.437-0.329-2.874-0.236-4.31c-0.074-0.176-0.301-0.361-0.301-0.542c0,0.003,0,0.006,0,0.009
		c0,0.177,0.286,0.355,0.302,0.533c0.004-0.307,0.138-0.613,0.138-0.919c0-16.839-0.022-33.898-0.023-50.738
		c-0.001-0.577-0.041-0.95-0.041-1.95h0.005c0-1,0.079-3.138,0.114-4.817c0.176-0.239,0.103-0.4,0.132-0.656
		c-0.021-0.293,0.101-0.482,0.392-0.573c0.545-0.171,0.778-0.542,0.853-1.066C199.82,30.555,199.781,29.249,199.795,27.914z
		 M198.557,39.441c-0.015,0.186-0.039,0.371-0.046,0.557C198.508,39.812,198.48,39.622,198.557,39.441z"/>
	<path fill-rule="evenodd" clip-rule="evenodd" fill="#070707" d="M128.015,163.804c-0.147,0.575-0.12,1.151,0.017,1.727
		c0.33,0.381,0.795,0.077,1.17,0.21c0.199-0.013,0.418,0.078,0.599-0.08c0.674-0.103,1.201-0.296,1.673-0.938
		c1.514-2.059,2.91-4.208,4.596-6.143c0.55-0.633,1.113-1.145,2.004-1.206c0.479-0.033,0.951-0.207,1.223-0.651
		c0.383-0.624,0.957-1.026,1.584-1.327c1.266-0.608,2.01-1.562,2.158-2.966c0.139-0.289,0.149-0.576-0.008-0.861
		c-0.301-0.455-0.656-0.342-0.979-0.055c-0.304,0.271-0.497,0.631-0.675,1.002c-0.211,0.439-0.535,0.576-1.041,0.689
		c-0.348,0.002-0.695-0.205-1.043-0.205c-0.001,0-0.002,0-0.003,0c-0.683,0-1.334-0.039-2.009-0.074
		c-1.377-0.068-2.637,0.167-3.242,1.56c-0.752,1.725-2.053,3.028-3.607,4.038c-0.334,0.218-0.791,0.372-0.955,0.725
		c-0.477,1.021-1.331,1.923-1.349,3.135c-0.163,0.178-0.126,0.4-0.126,0.599l0,0c0,0,0,0.002,0,0.003
		C128,163.257,128.023,163.531,128.015,163.804z"/>
	<path fill-rule="evenodd" clip-rule="evenodd" fill="#070707" d="M114.898,152.132c-0.444,1.053-0.783,2.149-1.164,3.229
		c-0.166,0.471,0.116,0.82,0.607,0.725c0.26-0.05,0.504-0.172,0.755-0.262c0.575-0.206,1.091-0.449,1.783-0.308
		c0.964,0.197,1.979,0.375,2.942-0.184c0.596-0.345,0.924-0.27,1.309,0.284c0.211,0.301,0.465,0.421,0.774,0.513
		c0.36,0.147,0.72,0.154,1.079-0.004c0.298-0.615,0.771-1.074,1.439-1.165c0.543-0.073,0.816-0.372,1.084-0.771
		c0.271-0.403,0.504-0.828,0.67-1.278c0.244-0.663,0.535-1.328,0.422-2.066c-0.05-0.319-0.166-0.581-0.571-0.582
		c-0.396-0.001-0.46,0.343-0.507,0.564c-0.152,0.722-0.494,1.346-0.932,1.908c-0.261,0.335-0.627,0.642-1.09,0.665
		c-0.439,0.023-0.33-0.443-0.477-0.674c-0.285-0.453-0.669-0.583-1.148-0.492c-0.517,0.099-1.099,0.323-1.119,0.862
		c-0.023,0.587-0.327,0.424-0.605,0.411c-0.289-0.013-0.533-0.151-0.752-0.353c-0.384-0.35-0.768-0.751-1.303-0.813
		c-0.574-0.067-1.027-0.261-1.463-0.658C115.963,151.068,115.186,151.45,114.898,152.132z"/>
	<path fill-rule="evenodd" clip-rule="evenodd" fill="#070707" d="M110.635,155.796c0.109-0.317,0.162-0.655,0.241-0.984
		c0.146-0.575,0.146-1.151,0.001-1.728c-0.204-1.168-0.331-1.277-1.508-1.293c-0.19,0.01-0.395-0.022-0.565,0.129
		c-0.206,0.011-0.411,0.08-0.616,0.08c-0.236,0-0.475,0-0.712,0c-0.271-1-0.539-1.425-0.812-2.11
		c-0.047-0.118-0.003-0.349-0.23-0.313c-0.402,0.063-0.801,0.162-1.137,0.376c-0.279,0.179-0.098,0.52-0.124,0.79
		c-0.024,0.25,0.012,0.502-0.009,0.752c-0.029,0.347,0.027,0.597,0.423,0.707c0.397,0.111,0.69,0.372,0.894,0.751
		c0.168,0.309,0.309,0.615,0.067,0.914c-0.293,0.363-0.647,0.262-1.009,0.059c-0.554-0.312-1.08-0.671-1.736-0.784
		c-0.761-0.13-1.393,0.146-1.78,0.802c-0.46,0.776-0.686,1.621-0.823,2.499c-0.123,0.186-0.146,0.366,0.025,0.538
		c0.787,0.067,1.471-0.366,2.221-0.456c1.025-0.122,2.035-0.233,2.864-0.951c0.225-0.193,0.538-0.144,0.825-0.087
		c0.773,0.15,1.436,0.582,2.164,0.846C109.889,156.545,110.434,156.375,110.635,155.796z"/>
	<path fill-rule="evenodd" clip-rule="evenodd" fill="#070707" d="M62.473,115.506c0.144-0.288,0.152-0.576-0.005-0.862
		c-0.306-0.631-0.918-0.666-1.496-0.755c-0.195-0.03-0.408-0.018-0.461-0.262c-0.12-0.553-0.399-1.073-0.337-1.663
		c-0.016-0.227,0.084-0.468-0.081-0.676c-0.009-0.171-0.019-0.342-0.029-0.513c-0.009-0.193,0.077-0.399-0.083-0.571
		c-0.107-0.335-0.187-0.683-0.328-1.003c-0.187-0.422-0.69-0.576-0.947-0.258c-0.39,0.484-0.63,0.278-0.922-0.068
		c-0.149-0.177-0.348-0.367-0.596-0.277c-0.252,0.093-0.277,0.367-0.328,0.607c-0.136,0.652-0.2,1.328-0.629,1.885
		c-0.058,0.075-0.164,0.203-0.187,0.306c-0.112,0.401-0.045,0.804-0.045,1.18c0-0.001,0-0.002,0-0.003c0,0.001,0,0.002,0,0.003
		c1,0.152,1.091,0.631,1.622,0.863c0.955,0.417,1.226,1.206,1.221,2.147c-0.002,0.301,0.102,0.634,0.296,0.887
		c0.537,0.697,1.165,1.329,1.822,1.91c0.304,0.269,0.634,0.515,1.082,0.606c0.42,0.086,0.42-0.079,0.379-0.361
		c-0.057-0.386-0.125-0.769-0.19-1.153c0.001-0.299,0.002-0.598,0.003-0.896C62.213,116.198,62.358,115.855,62.473,115.506z"/>
	<path fill-rule="evenodd" clip-rule="evenodd" fill="#070707" d="M115.529,165.286c0.389,0.333,0.828,0.312,1.007-0.144
		c0.153-0.39,0.325-0.435,0.729-0.328c0.608,0.16,0.975,0.001,0.938-0.662c-0.012-0.233-0.02-0.47-0.005-0.703
		c0.019-0.305-0.058-0.464-0.397-0.566c-0.631-0.189-1.074-0.583-1.133-1.323c-0.035-0.446-0.188-0.914-0.621-1.138
		c-0.977-0.506-1.722-1.271-2.46-2.057c-0.456-0.486-0.808-0.519-1.354-0.171c-0.748,0.477-1.581,0.824-2.229,1.454
		c0.007,0.194-0.076,0.401,0.076,0.577c0.014,0.214,0.014,0.429,0.045,0.64c0.133,0.893,0.449,1.292,1.392,1.016
		c0.366-0.107,0.687-0.304,1.026-0.46c0.115-0.054,0.215-0.192,0.384-0.06c0.841,0.661,1.567,1.41,1.948,2.437
		C115.064,164.306,115.064,164.887,115.529,165.286z"/>
	<path fill-rule="evenodd" clip-rule="evenodd" fill="#070707" d="M96.018,150.61c-0.241-0.216-0.494-0.168-0.75-0.033
		c-0.524,0.12-0.917,0.565-1.492,0.576c-0.289,0.006-0.747-0.031-0.746,0.334c0.001,0.489-0.271,1.131,0.306,1.46
		c0.791,0.451,0.962,1.201,1.064,1.975c0.043,0.327,0.15,0.434,0.435,0.452c0.398,0.138,0.795,0.164,1.189-0.016
		c0.007-0.649,0.215-1.203,0.712-1.65c0.567-0.511,0.797-1.253,0.3-2.062C96.771,151.214,96.455,150.859,96.018,150.61z"/>
	<path fill-rule="evenodd" clip-rule="evenodd" fill="#070707" d="M141.086,147.396c0-0.177-0.195-0.291-0.361-0.406
		c-0.887-0.616-1.676-0.124-2.459,0.23c-0.75,0.339-1.22,0.839-1.065,1.728c0.036,0.21,0.028,0.435-0.007,0.645
		c-0.047,0.289,0.043,0.597,0.215,0.72c0.164,0.118,0.453-0.085,0.675-0.191c0.048-0.023,0.096-0.059,0.124-0.102
		c0.381-0.564,0.844-0.408,1.336-0.176c0.26,0.122,0.49,0.163,0.699-0.182c0.279-0.463,0.576-0.933,0.699-1.456
		C141.113,147.95,141.086,147.668,141.086,147.396C141.086,147.397,141.086,147.397,141.086,147.396z"/>
	<path fill-rule="evenodd" clip-rule="evenodd" fill="#070707" d="M100.162,118.692c-0.466,0.265-0.465,0.784-0.532,1.229
		c-0.047,0.315,0.203,0.51,0.512,0.588c0.222,0.12,0.44,0.17,0.64-0.043c0.02-0.427,0.285-0.808,0.226-1.253
		C100.952,118.792,100.514,118.493,100.162,118.692z"/>
	<path fill-rule="evenodd" clip-rule="evenodd" fill="#070707" d="M197.576,121c-1.294,0-2.588,0-3.881,0
		c0.137-1,0.46-1.854,0.691-2.762c0.528-2.082,1.188-4.151,1.489-6.286c0.14-0.251,0.138-0.512,0.001-0.763
		c-0.037-0.157-0.081-0.317-0.109-0.476c-0.201-1.129-0.586-1.507-1.967-1.253c-0.398,0.074-0.707,0.34-1.078,0.471
		c-0.445,0.158-0.871,0.306-1.303-0.081c-1.117-1.004-2.284-1.943-3.621-2.655c-0.516-0.275-0.99-0.627-1.484-0.944
		c-0.014-0.415,0.007-0.839-0.177-1.244c-0.012-0.469-0.138-0.938-0.138-1.407c0-1.117,0-2.234,0-3.352
		c0-1.655,0.11-3.311,0.108-4.966c0-0.173,0.069-0.369-0.159-0.438c-1.178-0.299-1.471-0.68-1.497-1.823
		c-0.008-0.194,0.089-0.399-0.063-0.574c-0.008-0.233-0.017-0.467-0.017-0.701c-0.002-17.96,0-35.921-0.001-53.882
		c0-0.809-0.187-1.619-0.187-2.429c-0.001-0.973-0.185-1.945-0.185-2.918c0-0.001,0-0.002,0-0.004c0-0.827,0.288-1.624,0.517-2.414
		c0.102-0.354,0.36-0.552,0.771-0.493c0.252,0.036,0.581,0.063,0.78-0.18c0.043-0.073-0.024-0.147,0.018-0.22
		c0.032-0.086-0.085-0.176-0.085-0.266c0-4.012,0-8.024,0-12.036c0-0.106,0.156-0.218,0.102-0.316
		c0.006-0.052,0.07-0.104,0.044-0.154c-1.91-0.007-3.787-0.015-5.697-0.022c-0.541,0.005-1.064,0.044-1.603,0.006
		c-0.445-0.032-0.524,0.133-0.523,0.546c0.015,4.002,0.013,8.004,0.018,12.006c0,0.15-0.076,0.326,0.086,0.451
		c0.189,0.236,0.627-0.014,0.743,0.415c0.137,0.503,0.321,0.989,0.341,1.521c0.269,7.284,0.168,14.571,0.14,21.857
		c-0.001,0.301-0.077,0.407-0.39,0.399c-0.83-0.021-1.662-0.039-2.488,0.004c-0.541,0.028-0.725-0.098-0.722-0.689
		c0.021-4.509-0.006-9.018-0.002-13.527c0.002-2.705-0.033-5.411,0.077-8.115c0.02-0.494,0.119-0.959,0.305-1.416
		c0.067-0.165,0.128-0.287,0.326-0.29c0.457-0.006,0.496-0.317,0.495-0.671c-0.01-4.022-0.019-8.044-0.019-12.066
		c0-0.287-0.052-0.412-0.379-0.409c-2.361,0.016-4.725,0.012-7.087,0.014c-0.091-0.021-0.177-0.027-0.222,0.08
		c-0.279,0.158-0.215,0.436-0.215,0.676c-0.003,3.933,0.004,7.867-0.004,11.801c0,0.38,0.128,0.555,0.517,0.593
		c0.927,0.091,0.932,0.101,1.162,1.04c0.077,0.313,0.147,0.636,0.159,0.957c0.078,2.109,0.193,4.219,0.196,6.329
		c0.024,15.645,0.019,31.289,0.04,46.934c0.004,2.725-0.216,5.533-0.236,8.256c-0.008,1.201-0.387,1.889-1.512,1.889
		c-0.034,0-0.069,0-0.104,0c-0.351,0-0.364,0.204-0.365,0.356c-0.013,1.678-0.183,3.265-0.183,4.943c0,0.493,0,0.986,0,1.513
		c0-0.241,0.069-0.933-0.582-0.873c-0.447,0.042-0.766,0.149-1.045,0.536c-0.01,0.015,0.019,0.024,0.005,0.036
		c-0.512,0.421-0.889,0.323-0.99-0.313c-0.273-1.715-0.388-3.447-0.388-5.178c0-2.748,0-5.495,0-8.242
		c0-0.252,0.101-0.504,0.101-0.757c0.045-15.751,0.114-31.502,0.194-47.253c0.018-3.493-0.222-6.998,0.298-10.48
		c0.087-0.585,0.431-0.94,1.021-0.958c0.217-0.006,0.438,0.001,0.655-0.012c0.605-0.036,0.723-0.17,0.698-0.766
		c-0.022-0.522-0.043-1.045-0.044-1.568c-0.005-4.042-0.01-8.083,0.006-12.125c0.002-0.424-0.062-0.58-0.542-0.577
		c-3.699,0.023-7.397,0.021-11.096,0.002c-0.436-0.002-0.527,0.122-0.525,0.537c0.014,4.402,0.008,8.805,0.008,13.207
		c0,1.326,0,1.325,1.309,1.305c0.211-0.003,0.414-0.048,0.563,0.2c0.291,0.483,0.568,0.968,0.601,1.543
		c0.086,1.584,0.228,3.164,0.239,4.754c0.058,8.516,0.1,17.032,0.07,25.548c-0.043,12.684,0.018,25.368-0.158,38.051
		c-0.012,0.919-0.052,1.84,0.063,2.758c-0.037,0-0.068,0.015-0.095,0.042c-0.18,0.012-0.175,0.146-0.179,0.272
		c-0.015,0.579,0.025,1.19-0.807,1.242c-0.035,0.003-0.09,0.067-0.098,0.109c-0.092,0.569-0.5,0.542-0.928,0.514
		c-0.425-0.027-0.45,0.257-0.478,0.617c-0.021,0.303,0.124,0.608,0.124,0.912c0,0.542,0,1.084,0,1.627
		c-1,0.134-0.214,0.305-0.214,0.462c-0.002,3.011-0.063,6.022-0.062,9.033c0,0.157-0.074,0.328,0.058,0.462
		c0.01,0.384,0.005,0.768,0.015,1.151c0.009,0.196-0.088,0.406,0.075,0.581c0.053,0.117,0.037,0.283,0.222,0.299
		c0.232,0.012,0.463,0.031,0.694,0.032c1.897,0.003,3.794,0.002,5.691,0.003c0.047,0.586,0.101,1.168,0.237,1.744
		c0.123,0.519-0.008,0.645-0.543,0.645c-0.214,0-0.429-0.004-0.643-0.007c-0.25,0.229-0.09,0.521-0.121,0.784
		c0.02-0.036,0.027-0.075,0.038-0.112c-0.008,0.038-0.019,0.076-0.038,0.112c0.085,0.207-0.242,0.409-0.007,0.617
		c-0.135,0.124-0.117,0.281-0.099,0.438c-0.011,0.035-0.021,0.07-0.033,0.105c-0.152,0.174-0.069,0.38-0.078,0.574
		c0.005,0.161,0.057,0.339,0.007,0.48c-0.396,1.108-0.489,2.284-0.737,3.423c-0.346,1.577-0.576,3.174-0.979,4.748
		c-0.773,3.023-1.488,6.062-2.503,9.016c-0.624,1.817-1.177,3.659-1.939,5.43c-0.433,1.004-0.828,2.021-1.28,3.019
		c-0.48,1.063-0.968,2.126-1.448,3.19c-0.38,0.842-0.722,1.7-1.099,2.543c-0.301,0.673-0.569,1.368-0.954,1.992
		c-1.097,1.778-2.243,3.526-3.375,5.283c-1.065,1.654-2.146,3.3-3.202,4.96c-1.15,1.808-2.242,3.654-3.434,5.434
		c-0.658,0.983-1.486,1.851-2.208,2.793c-2.063,2.697-4.343,5.201-6.747,7.596c-0.613,0.609-1.169,1.283-1.824,1.843
		c-1.207,1.032-2.388,2.097-3.631,3.09c-1.507,1.202-2.879,2.565-4.404,3.749c-2.075,1.609-4.242,3.079-6.457,4.483
		c-0.68,0.432-1.392,0.48-1.984,1.48c0.262,0,0.441,0,0.62,0c0.229,0,0.472,0.092,0.682-0.078c0.103-0.008,0.204-0.014,0.306-0.021
		c0.189-0.012,0.395,0.074,0.561-0.085c2.547-0.339,5.03-0.996,7.547-1.488c1.703-0.332,3.34-0.909,5-1.403
		c1.41-0.421,2.82-0.845,4.226-1.286c1.042-0.328,2.089-0.652,3.11-1.041c1.141-0.436,2.262-0.925,3.378-1.42
		c2.366-1.051,4.772-2.009,7.003-3.357c2.455-1.483,4.969-2.869,7.455-4.301c1.046-0.603,2.136-1.137,3.109-1.852
		c1.607-1.178,3.18-2.403,4.779-3.592c2.551-1.898,5.004-3.908,7.271-6.141c1.58-1.556,3.125-3.147,4.646-4.761
		c0.316-0.335,0.726-0.586,1.018-0.938c1.647-1.983,3.223-4.029,4.884-5.997c1.462-1.731,2.692-3.606,3.912-5.492
		c1.21-1.87,2.296-3.82,3.47-5.715c1.728-2.786,3.268-5.664,4.58-8.675c1.241-2.85,2.335-5.755,3.414-8.665
		c1.117-3.012,1.94-6.12,2.643-9.256c0.179-0.241,0.06-0.515,0.086-0.773c-0.069-0.167,0.174-0.212,0.111-0.378
		C198.07,120.938,197.807,121,197.576,121z M169.702,29.4c-0.005-0.002-0.011-0.004-0.017-0.006
		C169.691,29.396,169.696,29.398,169.702,29.4z M176,67.873c0-0.163,0.116-0.325,0.11-0.487c-0.015-0.396,0.237-0.543,0.616-0.54
		c0.631,0.006,1.291-0.001,1.923,0.001c0.727,0.003,0.777,0.037,0.779,0.765c0.005,1.534,0.008,3.068,0.008,4.602
		c0,6.28-0.254,12.561-0.301,18.84c-0.01,1.287-0.136,2.658-1.136,3.76c0,0.004,0,0.009,0,0.014c0,0.034,0.157,0.104,0.159,0.207
		c-0.008-0.002-0.013-0.005-0.019-0.007C178.057,95.104,178,95.201,178,95.31c0,0.003,0,0.006,0,0.009
		c0,0.195,0.004,0.48,0.003,0.729c-0.011,2.379,0.062,4.759,0.067,7.138c0.004,0.919-0.003,1.838,0.069,2.757
		c0.002,0.011,0.021,0.021,0.024,0.033c-0.307,0.021-0.573,0.174-0.886,0.315c-0.003-0.574-0.063-1.151,0.069-1.723
		c0.229-0.443,0.504-0.866,0.473-1.403c-0.044-0.758-0.251-1.479-0.46-2.201c-0.021-0.079-0.164-0.166-0.255-0.185
		c0.001-1.047-0.105-2.094-0.105-3.141c0-0.538,0-1.076,0-1.614c0-0.315,0.152-0.635,0.057-0.934
		c-0.007-0.106,0.031-0.211-0.01-0.314c-0.75-0.772-0.949-1.748-0.967-2.756c0-0.072-0.08-0.145-0.08-0.217
		C176,83.826,176,75.85,176,67.873z M166,41.391c0-0.005,0-0.011,0-0.017C166,41.313,166,41.444,166,41.391z M159.507,101.801
		c-0.024-0.043-0.036-0.082-0.048-0.121c0-0.009,0-0.017,0-0.024C159.471,101.7,159.486,101.747,159.507,101.801z M175.027,116.124
		c-0.366,0.404-0.736,0.8-1.215,1.063c-0.623,0.343-1.122,0.116-1.178-0.553c-0.082-1.015-0.354-1.985-0.608-2.961
		c-0.075-0.29-0.075-0.642-0.495-0.671c-0.379-0.027-0.771-0.086-0.982,0.36c-0.053,0.11-0.124,0.254-0.27,0.229
		c-0.176-0.03-0.173-0.214-0.199-0.347c-0.146-0.725-0.287-1.446-0.289-2.193c-0.002-1.075,0.056-2.15-0.034-3.224
		c2.157,0.008,4.315,0.016,6.474,0.022c0,0.216-0.006,0.432,0,0.646c0.004,0.115-0.049,0.271,0.133,0.304
		c0.42,0.075,0.862,0.27,1.266,0.062c0.814-0.42,1.694-0.676,2.523-1.058c0.426,0.063,0.871-0.096,1.288,0.067
		c-0.199,0.204-0.374,0.431-0.556,0.649c-0.509,0.608-0.964,1.261-1.511,1.838c-0.868,0.916-1.735,1.836-2.384,2.927
		C176.4,114.279,175.806,115.263,175.027,116.124z M178.154,121c-0.006,0-0.012,0-0.019,0C178.08,121,178.197,121,178.154,121z"/>
	<path fill-rule="evenodd" clip-rule="evenodd" fill="#070707" d="M109.439,189.143c-0.846,0.074-1.69,0.149-2.536,0.225
		c-0.199,0.01-0.411-0.079-0.591,0.079c-0.204,0.009-0.408,0.019-0.613,0.028c-0.301,0.02-0.615-0.1-0.902,0.078
		c-0.379,0.009-0.758,0.019-1.138,0.028c-0.56,0.033-1.127-0.116-1.678,0.081c-1.265,0.048-2.529,0.062-3.794-0.001
		c-0.285-0.178-0.596-0.057-0.895-0.079c-0.135-0.009-0.562-0.017-0.696-0.025c-0.762-0.204-1.596-0.107-2.596-0.142V189h0.405
		c-0.136,0-0.18,0.034-0.315,0.024c-0.218-0.165-0.42-0.024-0.655-0.024h0.023c0,0,0.011,0,0.01,0c-0.344,0-0.682,0.035-1.026,0.025
		C92.231,188.86,91.993,189,91.765,189c0,0,0.001,0,0.002,0c0,0,0,0,0,0c-0.693,0-1.282-0.121-1.772-0.617
		c-0.265-0.27-0.55-0.452-0.825-0.711c-0.746-0.704-1.548-1.326-2.223-2.094c-1.565-1.775-3.056-3.602-4.6-5.396
		c-1.914-2.228-3.76-4.488-5.44-6.909c-1.61-2.319-3.191-4.645-4.563-7.111c-2.09-3.761-4.238-7.492-5.937-11.453
		c-0.502-1.173-1.144-2.287-1.488-3.528c-0.071-0.255-0.106-0.34,0.227-0.405c1.661-0.326,3.307-0.732,4.972-1.035
		c0.652-0.119,1.278-0.47,1.975-0.301c0.022,0.169-0.062,0.358,0.097,0.501c0.247,0.963,0.87,1.604,1.757,1.99
		c0.248,0.107,0.519,0.03,0.682-0.245c0.183-0.311,0.202-0.64,0.135-0.981c-0.111-0.564-0.434-1.001-0.839-1.388
		c0.114-0.185,0.304-0.113,0.465-0.14l0,0h0c0.822,0.484,1.643,0.971,2.469,1.45c0.244,0.142,0.502,0.256,0.684,0.484
		c0.285,0.357,0.693,0.524,1.108,0.632c1.336,0.347,2.684,0.828,4.057,0.992c0.167,0.158,0.372,0.266,0.561,0.266
		c0,0-0.001,0-0.001,0c0,0,0.001,0,0.001,0c0.138,0,0.275-0.164,0.414-0.154c0.576,0.145,1.152,0.057,1.728-0.092
		c0.47-0.15,0.941-0.339,1.409-0.496c0.742-0.25,1.41-0.075,2.029,0.331c0.565,0.371,1.031,0.949,1.692,1.088
		c0.738,0.154,1.233,0.551,1.693,1.076c0.209,0.239,0.425,0.485,0.743,0.571c0.119,0.033,0.331,0.125,0.341-0.169
		c0.021-0.599,0.05-1.216-0.367-1.693c-0.64-0.733-0.755-1.593-0.726-2.506c-0.027-0.879,0.112-1.763-0.076-2.636
		c-0.329-1.169-0.688-1.352-1.857-0.98c-0.168,0.054-0.321,0.125-0.479,0.193c-0.874,0.38-1.442,0.32-2.164-0.236
		c0.557-0.375,1.156-0.134,1.718-0.182c0.199-0.011,0.411,0.077,0.592-0.076c0.713-0.052,1.405-0.292,2.129-0.249
		c0.195-0.008,0.403,0.075,0.579-0.077c0.958-0.011,1.915-0.021,2.873-0.031c0.199-0.01,0.412,0.078,0.593-0.077
		c0.381-0.01,0.762-0.021,1.143-0.03c0.414-0.023,0.836,0.106,1.239-0.08c0.347-0.01,0.694-0.019,1.042-0.028
		c0.411-0.021,0.832,0.104,1.232-0.079c0.38-0.009,0.759-0.019,1.138-0.027c0.379-0.03,0.769,0.106,1.136-0.08
		c0.382-0.01,0.763-0.02,1.144-0.029c0.413-0.024,0.836,0.105,1.238-0.081c0.348-0.009,0.695-0.019,1.042-0.028
		c0.411-0.021,0.832,0.104,1.232-0.079c0.38-0.009,0.759-0.019,1.138-0.027c0.133-0.02,0.232-0.035,0.317-0.053
		c-0.083,0.033-0.187,0.051-0.317,0.053c0.705,0.017,0.705,0.017,0.705-0.688c0.001-2.13,0.004-4.259-0.004-6.388
		c-0.001-0.172,0.076-0.375-0.056-0.524c-0.013-0.031-0.243-0.049-0.272-0.055c-0.007-0.004-0.227-0.01-0.227-0.014
		c0,0.003,0,0.006,0,0.009l0.42-0.374c-0.516,0-1.029,0-1.544,0c-0.021,0-0.04,0-0.061,0c0.021,0,0.04-0.039,0.061-0.043
		c-0.593,0.027-1.193,0.043-1.78,0.043c0.012,0,0.022,0,0.033,0c-0.011,0-0.021,0.225-0.033,0.227
		c-0.667,0.025-1.334,0.199-2.004,0.137c-0.146,0.027-0.293,0.096-0.44,0.103c0.147-0.011,0.294-0.274,0.44-0.299
		c-0.668,0.031-1.342-0.167-2.002-0.167c0.002,0,0.006,0,0.009,0c-0.003,0-0.007,0.277-0.009,0.279
		c-0.273,0.008-0.547,0.155-0.82,0.165c-0.003,0.001-0.006,0.07-0.008,0.071c0.002-0.001,0.005,0.202,0.008,0.201
		c-0.341,0.021-0.693-0.717-1.021,0.283c0,0,0.001,0,0.002,0c-0.001,0-0.002,0-0.002,0c-0.272,0-0.543-0.15-0.815-0.143
		c-0.306,0.023-0.625-0.185-0.917-0.005c-1.103,0.089-2.206-0.009-3.309-0.012c-0.377,0.027-0.766-0.132-1.131,0.06
		c-0.238,0.01-0.475,0.009-0.713,0.018c-0.269,0.02-0.55-0.102-0.803,0.075c-0.199,0.01-0.397,0.015-0.596,0.024
		c-0.235,0.019-0.486-0.092-0.703,0.081c-0.167,0.009-0.334,0.018-0.5,0.026c-0.196,0.008-0.405-0.076-0.582,0.077
		c-0.17,0.01-0.341,0.02-0.511,0.029c-0.192,0.009-0.397-0.073-0.571,0.077c-0.169,0.011-0.339,0.021-0.508,0.032
		c-0.194,0.009-0.401-0.076-0.575,0.08c-0.134,0.01-0.267,0.019-0.401,0.028c-0.194,0.009-0.401-0.077-0.574,0.081
		c-0.932,0.116-1.863,0.232-2.795,0.349c-0.225,0.021-0.468-0.091-0.671,0.092c-0.164,0.007-0.328,0.015-0.492,0.021
		c-0.199,0.009-0.412-0.081-0.59,0.08c-0.133,0.009-0.267,0.018-0.399,0.026c-0.194,0.008-0.401-0.075-0.575,0.079
		c-0.106,0.016-0.214,0.024-0.319,0.046c-0.864,0.181-1.709,0.313-2.17-0.722c-0.027-0.062-0.105-0.098-0.149-0.153
		c-0.276-0.352-0.544-0.228-0.797,0.022c-0.139,0.137-0.197,0.315-0.249,0.509c-0.106,0.392-0.318,0.93-0.658,0.937
		c-0.861,0.02-1.681,0.374-2.547,0.257c-0.196,0.009-0.404-0.075-0.582,0.076c-1.009,0.188-2.018,0.377-3.026,0.565
		c-0.313,0.02-0.624,0.03-0.784-0.322c-0.394-0.441-0.441-1.024-0.596-1.552c-0.218-0.747-0.729-1.09-1.422-1.259
		c-0.222-0.055-0.449-0.273-0.674-0.316c-0.286-0.186-0.6-0.266-0.901-0.266c0,0,0.001,0,0.001,0c0,0-0.001,0-0.001,0
		c-0.57,0-0.932,0.225-1.122-0.506c-0.344-1.328-1.577-1.506-2.544-0.561c-0.051,0.05-0.101,0.148-0.156,0.194
		c-0.581,0.494-1.146,0.497-1.67-0.045c-0.201-0.208-0.446-0.332-0.686-0.488c-0.562-0.366-0.913-0.874-0.819-1.586
		c0.058-0.441,0.11-0.876,0.188-1.314c0.019-0.05,0.027-0.101,0.036-0.151c0.001,0.051,0.002,0.102,0.004,0.153
		c0.179-0.251,0.062-0.531,0.081-0.798c-0.037,0.1,0.006,0.201-0.006,0.303c-0.004-0.103,0.051-0.205,0.051-0.304
		c0-0.981,0-1.963,0-2.945c0-0.131-0.055-0.265-0.05-0.399c0.012,0.134-0.001,0.268,0.036,0.399
		c-0.02-0.338,0.082-0.688-0.093-1.015c-0.001,0.067-0.011,0.135-0.011,0.202c-0.009-0.067-0.021-0.136-0.04-0.202
		c-0.011-0.239-0.003-0.479-0.014-0.718c-0.026-0.054-0.036-0.11-0.039-0.167c0.013,0.056,0.03,0.112,0.058,0.167
		c-0.008-0.196,0.076-0.405-0.078-0.582c-0.001,0.014,0,0.026-0.001,0.04c-0.003-0.014-0.003-0.026-0.009-0.04
		c-0.166-1.023-0.329-2.041-0.304-3.087c-0.021-0.064-0.031-0.129-0.04-0.194c0.009-0.201-0.176-0.404-0.213-0.601
		c0.005-0.078-0.202-0.155-0.202-0.232c0-0.254,0-0.509,0-0.763c0-0.063,0.209-0.126,0.204-0.188
		c0.032-0.146,0.116-0.297,0.106-0.446c0.008-0.06,0.074-0.118,0.097-0.177c-0.043-0.661,0.21-1.269,0.355-1.896
		c0.007-0.021,0.023-0.042,0.028-0.063c0.085-0.146,0.087-0.293-0.009-0.44c-0.003-0.011-0.001-0.022-0.005-0.034
		c-0.274-0.979-0.751-1.871-1.228-2.761c-0.461-0.861-0.887-1.735-0.962-2.731c-0.011-0.143-0.045-0.231-0.211-0.245
		c-0.651-0.059-1.12-0.492-1.643-0.813c0-0.003,0.173-0.006,0.172-0.008C55.878,112.33,56,111.694,56,111.073
		c0-0.001,0-0.001,0-0.002c0-0.17,0-0.071,0-0.071h0.02c0-1-0.122-0.619-0.278-0.793c-0.01-0.127-0.118-0.362-0.127-0.488
		c0.003-0.734-0.025-1.523-0.045-2.256c-0.012-0.439,0.08-0.917-0.108-1.346c-0.009-0.349-0.032-0.712-0.042-1.061
		c-0.017-0.266,0.088-0.551-0.084-0.801c-0.013-0.036-0.028-0.264-0.041-0.3c0.025-0.765,0.023-0.956,0.816-0.956
		c4.96,0,9.92,0,14.88,0c0.229,0,0.466,0.146,0.669,0.301c0,0,0.001,0.092,0.001,0.09c0.097,0.338,0.367,0.616,0.543,0.903
		c0.004,0.007,0.004,0.038,0.008,0.045c-0.003-0.006,0.351,0,0.347-0.005c0.017,0.185-0.561,0.39,0.439,0.554v0.002
		c0,0.166-0.333,0.335-0.323,0.503c0.001,0-0.177,0.003-0.176,0.004c-0.001-0.001-0.09-0.044-0.09-0.045
		c0.013,0.232-0.163,0.648,0.002,0.648h-0.007c0.012,0,0.022,0.398,0.032,0.576c0.037,0.658,0.279,0.851,0.888,0.659
		c0.334-0.105,0.672-0.183,1.009-0.278c0.325-0.092,0.437,0.079,0.391,0.365c-0.069,0.43,0.13,0.811,0.195,1.215
		c0.013,0.229-0.087,0.475,0.078,0.688c0,0.073-0.078,0.147-0.078,0.222c-0.166,0.218-0.156,0.468-0.156,0.703c0,0,0,0,0,0.001
		c0,0.728,0.178,1.37,0.366,2.042c0.189,0.677,0.358,1.371,0.401,2.077c0.014,0.233-0.068,0.479,0.096,0.694
		c0.023,0.522,0.104,1.049,0.062,1.566c-0.031,0.373,0.129,0.508,0.423,0.599c0.406,0.125,0.762,0.312,1.001,0.691
		c0.168,0.265,0.432,0.37,0.762,0.389c0.707,0.039,1.386-0.115,2.049-0.301c0.935-0.262,1.794,0.441,2.035,1.138
		c0.188,0.544,0.417,1.075,0.534,1.644c0.127,0.624,0.534,0.299,0.858,0.252c0.575,0.05,1.032-0.486,1.629-0.325
		c0.432,0.141,0.863,0.149,1.294-0.003c0.309-0.133,0.486-0.378,0.654-0.663c0.455-0.767,0.874-0.841,1.588-0.329
		c0.141,0.102,0.28,0.267,0.432,0.283c1.349,0.142,2.132,1.165,3.073,1.94c0.231,0.19,0.423,0.406,0.516,0.718
		c0.099,0.329,0.229,0.665,0.422,0.945c0.32,0.466,0.414,0.98,0.466,1.518c0.206,0.193,0.423,0.156,0.644,0.032
		c0.234-0.093,0.439-0.207,0.589-0.433c0.15-0.226,0.376-0.379,0.676-0.357c0.345,0.001,0.691,0.002,1.036,0.003l0,0c0,0,0,0,0,0
		c0.148-0.047,0.295,0.057,0.385,0.104c0.384,0.2,0.532,0.152,0.609-0.304c0.057-0.337,0.263-0.635,0.579-0.852
		c0.306-0.209,0.588-0.465,0.782-0.796c0.292,0.222,0.123,0.523,0.103,0.776c-0.044,0.562-0.271,1.081-0.443,1.614
		c-0.11,0.339-0.068,0.731-0.066,1.101c0.001,0.22,0.226,0.31,0.372,0.394c0.193,0.11,0.365-0.042,0.51-0.19
		c0.709-0.729,0.944-1.689,1.281-2.6c0.135-0.325,0.147-0.648-0.009-0.971c-0.141-0.193-0.064-0.483-0.285-0.641
		c-0.095,0.047-0.197,0.045-0.299,0.044c0.1-0.015,0.199-0.029,0.299-0.044c-0.199,0.013-0.415-0.082-0.591,0.087
		c-0.258,0.01-0.472,0.297-0.759,0.119c0.386-1.437,0.454-2.929,0.756-4.38c0.3-1.443,0.491-2.919,0.918-4.323
		c0.254-0.835,0.126-1.476-0.261-2.166c-0.223-0.396-0.517-0.764-0.551-1.245c-0.002-0.197-0.005-0.394-0.008-0.591
		c0.572-0.66,1.046-1.371,1.193-2.257c0.026-0.157,0.075-0.313,0.127-0.464c0.182-0.521,0.472-0.862,1.104-0.756
		c0.298,0.05,0.613-0.017,0.916,0.015c0.42,0.043,0.641-0.049,0.582-0.537c-0.029-0.247,0.164-0.457,0.295-0.667
		c0.227-0.363,0.433-0.736,0.559-1.147c0.038-0.067,0.076-0.135,0.114-0.202c1.62-0.005,3.239-0.009,4.859-0.014
		c0.046-0.03,0.069-0.068,0.087-0.108c0.014,0.001-0.257,0.006-0.233,0.001c0.012-0.046-0.296-0.091-0.296-0.14
		c0-0.03,0-0.062,0-0.092c0-2.165,0.273-4.329,0.285-6.493c0.002-0.341,0.01-0.43-0.309-0.426c-1.172,0.013-2.273,0.007-3.446,0.003
		c-0.203,0-0.417,0.063-0.458-0.254c0.002-0.003,0.019-0.005,0.02-0.008c-0.024-0.422,0.202-0.759,0.437-1.065
		c0.36-0.471,0.765-0.786,1.472-0.655c0.454,0.084,0.89,0.308,1.368,0.266l0,0l0,0c0.25,0.146,0.503,0.142,0.755,0.003l0,0
		c0.178-0.08,0.354-0.168,0.535-0.237c0.777-0.289,1.18-0.863,1.289-1.667c0.039-0.279,0.031-0.48-0.281-0.657
		c-0.318-0.18-0.723-0.345-0.785-0.805c-0.043-0.397,0.105-0.81-0.088-1.196c-0.044-0.137-0.088-0.275-0.133-0.412
		c-0.205-0.212-0.422-0.176-0.643-0.027c-0.389,0.197-0.8,0.359-1.158,0.6c-0.367,0.247-0.41,0.118-0.369-0.226
		c-0.018-0.268,0.097-0.549-0.078-0.801c-0.035-0.081-0.082-0.159-0.102-0.244c-0.171-0.738-0.453-1.369-1.265-1.63
		c-0.239-0.077-0.464-0.326-0.475-0.604c-0.007-0.174-0.265-0.416,0.052-0.552c0.406-0.175,0.756-0.473,1.204-0.553
		c0.237-0.311,0.163-0.637,0.045-0.965c-0.11-0.801-0.221-1.602-0.871-2.187c-0.688-0.619-0.938-1.405-0.892-2.307
		c-0.036-0.343,0.127-0.706-0.107-1.028c-0.734-0.027-0.975-0.189-1.082-0.732c-0.002-0.202-0.002-0.403-0.002-0.605
		c-0.067-0.359,0.148-0.612,0.412-0.735c0.525-0.245,0.641-0.634,0.564-1.149c-0.018-0.122,0.015-0.251-0.005-0.373
		c-0.067-0.416,0.076-0.678,0.509-0.75c0.268-0.266,0.17-0.558,0.064-0.852c-0.052-0.477-0.068-0.91-0.162-1.378
		c-0.187-0.931-0.204-1.336,0.513-1.336c-0.328,0-0.611,0-0.895,0c-0.05,0-0.062,0.112-0.062,0.211
		c-0.068,0.217-0.108,0.387-0.272,0.502c-0.148,0.034-0.317-0.031-0.471-0.062c-0.546,0.012-1.07-0.11-1.595-0.234
		c-0.025-0.011-0.051-0.022-0.075-0.028c-0.144-0.079-0.305-0.047-0.46-0.045c-0.014-0.005-0.027-0.007-0.041-0.014
		c-0.305,0.001-0.611-0.003-0.916,0.01c-1.033,0.044-1.991,0.338-2.577,1.232c-0.904,1.378-1.742,2.806-2.468,4.288
		c-0.419,0.855-1.021,1.68-1.605,2.432C93.831,79.995,93,80.651,93,81.619v0.044C93,82.094,93.138,82,93.28,83h0.008h-0.112
		C93.217,83,93,84.128,93,84.726c0,0.378,0,0.756,0,1.135c0,0.26,0.103,0.452-0.024,0.665c-0.313,0.524-0.525,1.022-0.766,1.597
		c-0.268,0.638-0.351,1.38-1.064,1.748c-1.396,0.721-2.819,1.007-4.359,0.58c-0.466-0.129-0.919-0.215-1.393-0.299
		c-0.179-0.133-0.349-0.133-0.528,0c-0.592,0.085-1.188,0.182-1.646,0.601c-0.417,0.38-0.777,0.808-1.036,1.327
		c-0.35,0.704-0.904,1.186-1.697,1.352c-0.35-0.001-0.7-0.003-1.05-0.005c-0.755,0.014-1.479-0.24-2.237-0.236
		c-0.247,0.001-0.48-0.16-0.556-0.434c-0.185-0.667-0.679-1.081-1.191-1.48c-1.342-1.046-2.099-2.399-2.175-4.113
		c-0.018-0.225,0.083-0.464-0.083-0.671c-0.104-0.238,0.134-0.625-0.152-0.722c-0.289-0.097-0.436,0.278-0.633,0.464
		c-0.119,0.111-0.067,0.221-0.064,0.344c0.015,0.477-0.095,0.927-0.22,1.392c-0.26,0.967-0.827,1.83-0.899,2.853
		c-0.175,0.216-0.071,0.467-0.071,0.702v0v0c0,0.488,0.036,0.976,0.027,1.463c-0.178,0.253-0.027,0.536-0.027,0.805c0,0,0,0,0,0.001
		c0,0.442-0.043,0.884-0.058,1.325c-0.012,0.339,0.099,0.699-0.146,1.012c-0.575,0.161-1.152-0.064-1.719-0.065
		c-4.156-0.011-8.321-0.01-12.477-0.003c-0.144,0-0.292,0.008-0.435,0.035c-0.308,0.05-0.619,0.167-0.923,0.083
		c-0.028-0.013-0.056-0.029-0.083-0.048c0.018-0.007,0.036-0.012,0.054-0.03c0.25-0.328,0.224-0.716,0.213-1.092
		c-0.062-2.24,0.097-4.463,0.401-6.685c0.258-1.885,0.633-3.762,0.616-5.677c0.031-0.969,0.182-1.922,0.352-2.874
		c0.16-0.167,0.073-0.372,0.086-0.561c0.076-1.23,0.244-2.449,0.456-3.662c0.159-0.167,0.073-0.371,0.086-0.561
		c0.005-0.79,0.116-1.57,0.296-2.335c0.466-1.984,0.982-3.958,1.433-5.945c0.776-3.414,1.73-6.776,2.846-10.093
		c0.097-0.288,0.185-0.446,0.567-0.283c0.45,0.192,0.954,0.268,1.439,0.369c1.346,0.28,2.695,0.549,4.042,0.821
		c0.608,0.123,1.216,0.335,1.827,0.347c1.061,0.02,2.088,0.256,3.134,0.366c1.124,0.117,2.232,0.367,3.353,0.527
		c1.139,0.162,2.287,0.264,3.426,0.428c1.375,0.2,2.743,0.456,4.118,0.653c1.243,0.178,2.492,0.31,3.739,0.462
		c0.728,0.185,1.467,0.051,2.201,0.077c0.132,0.009,0.265,0.018,0.397,0.026c0.173,0.159,0.38,0.073,0.575,0.082
		c0.17,0.011,0.339,0.021,0.509,0.032c0.175,0.151,0.382,0.069,0.577,0.076c0.168,0.01,0.337,0.02,0.505,0.029
		c0.211,0.167,0.454,0.065,0.682,0.08c0.169,0.009,0.339,0.018,0.509,0.027c0.25,0.177,0.529,0.062,0.794,0.081
		c0.205,0.009,0.409,0.019,0.613,0.028c0.286,0.182,0.599,0.06,0.898,0.081c0.242,0.009,0.484,0.002,0.726,0.011
		c0.4,0.186,0.821,0.064,1.232,0.064c0,0-0.001,0-0.001,0c0,0,0.001,0,0.001,0c0.372,0,0.745-0.008,1.114,0.02
		c0.446,0.033,0.909-0.143,1.337,0.11c0.112,0.168,0.338,0.125,0.493,0.125c0.662,0.001,1.04,0.011,2.04,0.007v-0.006v-0.003
		c0,0.008,0.276-0.051,0.44-0.043c0.176,0.161,0.36,0.014,0.558,0.014l-0.015-0.112c0.001,0-0.012-0.112-0.011-0.112
		c0.834,0,1.668,0,2.502,0c0.576,0,1.152,0,1.729,0c0,0-0.001,0-0.002,0c0.001,0,0.002,0,0.002,0c0.379,0,0.756,0.495,1.135,0.183
		c0.107-0.04,0.123-0.032,0.1-0.131l0.028,0.059c0.118-0.115-0.182-0.243-0.182-0.384C109.28,59.147,109,57.589,109,56.01
		c0-0.001,0-0.002,0-0.003c0-0.55,0.315-1.107,0.21-1.66c-0.141-0.732-0.024-0.757-0.8-0.752c-1.492,0.008-2.913,0.011-4.405,0.008
		c-0.273,0-0.56,0.04-0.583-0.54c-0.123,0.497-0.337,0.579-0.655,0.53c-0.193-0.03-0.386-0.027-0.582-0.039
		c-0.25-0.173-0.524-0.061-0.788-0.079c-0.205-0.01-0.408,0.073-0.613,0.063c-0.214-0.163-0.457,0.018-0.688,0.018
		c0,0,0.001,0,0.001,0c0,0,0,0,0,0c-0.276,0-0.551-0.243-0.827-0.252C98.464,53.109,97.647,53,96.836,53c0,0-0.001,0-0.002,0
		c-0.309,0-0.674,0.107-0.98,0.078C95.604,52.902,95,53.077,95,53.077v0.013v0.006c0,0-0.277,0.007-0.445-0.002
		c-0.207-0.167-0.418-0.052-0.645-0.069c-0.136-0.009-0.257-0.011-0.394-0.02c-0.17-0.154-0.368-0.068-0.559-0.078
		c-0.432,0.023-0.853-0.025-1.271-0.131c-0.171-0.158-0.376-0.072-0.569-0.081c-0.134-0.01-0.269-0.019-0.403-0.028
		c-0.17-0.154-0.375-0.071-0.566-0.081c-0.136-0.009-0.349-0.017-0.485-0.026C89.486,52.422,89,52.584,89,52.576V53h0.189
		c-0.202,0-0.42-0.271-0.622-0.281c-0.213-0.164-0.464-0.189-0.693-0.203c-0.205-0.01-0.414-0.083-0.619-0.093
		c-0.21-0.164-0.454-0.096-0.682-0.11c-0.17-0.009-0.342-0.021-0.512-0.03c-0.212-0.168-0.457-0.177-0.686-0.177l0-0.106
		c0,0-0.001,0-0.001,0c-0.168,0-0.48,0.067-0.648,0.058C84.549,51.902,84,52.148,84,52.14V52c0,0,0.255,0,0.255,0
		c-0.462,0-0.903,0.017-1.351-0.102c-0.17-0.159-0.369-0.057-0.561-0.067c-1.147-0.028-2.261-0.274-3.39-0.437
		c-1.358-0.195-2.713-0.404-4.068-0.619c-1.374-0.218-2.746-0.436-4.116-0.674c-1.486-0.258-2.979-0.488-4.411-0.989
		c-0.159-0.213-0.406-0.223-0.633-0.257c-0.375-0.058-0.431-0.215-0.268-0.553c0.461-0.959,0.862-1.946,1.253-2.936
		c1.063-2.692,2.535-5.182,3.854-7.747c0.569-1.106,1.129-2.218,1.75-3.298c1.631-2.834,3.565-5.471,5.354-8.202
		c0.541-0.826,1.162-1.607,1.774-2.387c1.547-1.974,3.205-3.855,4.836-5.758c1.63-1.901,3.233-3.828,5.116-5.499
		c0.841-0.747,1.691-1.4,2.883-1.415c0.451-0.006,0.909,0.048,1.351-0.033c1.787-0.329,3.598-0.142,5.395-0.286
		c1.992-0.16,3.993,0.116,5.99,0.004c0.127-0.007,0.253-0.005,0.373,0.044c0.201,0.009,0.06,0.018,0.261,0.027
		c0.215,0.171,0.353-0.036,0.353-0.022V11h0.453c0.742,0,1.6,0.113,2.342,0.195c0.408,0.05,0.623-0.086,0.619-0.565
		c-0.031-2.808,0.006-5.629,0.021-8.437c0.003-0.373-0.078-0.662-0.455-0.676C106.535,1.424,104.104,2,101.659,1
		c-0.978,0-1.956,0-2.933,0c-0.991,0-1.982,0.299-2.973,0.297C91.316,1.29,86.947,2.044,82.59,2.755
		c-3.553,0.581-7.077,1.424-10.519,2.472c-4.593,1.398-9.141,2.983-13.521,4.969c-6.25,2.834-12.106,6.349-17.691,10.346
		c-2.853,2.042-5.526,4.296-8.165,6.579c-4.333,3.749-8.137,8.024-11.67,12.535c-1.835,2.342-3.613,4.729-5.242,7.217
		c-3.193,4.88-5.747,10.104-8.127,15.412c-1.919,4.281-3.298,8.747-4.327,13.324c-0.584,2.599-1.365,5.161-1.819,7.78
		c-0.842,4.851-1.376,9.745-1.43,14.68C0.049,98.062,0,98.063,0,98.075c0,1.335,0,2.671,0,4.006l0.033,0.012l0.041-0.006
		c0.042,2.292,0.151,4.581,0.371,6.861c0.554,5.768,1.554,11.453,3.124,17.037c0.574,2.043,1.14,4.089,1.801,6.105
		c1.707,5.208,4.17,10.067,6.893,14.805c1.479,2.574,2.742,5.267,4.399,7.746c3.753,5.615,8.083,10.729,12.897,15.467
		c2.371,2.333,4.801,4.589,7.411,6.632c2.837,2.222,5.755,4.355,8.75,6.356c4.317,2.886,8.902,5.328,13.678,7.361
		c3.321,1.413,6.677,2.753,10.161,3.769c2.988,0.872,5.922,1.899,9.021,2.361c1.813,0.271,3.569,0.873,5.396,1.103
		c4.222,0.53,8.435,1.149,12.701,1.217c0.1,0.104,0.229,0.093,0.354,0.093c1.711,0,3.422,0,5.134,0c0.125,0,0.255,0.011,0.354-0.093
		c0.381-0.01,0.763-0.022,1.144-0.03c0.412-0.023,0.836,0.104,1.238-0.081c0.381-0.01,0.763-0.021,1.144-0.029
		c0.521-0.026,1.052,0.111,1.563-0.083c0.205-0.009,0.41-0.018,0.613-0.026c0.085-0.033,0.17-0.044,0.256-0.049
		c-0.084,0.016-0.17,0.034-0.256,0.049c0.234,0.004,0.473-0.018,0.702,0.016c0.534,0.075,0.652-0.155,0.647-0.662
		c-0.023-2.754-0.01-5.508-0.016-8.262C109.555,189.545,109.645,189.313,109.439,189.143z M109.549,56.028
		c-0.023,0.26-0.034,0.521-0.049,0.781C109.506,56.548,109.52,56.288,109.549,56.028z M55.139,93.84
		c0.003,0.044,0.001,0.086,0.003,0.129c0.002,0.006,0.004,0.013,0.004,0.019c0.001,0.077,0.001,0.154,0.001,0.231
		c0-0.083-0.002-0.166-0.005-0.25C55.133,93.946,55.118,93.915,55.139,93.84z M55.255,96.125c-0.008,0-0.016,0.001-0.023,0.001
		c-0.01-0.004-0.02-0.002-0.03-0.009c-0.001-0.004-0.002-0.008-0.003-0.012c0,0.003,0,0.007,0,0.011c0,0-0.001,0-0.001,0
		c-0.001-0.007-0.001-0.015-0.002-0.022c-0.009-0.006-0.019-0.009-0.028-0.015c-0.003-0.039-0.002-0.077-0.003-0.116
		c0.011,0.043,0.019,0.085,0.032,0.128c0,0.001,0,0.001,0,0.003c0,0,0,0,0,0c0.001,0.004,0.002,0.008,0.003,0.012
		c0-0.003,0-0.007,0-0.01C55.218,96.106,55.237,96.116,55.255,96.125z M109.343,96.509c0.011-0.009,0.021-0.017,0.03-0.027
		c-0.016,0.012-0.02,0.026-0.03,0.039C109.343,96.517,109.343,96.513,109.343,96.509z M109.175,101.912
		c-0.004-1.305-0.175-2.61-0.175-3.915c0-0.359,0-0.719,0-1.078c0-0.063,0-0.126,0-0.19c0-0.003,0-0.006,0-0.01
		c0-0.034,0-0.068,0-0.102c0-0.005,0.171-0.01,0.173-0.015c0,0.042,0.085,0.084,0.085,0.126c0.018,0.081,0.098,0.163,0.097,0.239
		c-0.002,0.749,0.046,1.498,0.073,2.247c-0.004,1.179,0.003,2.358,0.001,3.537c-0.012-0.018-0.103-0.035-0.104-0.055
		C109.323,102.436,109.202,102.174,109.175,101.912z M109.33,102.996c0.03-0.026,0.068-0.056,0.109-0.088
		c0,0.12-0.001,0.24-0.001,0.36C109.354,103.187,109.332,103.093,109.33,102.996z M35.354,37.444c0.128-0.151,0.26-0.3,0.405-0.435
		c2.426-2.238,4.858-4.477,7.444-6.524c1.833-1.452,3.854-2.664,5.746-4.047c3.297-2.41,6.79-4.5,10.442-6.303
		c4.896-2.417,9.962-4.43,15.239-5.876c0.239-0.065,0.476-0.138,0.713-0.207c0.024,0.036,0.049,0.072,0.074,0.107
		c-0.72,0.944-1.418,1.906-2.165,2.828c-1.149,1.417-2.197,2.908-3.201,4.423c-3.287,4.958-6.259,10.098-8.814,15.477
		c-1.468,3.09-2.674,6.291-4.047,9.42c-0.163,0.37-0.313,0.464-0.708,0.362c-2.234-0.577-4.393-1.386-6.567-2.14
		c-4.992-1.731-9.795-3.895-14.431-6.434C35.105,37.887,35.125,37.711,35.354,37.444z M18.926,60.207
		c1.693-3.284,3.598-6.443,5.623-9.531c1.346-2.053,2.937-3.925,4.352-5.928c0.135-0.191,0.274-0.38,0.404-0.575
		c0.351-0.529,0.536-0.61,1.085-0.243c0.977,0.652,2.032,1.158,3.051,1.73c2.499,1.401,5.074,2.65,7.712,3.757
		c2.188,0.918,4.429,1.71,6.646,2.559c1.966,0.752,3.987,1.333,6,1.938c0.489,0.147,0.589,0.334,0.409,0.868
		c-1.403,4.166-2.514,8.413-3.444,12.708c-0.781,3.611-1.507,7.235-1.983,10.895c-0.52,3.984-1.047,7.975-1.164,12.001
		c-0.006,0.216,0.013,0.433,0.02,0.649c-0.018,0.151,0.008,0.316-0.13,0.43c-0.259,0.413-0.004,0.873-0.137,1.346
		c-0.349-0.445-0.36-0.979-0.518-1.455c-0.252-0.764-0.767-1.07-1.528-0.932c-0.28,0.051-0.389,0.179-0.282,0.434
		c0.601,1.435,1.126,2.917,2.375,3.965c-0.102,0.393,0.131,0.819-0.12,1.198c-0.755-0.486-1.234-1.196-1.621-1.983
		c-0.222-0.452-0.416-0.923-0.735-1.318c-0.697-0.862-1.286-1.768-1.512-2.886c-0.117-0.579-0.539-1.016-0.94-1.43
		c-0.774-0.797-1.362-1.669-1.411-2.832c-0.017-0.403-0.216-0.764-0.514-1.047c-0.477-0.455-0.676-1.005-0.626-1.658
		c0.021-0.273-0.032-0.541-0.122-0.797c-0.161-0.461-0.609-0.557-0.97-0.22c-0.332,0.31-0.431,0.695-0.392,1.131
		c0.032,0.358,0.066,0.716,0.105,1.138c-0.385-0.178-0.542-0.479-0.662-0.779c-0.213-0.533-0.378-1.086-0.574-1.628
		c-0.122-0.339-0.26-0.675-0.535-0.928c-0.408-0.376-0.624-0.333-0.851,0.19c-0.31-0.166-0.362-0.477-0.428-0.762
		c-0.072-0.315-0.107-0.639-0.145-0.961c-0.19-1.605-0.915-2.897-2.217-3.871c-0.819-0.612-1.377-1.473-2.028-2.242
		c-0.36-0.425-0.759-0.715-1.328-0.713c-0.411,0.001-0.628-0.257-0.762-0.586c-0.614-1.51-1.121-3.04-0.967-4.715
		c0.076-0.827,0.056-1.661-0.166-2.472c-0.308-1.127-0.776-1.422-1.936-1.259c-0.581,0.082-1.143,0.101-1.651-0.292
		c-0.39-0.3-0.825-0.16-1.243-0.033c-1.619,0.488-1.711,0.456-2.759-0.897c-0.396-0.511-0.739-1.067-1.286-1.451
		C18.867,60.606,18.804,60.443,18.926,60.207z M9.525,95.729c0.269-2.601,0.492-5.255,0.804-7.85
		c0.332-2.76,1.214-5.405,1.823-8.108c0.57-2.528,1.184-5.048,1.832-7.558c0.437-1.692,1.153-3.292,1.802-4.911
		c0.328-0.818,0.724-1.612,0.938-2.47c0.046-0.186,0.204-0.219,0.258-0.369c0.085-0.236,0.255-0.14,0.274,0.016
		c0.092,0.773,0.706,1.237,1.046,1.859c0.931,1.698,2.139,3.257,2.639,5.176c0.172,0.661,0.603,1.089,1.253,1.304
		c0.29,0.096,0.572,0.215,0.857,0.325c0.576,0.222,0.898,0.643,0.963,1.256c0.059,0.552,0.235,1.065,0.598,1.481
		c0.344,0.394,0.446,0.848,0.483,1.34c0.033,0.432,0.09,0.862,0.218,1.277c0.142,0.46,0.417,0.825,0.897,0.923
		c0.287,0.059,0.331,0.197,0.351,0.437c0.028,0.34,0.092,0.684,0.14,1.023c0.235,1.659,0.965,3.059,2.316,4.069
		c1.571,1.175,2.199,2.788,2.263,4.702c0.051,1.514,0.378,2.843,0.573,4.344C31.958,94.796,32.392,96,33.014,96
		c-0.053,0-0.096,0-0.143,0c0,0,0,0-0.001,0c-0.967,0-1.935,0-2.902,0l0,0c-4.471,0-8.942,0-13.413,0
		c-2.18,0-4.359,0.162-6.538,0.169C9.535,96.17,9.485,96.112,9.525,95.729z M29.809,156.08c-0.203,0.115-0.377,0.234-0.581-0.069
		c-2.526-3.751-5.251-7.371-7.633-11.217c-3.054-4.932-5.447-10.201-7.265-15.693c-1.645-4.97-3.067-10.025-3.809-15.228
		c-0.361-2.532-0.542-5.091-0.791-7.639c-0.071-0.735-0.241-1.46-0.225-2.204c0.004-0.205,0.007-0.411,0.011-0.616
		c0.179-0.012,0.358-0.032,0.538-0.032c8.657-0.002,17.314-0.002,25.971,0c0.18,0,0.359,0.018,0.539,0.026
		c-0.012,0.311,0.06,0.604,0.151,0.9c0.668,2.177,1.357,4.35,1.972,6.543c0.247,0.879,0.361,1.802,0.386,2.725
		c0.006,0.248,0.048,0.444,0.31,0.569c0.846,0.405,1.319,1.126,1.672,1.968c0.538,1.277,0.83,2.645,1.456,3.889
		c0.26,0.518,0.522,1.03,0.942,1.439c0.103,0.1,0.218,0.237,0.342,0.256c0.769,0.111,0.819,0.657,0.856,1.271
		c0.027,0.445,0.194,0.881,0.246,1.326c0.165,1.417,0.987,2.442,1.955,3.392c0.365,0.358,0.806,0.52,1.304,0.589
		c1.254,0.174,2.056,1.085,2.204,2.349c0.236,2.027,0.799,3.989,1.309,5.957c0.654,2.526,1.341,5.044,2.028,7.561
		c0.141,0.517,0.345,1.016,0.524,1.534c-2.804,0.75-5.547,1.686-8.253,2.709c-4.75,1.794-9.406,3.808-13.812,6.358
		C31.376,155.193,30.593,155.638,29.809,156.08z M34.784,162.129c3.833-2.468,7.941-4.043,11.977-5.76
		c2.496-1.063,5.055-1.979,7.675-2.709c0.693-0.193,1.376-0.421,2.063-0.633c0.184-0.057,0.355-0.102,0.412,0.168
		c0.329,1.587,1.167,2.974,1.763,4.455c1.896,4.718,4.17,9.251,6.71,13.65c1.786,3.093,3.927,5.954,5.877,8.94
		c0.68,1.041,1.4,2.055,2.073,3.1c0.578,0.896,1.292,1.686,1.918,2.544c0.061,0.083,0.091,0.189,0.164,0.348
		C59.687,181.781,46.213,173.686,34.784,162.129z"/>
	<path fill-rule="evenodd" clip-rule="evenodd" fill="#070707" d="M88.885,73.078c-0.024,0.031,0.032,0.123,0.051,0.187
		c0.063-0.023,0.137-0.032,0.185-0.073c0.367-0.307,0.642-0.662,0.587-1.244C89.178,72.2,89.155,72.727,88.885,73.078z"/>
	<path fill-rule="evenodd" clip-rule="evenodd" fill="#070707" d="M96.576,63.365c-0.203,0.223-0.372,0.455-0.354,0.771
		c0.001,0.018,0.176,0.065,0.242,0.035c0.343-0.156,0.345-0.502,0.412-0.806c0.017-0.077,0.033-0.176-0.092-0.253
		C96.65,63.168,96.642,63.293,96.576,63.365z"/>
	<path fill-rule="evenodd" clip-rule="evenodd" fill="#070707" d="M86.666,77.813c0.406-0.1,0.648-0.314,0.57-0.779
		C86.861,77.161,86.813,77.53,86.666,77.813z"/>
	<path fill-rule="evenodd" clip-rule="evenodd" fill="#070707" d="M108.832,62.603c0.107,0.426,0.074,0.82,0.602,0.931
		C109.336,63.163,109.235,62.861,108.832,62.603z"/>
	<path fill-rule="evenodd" clip-rule="evenodd" fill="#070707" d="M89.886,71.363c0.005,0.106,0.054,0.112,0.132,0.079
		c0.266-0.11,0.258-0.393,0.369-0.599c0.017-0.032-0.028-0.097-0.054-0.177C90.029,70.815,89.871,71.028,89.886,71.363z"/>
	<path fill-rule="evenodd" clip-rule="evenodd" fill="#070707" d="M90.869,69.085c-0.196,0.14-0.264,0.33-0.234,0.557
		c0.003,0.026,0.091,0.064,0.134,0.059c0.269-0.038,0.161-0.315,0.275-0.458c0.05-0.063,0.154-0.174,0.033-0.28
		C90.959,68.926,90.936,69.038,90.869,69.085z"/>
	<path fill-rule="evenodd" clip-rule="evenodd" fill="#070707" d="M88.744,74.129c0.001-0.125-0.033-0.207-0.17-0.207
		c-0.273-0.001-0.208,0.285-0.333,0.416c-0.058,0.06,0.056,0.141,0.183,0.124C88.564,74.404,88.742,74.362,88.744,74.129z"/>
	<path fill-rule="evenodd" clip-rule="evenodd" fill="#070707" d="M108.93,71.452c-0.169,0.039-0.08,0.218-0.148,0.314
		c-0.141,0.29-0.117,0.359,0.121,0.358c-0.031-0.007-0.055-0.017-0.074-0.029c0.021,0.011,0.045,0.021,0.074,0.029
		c0.068-0.059,0.139-0.115,0.202-0.177c0.09-0.089,0.188-0.176,0.059-0.313C109.093,71.56,109.066,71.421,108.93,71.452z"/>
	<path fill-rule="evenodd" clip-rule="evenodd" fill="#070707" d="M107.904,70.761c0.15,0.005,0.131-0.134,0.123-0.233
		c-0.014-0.152-0.088-0.261-0.246-0.28c-0.219,0.015-0.113,0.18-0.134,0.279C107.606,70.731,107.774,70.757,107.904,70.761z"/>
	<path fill-rule="evenodd" clip-rule="evenodd" fill="#070707" d="M79.798,84.967c-0.022,0.128,0.098,0.215,0.258,0.202
		c0.197,0.016,0.215-0.174,0.234-0.284c0.026-0.15-0.172-0.203-0.258-0.21C79.874,84.663,79.817,84.853,79.798,84.967z"/>
	<path fill-rule="evenodd" clip-rule="evenodd" fill="#070707" d="M87.429,76.488c0.149-0.187,0.429-0.301,0.396-0.621
		C87.39,75.889,87.549,76.284,87.429,76.488z"/>
	<path fill-rule="evenodd" clip-rule="evenodd" fill="#070707" d="M74.382,86.942c0.069,0.129,0.101,0.31,0.27,0.364
		c0.125,0.04,0.136-0.063,0.152-0.15c0.011-0.188-0.085-0.298-0.261-0.337C74.45,86.799,74.329,86.845,74.382,86.942z"/>
	<path fill-rule="evenodd" clip-rule="evenodd" fill="#070707" d="M97.861,156.752c0.325-0.005,0.664,0.101,0.976-0.079
		c0.336-0.045,0.675-0.076,1.007-0.138c0.89-0.165,1.238-0.519,1.249-1.38c0.009-0.729,0.224-1.354,0.668-1.923
		c0.339-0.434,0.338-0.906,0.089-1.393c-0.232-0.457-0.642-0.703-1.064-0.94c-0.217-0.138-0.433-0.147-0.646,0.01
		c-0.513,0.187-0.578,0.646-0.667,1.092c-0.153,0.147-0.071,0.338-0.093,0.509c-0.638,0.105-0.823,0.406-0.583,1.107
		c0.14,0.407,0.033,0.661-0.264,0.931s-0.686,0.441-0.894,0.809c-0.16,0.287-0.152,0.574-0.006,0.863
		c0.009,0.061,0.018,0.121,0.026,0.183C97.653,156.563,97.633,156.755,97.861,156.752z"/>
	<path fill-rule="evenodd" clip-rule="evenodd" fill="#070707" d="M93.23,67.922c-0.042,0.035,0.016,0.125,0.104,0.136
		c0.158,0.02,0.23-0.065,0.252-0.161c0.026-0.152-0.022-0.214-0.129-0.225C93.278,67.654,93.32,67.848,93.23,67.922z"/>
	<path fill-rule="evenodd" clip-rule="evenodd" fill="#070707" d="M68.54,116.811c-0.176-0.706-0.594-1.249-1.139-1.71
		c-0.229-0.194-0.479-0.308-0.782-0.213c-0.872,0.271-0.894,0.303-0.912,1.221c-0.001,0.09-0.013,0.179-0.02,0.269
		c-0.186,0.36-0.054,0.743-0.08,1.115c-0.045,0.459-0.09,0.917-0.136,1.375c-0.143,0.396-0.153,0.792,0.006,1.188
		c0.073,0.335,0.297,0.41,0.62,0.445c0.599,0.066,0.735-0.371,0.931-0.81c0.129,0.143,0.263,0.239,0.323,0.369
		c0.18,0.388,0.497,0.128,0.742,0.165c0.291,0.045,0.168-0.367,0.229-0.51c0.158-0.18,0.093-0.715,0.103-0.715H68v0.122
		c0-0.389,0.22-0.708,0.338-1.079C68.484,117.611,68.683,117.242,68.54,116.811z"/>
	<path fill-rule="evenodd" clip-rule="evenodd" fill="#070707" d="M116,140.453c0,0.217,0,0.434,0,0.658
		c0-0.145,0.794-0.391,0.905-0.894c0.18-0.814,0.226-1.645,0.413-2.458c0.18-0.781-0.118-1.521-0.161-2.281
		c0.021-0.257,0.041-0.524-0.361-0.469c-0.731-0.029-0.739-0.029-0.845,0.698c-0.003,0.018,0.062,0.034,0.056,0.051
		c-0.18,0.291-0.007,0.608-0.007,0.912c0,0.001,0,0.001,0,0.002c0,0.146-0.013,0.29-0.077,0.436
		c0.001,0.355-0.036,0.712-0.036,1.067c-0.01,0.349,0.092,0.699,0.082,1.048C115.785,139.624,116,140.043,116,140.453z
		 M115.85,136.671c0.016-0.176,0.029-0.351,0.045-0.525C115.9,136.322,115.912,136.5,115.85,136.671z"/>
	<path fill-rule="evenodd" clip-rule="evenodd" fill="#070707" d="M108.282,62.049c-0.011,0.037,0.034,0.129,0.057,0.13
		c0.196,0.011,0.28-0.112,0.326-0.331C108.455,61.841,108.33,61.889,108.282,62.049z"/>
	<path fill-rule="evenodd" clip-rule="evenodd" fill="#070707" d="M88.015,75.242c0.007,0.063-0.022,0.159,0.076,0.167
		c0.113,0.01,0.138-0.091,0.166-0.175c0.02-0.06,0.08-0.143-0.051-0.126C88.117,75.129,88,75.1,88.015,75.242z"/>
	<path fill-rule="evenodd" clip-rule="evenodd" fill="#070707" d="M135.893,81.403c-0.08-0.302-0.168-0.601-0.232-0.906
		c-0.03-0.138-0.002-0.29-0.215-0.29c-0.167,0-0.415,0.039-0.396,0.173c0.038,0.288-0.301,0.346-0.277,0.589
		c-0.12,0.47-0.203,0.939,0.039,1.399c0.356-0.078,0.783,0.193,1.075-0.213C136.033,81.906,136.023,81.655,135.893,81.403z"/>
	<path fill-rule="evenodd" clip-rule="evenodd" fill="#070707" d="M105.561,77.961c-0.229,0.719-0.09,1.455-0.072,2.18
		c0.004,0.173,0.217,0.406,0.498,0.368c0.211-0.029,0.471,0.03,0.455-0.35c-0.007-0.181,0.113-0.384,0.371-0.384
		c0.111,0,0.193-0.017,0.244-0.151c0.345-0.911,0.074-1.459-0.856-1.708C105.977,77.794,105.76,77.741,105.561,77.961z"/>
	<path fill-rule="evenodd" clip-rule="evenodd" fill="#070707" d="M132.438,153.072c0.171,0.009,0.341,0.017,0.511,0.025
		c0.287,0.147,0.574,0.143,0.861,0.004c0.099-0.042,0.193-0.099,0.296-0.123c0.583-0.142,0.729-0.619,0.745-1.101
		c0.014-0.482-0.16-0.91-0.763-0.979c-0.242-0.028-0.474-0.144-0.71-0.219c-0.324-0.137-0.648-0.146-0.971,0.006
		c-0.469,0.126-0.881,0.31-1.002,0.854c-0.072,0.328-0.055,0.657-0.071,0.986c-0.017,0.33,0.147,0.434,0.424,0.465
		C131.969,153.158,132.211,153.057,132.438,153.072z"/>
	<path fill-rule="evenodd" clip-rule="evenodd" fill="#070707" d="M134.342,25.932c0,0.89,0,0.887,0.861,0.921
		c0.121,0.005,0.242,0.047,0.363,0.073c0.38,0.052,0.646,0.233,0.857,0.576c0.359,0.583,0.381,1.225,0.432,1.868
		c0.017,0.085,0.027,0.172,0.036,0.258c-0.012-0.086-0.019-0.172-0.036-0.258c0.034,0.631-0.088,1.188,0.111,1.813
		c0.01,0.633,0.158,1.817,0.158,1.817H137c0,4,0,7.722,0,11.502c0,2.505-0.015,5.01-0.016,7.515
		c-0.003,7.48-0.018,14.959-0.021,22.439c-0.299-0.353-0.435-0.839-0.872-1.08c-0.178-0.146-0.358-0.143-0.54-0.005
		c-0.259,0.039-0.419,0.216-0.467,0.444c-0.057,0.269-0.049,0.552-0.068,0.83c0.008,0.195-0.074,0.403,0.076,0.58
		c0.123,0.748,0.374,1.473,0.376,2.241c0,0.104-0.007,0.25,0.139,0.237c0.278-0.025,0.493,0.123,0.734,0.204
		c0.147,0.049,0.282-0.002,0.306-0.19c0.156-0.178,0.071-0.388,0.078-0.585c0.025-0.317-0.061-0.663,0.229-0.915
		c-0.003,0.144-0.01,0.288-0.01,0.432c0.006,8.634,0.014,17.268,0.02,25.901c0,0.883-0.022,1.766-0.022,2.649
		c0.035,0.944,0.06,1.896,0.06,2.837c0-0.053,0-0.104,0-0.157c0,0.053,0.025,0.104,0.03,0.157c0.01,0.339,0.007,0.681,0.044,1.018
		c0.031,0.296-0.073,0.45-0.342,0.563c-0.546,0.225-1.253,0.655-1.306,1.239c0,0.002-0.427,0.005-0.427,0.008
		c0-0.003,0-0.006,0-0.008c0,0.323,0,0.646,0,0.971c0-0.001,0-0.003,0-0.004c0,0.001,0,0.003,0,0.004
		c0,0.023,0.683,0.175,0.675,0.175h0.112h0.046c0.161,0,0.366,0,0.554,0h0.012c0.168,0,0.287-0.074,0.251,0.156
		c-0.126,0.801-0.554,1.177-1.366,1.205c-0.302,0.01-0.604-0.005-0.905-0.006c-0.216,0.14-0.128,0.355-0.128,0.54
		c-0.005,5.406-0.004,10.811,0,16.217c0,0.188-0.077,0.4,0.113,0.554c0.105,0.007,0.213,0.013,0.319,0.02
		c0.115,0.118,0.265,0.09,0.405,0.089c1.254-0.001,2.508-0.005,3.761-0.008c-0.257-0.022-0.513-0.034-0.769-0.047
		c0.256,0.006,0.513,0.021,0.77,0.047c1.299-0.051,2.598-0.044,3.896,0.001c0.113-0.023,0.227-0.035,0.34-0.043
		c-0.113,0.012-0.227,0.022-0.34,0.043c0.631-0.035,1.27,0.116,1.894-0.081c0.312-0.01,0.624-0.02,0.936-0.03
		c0.231-0.014,0.476,0.089,0.688-0.08c0.363-0.063,0.75-0.065,1.085-0.198c1.243-0.489,2.192-1.337,3.019-2.393
		c1.463-1.869,2.217-4.066,3.033-6.235c0.201-0.538,0.477-0.505,0.885-0.349c0.529,0.203,1.042,0.464,1.621,0.515
		c0.255,0.133,0.508,0.161,0.754-0.021c-0.037-0.232,0.089-0.434,0.126-0.65c0.146-0.36,0.151-0.72-0.003-1.079
		c-0.411-1.091-1.078-1.992-2-2.705c-0.08-0.063-0.162-0.092-0.135-0.244c0.078-0.419,0.068-0.859,0.182-1.267
		c0.531-1.923,0.771-3.897,1.091-5.858c0.172-0.247,0.079-0.521,0.079-0.783c0,0.001,0,0.002,0,0.002c0-0.001,0-0.001,0-0.002
		c0-1.452,0.396-2.867,0.571-4.304c0.105-0.657-0.04-1.317,0.171-1.994c0.203-0.656,0.157-1.39,0.223-2.09
		c0.071-0.762,0.073-0.762,0.834-0.537c0.241,0.071,0.527,0.21,0.72,0.028c0.361-0.341,0.443-0.823,0.398-1.3
		c-0.037-0.392-0.423-0.313-0.673-0.403c-0.168-0.06-0.348-0.095-0.525-0.119c-0.296-0.039-0.408-0.185-0.442-0.491
		c-0.118-1.081-0.151-2.164-0.021-3.239c0.23-1.899,0.326-3.813,0.354-5.715c0.11-7.483,0.379-14.965,0.249-22.452
		c-0.033-1.857,0.105-3.717,0.053-5.573c-0.221-7.679-0.361-15.363-1.037-23.021c-0.283-3.196-0.725-6.377-1.164-9.551
		c-0.464-3.346-1.15-6.667-2.215-9.892c-0.678-2.055-1.4-4.083-2.654-5.88c-1.059-1.516-2.264-2.811-4.209-3.125
		c-0.877-0.142-1.759-0.176-2.643-0.138c-3.012,0.131-6.024,0.071-9.037,0.068c-0.471,0-0.626,0.091-0.624,0.604
		C134.352,15.433,134.342,20.683,134.342,25.932z M145.313,27.149c0.672-0.124,1.043,0.229,1.363,0.727
		c0.787,1.22,1.157,2.593,1.426,3.993c0.738,3.852,1.067,7.751,1.158,11.666c0.071,3.084,0.338,6.163,0.354,9.244
		c0.05,9.234,0.474,18.468,0.085,27.702c-0.086,2.003-0.03,4.002-0.083,6.002c-0.075,2.866-0.243,5.729-0.368,8.594
		c-0.091,2.09-0.083,4.183-0.239,6.271c-0.153,2.053-0.489,4.077-0.828,6.104c-0.163,0.977-0.228,1.968-0.604,2.897
		c-0.108,0.267-0.218,0.533-0.326,0.799c-0.467,1.135-1.117,1.982-2.54,1.656c-0.154-0.035-0.323-0.007-0.485-0.009
		c-0.004-0.899-0.007-1.799-0.01-2.697c0.225-0.063,0.45-0.119,0.671-0.192c0.452-0.149,0.898-0.321,0.962-0.885
		c0.068-0.604-0.236-1.03-0.707-1.356c-0.27-0.187-0.572-0.294-0.908-0.287c-0.027-1.108-0.062-2.218,0.018-3.326
		c0.159-0.019,0.328-0.009,0.475-0.061c0.395-0.137,0.477-0.498,0.568-0.849c0.064-0.243-0.104-0.343-0.268-0.393
		c-0.63-0.192-0.788-0.632-0.713-1.231c0.027-0.229-0.004-0.464-0.008-0.696c-0.018-0.041-0.027-0.082-0.034-0.124
		c0.011,0.041,0.017,0.083,0.034,0.124c0.04-0.155-0.035-0.335,0.104-0.468c0.263,0.855,0.695,1.618,1.274,2.296
		c0.143,0.168,0.326,0.305,0.564,0.218c0.223-0.081,0.238-0.296,0.256-0.495c0.041-0.488,0.015-0.976-0.086-1.453
		c-0.373-1.771-0.104-3.598-0.482-5.368c-0.008-0.042,0.026-0.092,0.038-0.129c0.614,0.052,1.069,0.296,1.308,0.894
		c0.158,0.397,0.545,0.499,0.928,0.559c0.861,0.135,0.877,0.125,0.852-0.742c-0.018-0.608,0.068-1.291-0.486-1.703
		c-0.984-0.729-1.303-1.816-1.703-2.873c-0.094-0.245-0.055-0.386,0.16-0.541c1.116-0.806,1.196-1.933,0.936-3.15
		c-0.088-0.409-0.465-0.463-0.766-0.45c-0.309,0.014-0.723-0.088-0.826,0.455c-0.121,0.633-0.404,1.236-0.51,1.87
		c-0.119,0.716-0.719,1.255-0.676,2.015c0.01,0.153-0.102,0.16-0.217,0.161c-0.22,0.003-0.213-0.142-0.201-0.293
		c0.045-0.542,0.166-1.067,0.355-1.575c0.287-0.77,0.406-1.561,0.369-2.384c-0.053-1.206-0.078-2.414-0.125-3.621
		c-0.008-0.191,0.082-0.465-0.086-0.557c-0.203-0.109-0.362,0.162-0.552,0.244c-0.179,0.078-0.308,0.252-0.519,0.267
		c-0.001-18.819-0.002-37.637-0.002-56.456c0-0.125,0.014-0.251,0.02-0.377C144.594,27.162,144.964,27.213,145.313,27.149z
		 M137.021,33.535c-0.015-0.124-0.03-0.248-0.058-0.372C137.012,33.285,137.021,33.41,137.021,33.535z"/>
	<path fill-rule="evenodd" clip-rule="evenodd" fill="#070707" d="M33.121,108.357c0.022-1.272,0.024-1.273-0.553-2.311
		c-0.282-0.509-0.539-1.047-0.526-1.625c0.014-0.601-0.266-0.651-0.748-0.636c-1.147,0.037-1.215,0.117-0.878,1.241
		c0.102,0.341,0.294,0.686,0.15,1.046c-0.239,0.598-0.149,1.152,0.094,1.722c0.204,0.479,0.386,0.97,0.534,1.468
		c0.283,0.958,0.946,1.386,1.899,1.477c0.298,0.029,0.34-0.063,0.279-0.322C33.204,109.698,33.025,108.979,33.121,108.357z"/>
	<path fill-rule="evenodd" clip-rule="evenodd" fill="#070707" d="M37.212,115.521c-0.054-0.356-0.193-0.467-0.554-0.455
		c-0.296,0.01-0.454,0.09-0.563,0.368c-0.213,0.54-0.382,1.086-0.392,1.685c0.023,0.286-0.083,0.627,0.212,0.843
		c0.305,0.223,0.419,0.532,0.47,0.878c0.073,0.498,0.137,0.999,0.195,1.5c0.038,0.33,0.203,0.525,0.534,0.583
		c0.66,0.115,0.94-0.167,0.83-0.865C37.703,118.544,37.442,117.035,37.212,115.521z"/>
	<path fill-rule="evenodd" clip-rule="evenodd" fill="#070707" d="M36.159,114.431c0.135-0.494-0.24-1.093-0.74-1.184
		c-0.387-0.071-0.664-0.029-0.589,0.483c0.038,0.263-0.057,0.535,0.026,0.801c0.002,0.14,0.084,0.197,0.214,0.203
		c0.196,0.019,0.393,0.028,0.587,0.057C35.944,114.832,36.089,114.688,36.159,114.431z"/>
	<path fill-rule="evenodd" clip-rule="evenodd" fill="#070707" d="M34.982,112.016c-0.041-0.175-0.072-0.352-0.124-0.522
		c-0.073-0.242-0.214-0.433-0.494-0.416c-0.265,0.017-0.51,0.145-0.616,0.383c-0.125,0.279,0.023,0.566,0.129,0.828
		c0.096,0.236,0.172,0.597,0.532,0.476C34.724,112.659,35.049,112.468,34.982,112.016z"/>
	<path fill-rule="evenodd" clip-rule="evenodd" fill="#070707" d="M42.465,86.744c1.091-0.165,1.07-0.138,1.097-1.213
		c0.013-0.52-0.265-0.668-0.678-0.668c-0.397,0-0.783,0.003-1.185-0.278c-0.093,0.635-0.032,1.167,0.085,1.697
		C41.866,86.649,42.032,86.809,42.465,86.744z"/>
	<path fill-rule="evenodd" clip-rule="evenodd" fill="#070707" d="M25.982,93.42c0.083,0.234,0.213,0.457,0.348,0.667
		c0.223,0.348,0.513,0.654,0.969,0.512c0.47-0.146,0.404-0.585,0.394-0.957c-0.015-0.574-0.226-1.147-0.107-1.716
		c0.148-0.712,0.117-1.334-0.43-1.89c-0.175-0.178-0.218-0.485-0.324-0.732c-0.176-0.412-0.326-0.838-0.54-1.23
		c-0.205-0.376-0.452-0.793-0.979-0.69c-0.574,0.112-1.196,0.874-1.188,1.555c0.006,0.273,0.059,0.732,0.309,1.114
		C25.12,91.101,25.568,92.25,25.982,93.42z"/>
	<path fill-rule="evenodd" clip-rule="evenodd" fill="#070707" d="M22.011,83.796c0.158,0.27,0.558,0.299,0.846,0.224
		c0.228-0.059,0.051-0.349,0.092-0.48c0.008-0.396-0.024-0.734-0.221-1.035c-0.644-0.981-1.143-2.039-1.625-3.105
		c-0.135-0.298-0.303-0.577-0.566-0.78c-0.347-0.268-1.106-0.213-1.283,0.082c-0.404,0.676-0.261,2.21,0.318,2.756
		C20.39,82.231,21.417,82.776,22.011,83.796z"/>
	<path fill-rule="evenodd" clip-rule="evenodd" fill="#070707" d="M146.666,85.694c0.318-0.218,0.531-0.526,0.721-0.86
		c0.345-0.604,0.227-1.261,0.248-1.902c0.023-0.687-0.038-1.365-0.121-2.047c-0.059-0.492-0.277-0.417-0.557-0.233
		c-0.332,0.218-0.387,0.594-0.464,0.942c-0.213,0.966-0.417,1.934-0.608,2.905c-0.052,0.262-0.088,0.539-0.063,0.802
		C145.881,85.913,146.164,86.038,146.666,85.694z"/>
</g>
</svg>
