<?xml version="1.0" encoding="utf-8"?>
<!-- Generator: Adobe Illustrator 16.0.2, SVG Export Plug-In . SVG Version: 6.00 Build 0)  -->
<!DOCTYPE svg PUBLIC "-//W3C//DTD SVG 1.1//EN" "http://www.w3.org/Graphics/SVG/1.1/DTD/svg11.dtd">
<svg version="1.1" id="Layer_1" xmlns="http://www.w3.org/2000/svg" xmlns:xlink="http://www.w3.org/1999/xlink" x="0px" y="0px"
	 width="200px" height="200px" viewBox="0 0 200 200" enable-background="new 0 0 200 200" xml:space="preserve">
<g>
	<path fill-rule="evenodd" clip-rule="evenodd" fill="#2D2D2D" d="M161.829,29.394c0.018-5.292-1.949-8.773-6.678-10.572
		C137.929,12.262,121.353,5,102.966,0c-0.85,0-1.702,0-2.555,0C81.725,5,64.536,12.212,46.782,18.56
		c-3.42,1.222-7.864,2.733-7.901,7.381c0,31.964-0.881,64.253-0.881,96.229v15.616c0,12.711,0.939,25.424,0.842,38.135
		c-0.027,3.402,1.007,5.863,5.067,5.99c3.986,0.125,6.858-1.224,7.004-5.619c0.213-6.353,0.113-12.711,0.222-19.063
		c0.055-3.13-0.571-6.405,1.492-9.298c2.08-1.068,3.1,0.772,4.314,1.763c5.772,4.696,11.396,9.594,17.125,14.337
		c3.512,2.909,4.781,6.149,4.648,10.507c-0.179,5.951-0.189,11.92,0.042,17.869c0.109,2.854-0.309,6.174,3.387,7.494
		c3.223-0.2,6.506,0.571,9.689-0.491c2.389-2.075,2.221-4.915,2.267-7.673c0.094-5.531,0.117-11.065,0.028-16.594
		c-0.066-4.092,1.516-6.826,5.23-8.614c13.989-6.732,27.58-14.241,41.408-21.29c5.9-3.011,6.691-2.393,6.789,4.506
		c0.107,7.445-0.244,14.899,0.175,22.334c0.304,5.422,3.249,8.041,8.058,7.813c5.123-0.244,6.004-3.418,5.999-7.842
		C161.706,124.604,161.671,76.838,161.829,29.394z M150.233,121.304c0.016,3.285-1.154,4.895-3.969,6.308
		c-18.398,9.238-36.751,18.567-55.021,28.055c-3.127,1.621-5.156,1.38-7.826-0.962c-9.911-8.694-19.996-17.196-30.183-25.566
		c-2.438-2.001-3.158-4.13-3.135-7.111c0.108-14.252,0.05-28.508,0.047-42.76c0-14.044,0.169-28.087-0.102-42.124
		c-0.081-4.133,1.344-5.932,5.149-7.268c14.213-4.985,28.324-10.267,42.417-15.578c2.945-1.11,5.508-1.19,8.489,0.029
		c13.16,5.378,26.375,10.621,39.657,15.681c3.238,1.232,4.518,2.748,4.494,6.413C150.072,64.713,150.093,93.008,150.233,121.304z"/>
	<path fill-rule="evenodd" clip-rule="evenodd" fill="#2D2D2D" d="M139.892,43.29c0.043-4.031-1.243-5.019-5.082-4.943
		c-11.684,0.229-23.375,0.083-35.066,0.083c-11.9,0-23.81,0.221-35.701-0.112c-4.635-0.127-5.625,1.45-5.57,5.781
		c0.224,18.275,0.242,36.556-0.01,54.832c-0.061,4.543,1.352,5.684,5.752,5.645c23.375-0.202,46.756-0.174,70.133-0.018
		c3.93,0.025,5.615-0.691,5.555-5.16C139.655,80.696,139.681,61.992,139.892,43.29z M124.675,93.7
		c-8.51-0.208-17.027-0.07-25.54-0.067c-8.302,0-16.604-0.125-24.901,0.063c-3.332,0.073-4.967-0.481-4.887-4.419
		c0.247-11.915,0.186-23.838,0.026-35.755c-0.044-3.28,0.901-4.468,4.31-4.439c17.025,0.14,34.056,0.146,51.084-0.003
		c3.508-0.028,4.275,1.373,4.241,4.539c-0.135,11.917-0.166,23.84,0.013,35.758C129.073,92.743,128.021,93.78,124.675,93.7z"/>
</g>
</svg>
