<?xml version="1.0" encoding="utf-8"?>
<!-- Generator: Adobe Illustrator 16.0.2, SVG Export Plug-In . SVG Version: 6.00 Build 0)  -->
<!DOCTYPE svg PUBLIC "-//W3C//DTD SVG 1.1//EN" "http://www.w3.org/Graphics/SVG/1.1/DTD/svg11.dtd">
<svg version="1.1" id="Layer_1" xmlns="http://www.w3.org/2000/svg" xmlns:xlink="http://www.w3.org/1999/xlink" x="0px" y="0px"
	 width="200px" height="200px" viewBox="0 0 200 200" enable-background="new 0 0 200 200" xml:space="preserve">
<g>
	<rect x="111" y="145" width="12" height="12"/>
	<rect x="123" y="133" width="12" height="12"/>
	<path d="M184.195,115.523c-1.021-1.859-3.115-4.459-5.009-5.51l-3.04-1.688l-0.541,3.436c-0.196,1.247-0.548,3.215-1.503,4.145
		c-1.224,1.188-5.055,1.793-7.308,2.135c1.807-8.19,2.78-16.844,2.78-25.791c0-50.81-31.274-92.25-69.62-92.25
		s-69.62,41.44-69.62,92.25c0,8.983,0.981,17.672,2.804,25.893c-2.393-0.387-5.838-1.01-7.338-2.529
		c-0.921-0.934-1.167-2.219-1.193-3.486l-0.085-4.123l-3.566,2.071c-2.695,1.565-4.842,4.034-5.924,6.966
		c-0.986,2.674-1.059,5.758,0.381,8.287c1.328,2.332,3.43,3.512,5.772,3.955c-0.334,0.832-0.397,1.719-0.031,2.635
		c0.356,0.895,0.979,1.473,1.751,1.828c-0.428,0.713-0.683,1.508-0.626,2.393c0.021,0.334,0.089,0.663,0.199,0.979
		C34.065,169.965,63.191,200,99.922,200c7.03,0,13.988-1.04,20.703-3.127c27.999-8.699,46.721-33.445,56.847-59.873
		c0.461-1.204,0.269-2.277-0.263-3.221c0.782-0.371,1.414-0.963,1.777-1.863c0.387-0.959,0.312-1.864-0.051-2.699
		c2.027-0.342,3.87-1.217,5.146-3.096C186.344,122.784,186.072,118.945,184.195,115.523z M147.534,144.836
		c0.248-0.025,0.302,0.076,0.315,0.148c-0.045,0.076-0.09,0.154-0.136,0.23C147.619,145.043,147.534,144.881,147.534,144.836z
		 M153.594,133H147v12h0.526c-0.077,0-0.153,0-0.23,1h0.132c-0.678,1-1.379,2.222-2.099,3.295c0.646-1.098,1.292-3.295,1.967-3.295
		H147v-1h-12v12h3.977c-2.438,3-5.162,5.348-7.891,7.561c1.32-1.331,2.914-2.604,3.914-3.94V157h-12v12h1.285
		c-0.633,1-1.443,0.993-2.088,1.34c0.328-0.206,0.803-0.153,0.803-0.367V169h-12v5.908c-3,0.77-5.789,1.246-8.889,1.407
		c0.016-0.976,0.209-1.948,0.418-2.903c0.17-0.775,0.477-1.413,0.731-2.161c0.284-0.834,0.544-1.251,0.68-2.251H111v-12h-9v-0.031
		c0-1.535,0.633-2.814,1.115-4.231c0.404-1.19,0.78-2.283,0.771-3.555c-0.013-1.369-0.211-2.183-0.508-4.183H111v-12h-7.362
		c0.032,0,0.063-0.375,0.091-0.52c0.23-1.166,0.331-2.367,0.309-3.557c-0.018-0.953-0.185-1.853-0.447-2.767
		c-0.23-0.802-0.51-1.636-0.715-2.446c-0.225-0.892-0.341-1.711-0.37-2.711H111v0.143V133h12v-11.857V121h12v0.143V133h12v-11.857
		V121h10.768C156.618,125,155.217,129,153.594,133z M111.183,52.685c-0.502,0-0.909-0.407-0.909-0.91c0-0.502,0.407-0.91,0.909-0.91
		c0.503,0,0.91,0.407,0.91,0.91C112.093,52.278,111.686,52.685,111.183,52.685z M110.18,49.375c-0.502,0-0.909-0.408-0.909-0.91
		s0.407-0.91,0.909-0.91c0.503,0,0.91,0.407,0.91,0.91S110.683,49.375,110.18,49.375z M108.949,45.836
		c-0.502,0-0.909-0.407-0.909-0.91s0.407-0.91,0.909-0.91c0.503,0,0.91,0.407,0.91,0.91S109.452,45.836,108.949,45.836z
		 M111.807,55.996c-0.502,0-0.909-0.407-0.909-0.91s0.407-0.91,0.909-0.91c0.503,0,0.91,0.407,0.91,0.91
		S112.31,55.996,111.807,55.996z M112.204,57.411c0.503,0,0.91,0.407,0.91,0.91c0,0.502-0.407,0.91-0.91,0.91
		c-0.502,0-0.91-0.407-0.91-0.91C111.294,57.818,111.702,57.411,112.204,57.411z M46.278,132.932
		c6.25-0.073,7.949-2.464,11.844-2.444c3.334,0.018,7.229,2.489,10.938,2.468c3.47-0.021,6.743-2.505,10.175-2.334
		c4.039,0.202,5.914,2.07,10.002,2.313c4.771,0.283,7.928-1.01,8.185-1.08c-0.167,0.878-0.403,1.744-0.665,2.736
		c-0.329,1.246-0.559,2.417-0.583,3.712c-0.036,1.929,0.23,3.761,0.605,5.632c-1.81,0.85-3.944,1.295-7.187,1.191
		c-3.567-0.113-5.911-2.436-10.826-2.48c-2.989-0.029-6.168,2.588-10.026,2.568c-4.002-0.021-7.023-2.395-10.312-2.42
		c-2.834-0.021-5.143,0.676-6.586,1.338c-0.027,0.1-0.047,0.203-0.063,0.309c-2.102-3.62-3.99-7.482-5.64-11.548
		C46.187,132.904,46.23,132.92,46.278,132.932z M58.949,154.769c3.644-0.481,4.905,2.07,9.864,2.064
		c3.916-0.005,6.53-2.38,10.066-2.437c2.645-0.041,5.3,1.343,8.254,1.937c3.339,0.672,7.114,0.55,8.96-0.501
		c-0.021,0.257-0.03,0.523-0.029,0.803c0.006,1.779,0.256,3.41,0.731,5.121c0.309,1.107,0.743,2.271,0.915,3.403
		c0.039,0.255,0.063,0.511,0.07,0.768c0.016,0.655-0.248,1.196-0.308,1.75c-0.045,0.064-4.154,1.282-7.974,1.081
		c-5.783-0.305-8.686-4.477-16.134-0.706c-0.002,0.009-0.002,0.018-0.004,0.026c-5.31-3.504-10.198-8.025-14.532-13.371
		C58.869,154.727,58.909,154.75,58.949,154.769z M99.782,165.877c-0.008-0.342-0.04-0.681-0.092-1.018
		c-0.188-1.237-0.631-2.438-0.966-3.641c-0.428-1.537-0.652-2.991-0.658-4.592c-0.005-1.534,0.42-2.645,0.902-4.061
		c0.404-1.19,0.674-2.27,0.665-3.541c-0.012-1.645-0.452-3.379-0.789-4.986c-0.397-1.898-0.706-3.751-0.669-5.699
		c0.021-1.131,0.229-2.151,0.517-3.239c0.238-0.903,0.496-1.79,0.677-2.708c0.231-1.166,0.332-2.322,0.31-3.512
		c-0.019-0.953-0.185-1.832-0.447-2.745c-0.23-0.802-0.511-1.625-0.715-2.436c-0.223-0.885-0.339-1.7-0.369-2.7h2.417
		c-0.367,2,2.13,6.215,1.269,10.814c-0.167,0.878-0.43,1.764-0.691,2.756c-0.329,1.246-0.572,2.427-0.596,3.722
		c-0.037,1.93,0.224,3.766,0.599,5.636c1.649,6.968-0.684,10.439-0.689,11.902c-0.02,0.257-0.031,0.524-0.03,0.804
		c0.006,1.779,0.212,3.423,0.73,5.121c2.126,6.952-0.572,8.217-0.758,14.621c-0.142,0.002-0.281,0.007-0.423,0.007
		c-0.67,0-1.337-0.02-2.002-0.049c0.016-0.981,0.098-1.961,0.309-2.922c0.17-0.775,0.421-1.498,0.676-2.246
		C99.591,169.305,99.832,167.863,99.782,165.877z M157.551,118l-4.03-8.311l-25.58,0.014l-4.511,7.282l-9.901-12.645
		c1.177-0.888,3.556-2.675,3.867-2.888c0.073-0.049,0.175-0.081,0.288-0.108c0.941,1.098,2.248,1.805,3.844,2.132
		c1.532,0.313,2.975,0.241,4.505,0.031c0.117-0.016,0.212-0.073,0.281-0.169c0.068-0.097,0.093-0.204,0.069-0.321
		c-0.011-0.057-0.026-0.109-0.039-0.164c0.96,0.089,1.925-0.336,2.499-1.158c0.856-1.225,0.44-2.586-0.493-3.572
		c0.191-0.202,0.367-0.422,0.525-0.655c0.694,0.044,1.394,0.038,2.077-0.007c0.64-0.042,1.536-0.123,2.151-0.309
		c0.116-0.036,0.203-0.11,0.255-0.22s0.055-0.224,0.009-0.336c-0.002-0.003-0.003-0.006-0.005-0.01
		c2.247-0.396,3.508-3.056,1.268-4.821c0.207-0.236,0.377-0.497,0.509-0.774c0.848-0.052,1.699-0.158,2.527-0.309
		c0.521-0.095,1.498-0.277,1.965-0.522c0.107-0.057,0.179-0.146,0.208-0.264c0.03-0.118,0.012-0.23-0.055-0.332
		c-0.003-0.003-0.005-0.006-0.007-0.009c1.864-0.933,2.29-3.791,0.203-4.829c0.262-0.401,0.414-0.849,0.469-1.303
		c0.742-0.292,1.472-0.628,2.171-1.001c0.48-0.257,1.235-0.664,1.641-1.027c0.101-0.091,0.148-0.212,0.136-0.348
		c-0.001-0.006-0.003-0.011-0.004-0.017c1.428-1.404,1.224-4.02-0.964-4.469c0.161-0.511,0.198-0.999,0.141-1.445
		c0.767-0.437,1.511-0.93,2.211-1.46c0.432-0.327,1.119-0.851,1.459-1.271c0.087-0.108,0.113-0.241,0.075-0.375
		c-0.023-0.083-0.074-0.146-0.136-0.197c0.489-0.839,0.577-1.881,0-2.757c-0.442-0.67-1.143-0.963-1.892-0.982
		c0.062-0.505,0-1.012-0.17-1.47c0.707-0.623,1.377-1.307,1.988-2.02c0.353-0.411,0.912-1.067,1.155-1.55
		c0.063-0.125,0.061-0.259-0.005-0.382c-0.042-0.08-0.105-0.138-0.183-0.175c0.536-1.779-0.529-3.812-2.587-3.371
		c-0.144-0.672-0.441-1.232-0.824-1.66c0.021-0.031,0.041-0.062,0.061-0.092c0.529-0.83,0.982-1.727,1.367-2.632
		c0.211-0.498,0.49-1.167,0.604-1.697c0.032-0.146-0.013-0.288-0.122-0.391c-0.11-0.103-0.255-0.137-0.399-0.095
		c-0.056,0.017-0.108,0.036-0.163,0.053c0.285-1.824-1.056-3.548-2.958-2.597c-0.129-0.235-0.282-0.44-0.447-0.628
		c0.102,0.085,0.2,0.179,0.294,0.279c0.364-0.77,0.673-1.576,0.926-2.386c0.162-0.516,0.373-1.209,0.436-1.748
		c0.015-0.133-0.028-0.253-0.125-0.346c-0.097-0.092-0.219-0.131-0.351-0.111c-0.285,0.044-0.539,0.107-0.778,0.182
		c0.43-2.095-1.175-4.051-3.117-2.83c-0.337-0.489-0.756-0.841-1.205-1.073c0.01-0.043,0.021-0.087,0.03-0.13
		c0.211-0.961,0.328-1.959,0.378-2.941c0.026-0.541,0.058-1.265-0.018-1.801c-0.019-0.132-0.091-0.238-0.207-0.304
		c-0.116-0.066-0.244-0.072-0.367-0.02c-0.01,0.004-0.018,0.009-0.027,0.013c-0.237-1.888-2.344-2.837-3.908-1.35
		c-0.349-0.363-0.764-0.647-1.225-0.823c0.165-1.644,0.01-3.383-0.183-4.521c-0.023-0.142-0.11-0.253-0.242-0.311
		c-0.132-0.058-0.271-0.046-0.393,0.032c-0.149,0.098-0.294,0.198-0.434,0.301c-0.022-0.108-0.051-0.215-0.087-0.32
		c-0.211-0.615-0.655-1.121-1.283-1.325c-0.97-0.315-1.849,0.182-2.43,0.919c-0.206-0.196-0.443-0.34-0.696-0.441l0,0
		c-0.036-0.249-0.077-0.489-0.122-0.712c-0.238-1.193-0.917-3.473-1.682-4.436c-0.078-0.098-0.185-0.152-0.311-0.156
		s-0.236,0.042-0.321,0.135c-0.051,0.056-0.099,0.114-0.147,0.17c-0.149-0.293-0.363-0.558-0.663-0.771
		c-0.742-0.529-1.79-0.546-2.55-0.044c-0.409,0.27-0.681,0.654-0.812,1.095c-2.572-1.386-4.898,1.81-3.428,3.496
		c-0.718,0.31-1.306,0.854-1.345,1.717c-0.035,0.794,0.416,1.51,1.061,1.94c-0.125,0.117-0.229,0.239-0.302,0.367
		c-0.097,0.172-0.063,0.382,0.085,0.513c0.729,0.652,3.678,1.192,4.66,1.338c0.268,0.04,0.639,0.091,1.059,0.135
		c-0.04,0.517,0.075,1.043,0.356,1.461c-0.031,0.027-0.063,0.052-0.091,0.082c-0.137,0.142-0.156,0.354-0.047,0.518
		c0.536,0.803,2.938,1.884,3.832,2.243c0.313,0.125,0.748,0.291,1.232,0.446c-0.242,0.629-0.239,1.372,0.063,1.961
		c-0.111,0.044-0.225,0.089-0.325,0.146c-0.187,0.105-0.262,0.333-0.176,0.53c0.397,0.895,2.81,2.6,3.646,3.135
		c0.369,0.237,1.198,0.61,1.57,0.956c0,0,0-0.001,0-0.001c0,0.415-0.051,0.853,0.003,1.23c0.012,0.084,0.065,0.167,0.084,0.25
		c-0.02,0.005-0.023,0.005-0.043,0.01c-0.207,0.055-0.33,0.257-0.295,0.469c0.159,0.958,1.916,3.171,2.555,3.921
		c0.153,0.179,0.362,0.416,0.6,0.674c-0.288,0.461-0.464,1.028-0.482,1.589c-0.095,0.023-0.188,0.05-0.281,0.087
		c-0.171,0.067-0.273,0.23-0.262,0.413c0.063,0.972,1.729,3.28,2.333,4.054c0.144,0.185,0.335,0.424,0.555,0.686
		c0.164-0.157,0.342-0.292,0.527-0.399c0.079,0.009,0.168-0.046,0.264-0.133c0.577-0.244,1.208-0.216,1.757,0.256
		c0.3-0.633,0.712-1.053,1.172-1.296c0.354-0.032,0.7-0.078,1.042-0.252c0.702,0.012,1.406,0.36,1.939,0.968
		c-1.201-0.971-2.938-0.833-3.781,0.953c-1.195-1.03-2.784,0.044-3.343,1.467c-0.043-0.008-0.087-0.018-0.131-0.023
		c-0.176-0.022-0.353-0.022-0.528,0.001c-0.179,0.023-0.315,0.151-0.353,0.327c-0.206,0.99,0.725,3.742,1.086,4.698
		c0.084,0.224,0.2,0.521,0.341,0.854c0.251-0.188,0.525-0.333,0.805-0.424c0.026,0.152,0.056,0.303,0.096,0.449
		c0.003,0.01,0.01,0.015,0.014,0.024c-0.518,0.234-0.996,0.653-1.321,1.162c-0.329-0.211-0.692-0.351-1.09-0.383
		c-0.226-0.019-0.425,0.148-0.446,0.373c-0.148,1.52-0.069,3.47,0.132,4.97c0.032,0.239,0.072,0.498,0.122,0.767
		c0.436-0.244,0.916-0.376,1.383-0.361c-0.007,0.131-0.01,0.261-0.011,0.391c-0.659,0.088-1.314,0.449-1.8,0.969
		c-0.291-0.214-0.637-0.345-1.053-0.349c-0.188-0.001-0.35,0.119-0.401,0.301c-0.169,0.592-0.297,1.239-0.411,1.843
		c-0.204,1.084-0.358,2.191-0.426,3.293c-0.003,0.044-0.005,0.092-0.008,0.138c0.51-0.092,1.032-0.055,1.489,0.135
		c-0.001,0.02-0.003,0.039-0.004,0.062c-0.008,0.101,0.033,0.167,0.104,0.215c-0.836-0.229-1.821-0.004-2.548,0.534
		c-0.202-0.246-0.463-0.433-0.811-0.523c-0.184-0.048-0.369,0.029-0.464,0.193c-0.778,1.341-1.946,3.446-2.212,5.573
		c-0.068,0.545,0.89-0.621,1.673,0.193c-0.004,0.025-0.009,0.049-0.014,0.077c-0.539-0.205-1.188-0.228-1.875-0.031
		c-0.323,0.092-0.638,0.237-0.92,0.426c-0.136-0.366-0.352-0.662-0.685-0.839c-0.172-0.092-0.379-0.054-0.508,0.094
		c-0.427,0.491-0.845,1.096-1.205,1.637c-0.648,0.975-1.244,2.016-1.708,3.092c-0.013,0.03-0.025,0.061-0.038,0.091
		c0.597,0.069,1.178,0.349,1.604,0.82c-0.005,0.009-0.009,0.017-0.014,0.026c-0.952-0.693-2.319-0.678-3.149,0.177
		c-0.12-0.346-0.294-0.686-0.54-1.019c-0.069-0.095-0.166-0.151-0.284-0.166s-0.225,0.018-0.315,0.094
		c-1.111,0.931-1.994,1.697-2.864,2.898c-1.396,1.928-2.08,4.145-1.528,6.514c0.001,0.007,0.003,0.013,0.005,0.019
		c0.18,0.631,0.425,1.197,0.73,1.703c-0.563,0.429-0.972,0.886-1.159,1.074c-0.308,0.308-2.215,1.614-2.918,2.093l-2.341-2.992
		l-7.455-0.026c-0.068-3.186-0.449-6.327-1.483-8.315c2.518-2.466,2.646-7.439,1.631-10.539c-0.219-0.668-0.528-1.217-0.99-1.744
		c-0.192-0.22-0.563-0.558-0.682-0.813c-0.051-0.109-0.064-0.219-0.057-0.334c0.117-0.063,0.399-0.15,0.485-0.18
		c0.434-0.147,0.845-0.306,1.255-0.51c1.522-0.756,2.819-1.97,3.909-3.257c3.052-3.603,5.63-9.252,6.308-13.934
		c1.078-0.757,2.064-1.937,1.651-3.337c-0.175-0.592-0.571-1.077-1.064-1.434c0.446-0.605,0.556-1.613,0.35-2.241
		c-0.175-0.532-0.529-0.897-0.986-1.114c0.596-0.957,0.614-2.736-0.856-3.259c0.891-1.628,0.316-3.098-1.465-3.559
		c0.578-1.003,0.778-2.169-0.163-3.107c-0.691-0.689-1.502-0.849-2.442-0.746c-0.403,0.044-1.315,0.264-1.674,0.162
		c-1.043-0.296-2.653-1.75-3.404-2.504c-1.527-1.535-2.899-3.397-3.805-5.367c-0.546-1.188-0.942-2.459-1.072-3.764
		c-0.107-1.082-0.028-2.159,0.271-3.206l0.296-1.032l-0.913,0.565c-3.431,2.124-6.365,5.154-6.779,9.34
		c-0.212,2.134,0.227,3.803,0.961,5.727c-1.087,1.549-1.813,3.318-1.314,5.231c0.559,2.142,2.591,4.048,4.027,5.669
		c2.693,3.039,8.063,8.333,8.745,12.289c0.453,2.627-0.453,5.207-2.06,7.275c-0.844,1.086-2.838,3.037-4.3,3.15
		c-0.114,0.005-0.518-0.237-0.62-0.298c-0.417-0.246-0.819-0.482-1.279-0.642c-0.743-0.258-2.496-0.583-3.027,0.215
		c-0.398,0.599-0.317,1.44-0.082,2.083c0.297,0.812,0.883,1.512,1.64,1.934c0.383,0.213,0.822,0.297,1.255,0.333
		c0.216,0.019,1.543,0.018,1.646,0.155c0.006,0.011,0.008,0.045,0.008,0.057c-0.041,0.097-0.969,0.953-1.127,1.129
		c-0.72,0.805-1.125,1.722-1.079,2.817c0.053,1.235,0.531,2.167,1.718,2.619c0.357,0.136,0.714,0.205,1.081,0.298
		c0.068,0.017,0.336,0.087,0.413,0.15c-0.14,0.067-0.495,0.159-0.591,0.188c-0.43,0.133-0.828,0.313-1.12,0.671
		c-0.507,0.619-0.513,1.489-0.309,2.227c0.28,1.008,0.96,1.921,1.705,2.657c-0.445,2.288-0.883,4.61-1.166,6.923
		c-0.053,0.432-0.103,0.888-0.144,1.351l-7.39-0.026l-2.235,2.944c-2.822-1.615-5.572-3.744-8.123-6.125l0.003-0.004
		c1.069-1.4,1.246-2.88,1.811-4.463c0.485-1.358,0.377-3.191,0.065-4.569c-0.633-2.801-2.274-5.273-4.265-7.301l-1.027-1.046
		l0.327,1.429c0.353,1.543-0.342,3.398-0.787,4.868c-0.346,1.139-0.664,2.329-0.635,3.529c0.03,1.225,0.167,2.377,0.485,3.427
		c-1.135-1.279-2.197-2.584-3.18-3.885c1.281-1.188,1.715-2.607,2.544-4.06c0.657-1.153,0.851-2.793,0.786-4.094
		c-0.121-2.463-1.099-4.802-2.458-6.833l-0.833-1.244l0.074,1.495c0.018,0.367-0.02,0.73-0.1,1.088
		c-0.236,1.044-0.838,2.045-1.354,2.974c-0.606,1.09-1.167,2.18-1.356,3.429c-0.193,1.271-0.206,2.357-0.001,3.364
		c-1.063-1.668-2.059-3.419-2.943-5.23l0.05-0.029c1.586-0.911,2.313-2.14,3.295-3.594c2.125-3.147,1.707-6.78,0.253-10.138
		l-0.604-1.393l-0.188,1.506c-0.055,0.432-0.189,0.829-0.397,1.21c-0.394,0.725-1.021,1.368-1.562,1.988
		c-0.712,0.819-1.312,1.624-1.731,2.636c-0.574,1.383-0.877,2.586-0.857,3.771c-0.667-1.794-1.208-3.622-1.576-5.465
		c1.58-0.575,2.523-1.571,3.725-2.721c2.709-2.596,2.929-6.131,2.229-9.657l-0.296-1.489l-0.502,1.432
		c-0.168,0.478-0.424,0.875-0.774,1.238c-0.524,0.543-1.211,0.975-1.818,1.422c-0.816,0.601-1.507,1.225-2.088,2.064
		c-0.532,0.768-0.947,1.49-1.241,2.208c-0.141-1.479-0.226-2.961-0.242-4.446c1.53-0.189,2.905-0.571,4.177-1.498
		c2.712-1.977,4.126-5.231,4.07-8.553L69.83,49.44l-0.741,1.168c-0.72,1.133-2.519,1.729-3.688,2.295
		c-0.563,0.273-1.115,0.577-1.612,0.961c-0.913,0.708-1.569,1.641-2.026,2.677c0.186-2.119,0.535-4.146,1.031-6.095l0.307-0.006
		c1.644-0.032,3.126-0.275,4.55-1.131c0.665-0.399,1.393-1.175,1.883-1.769c0.766-0.928,1.434-2.001,1.854-3.13
		c0.167-0.448,0.297-0.911,0.375-1.383l0.222-1.323l-0.93,0.967c-0.451,0.47-0.962,0.753-1.578,0.952
		c-1.34,0.431-2.509,0.419-3.796,1.184c-0.595,0.353-1.068,0.75-1.453,1.189c0.66-1.671,1.438-3.28,2.32-4.835l0.423,0.08
		c1.615,0.304,3.116,0.368,4.685-0.179c1.26-0.439,2.949-1.939,3.797-2.94c0.513-0.605,0.976-1.287,1.282-2.021l0.483-1.156
		l-1.077,0.639c-1.608,0.954-3.443,0.2-5.103,0.705c-0.767,0.233-1.437,0.584-2.021,1.028c1.164-1.619,2.446-3.18,3.835-4.69
		l0.067,0.045c1.455,0.994,2.927,1.17,4.64,1.026c0.86-0.072,1.925-0.518,2.678-0.921c1.106-0.593,2.155-1.407,2.915-2.412
		l0.789-1.044l-1.246,0.399c-2.095,0.67-2.973-0.501-4.759-0.423c-0.767,0.034-1.438,0.104-2.04,0.249
		c0.295-0.279,0.595-0.556,0.896-0.832l0.137-0.011c1.878-0.151,2.972-0.124,4.638-1.179c1.438-0.91,2.881-2.333,3.94-3.654
		l0.404-0.504l-0.627-0.157c-2.107-0.529-4.891-0.532-6.531,1.132c-1.081,1.096-1.764,1.984-2.153,3.43
		c-0.127,0.114-0.254,0.228-0.38,0.343c0.098-0.17,0.186-0.35,0.261-0.543c0.538-1.377-0.587-3.059,0.11-4.333l0.647-1.182
		l-1.2,0.613c-1.555,0.795-3.527,2.353-3.998,4.129c-0.431,1.624-0.096,3.039,0.585,4.545l0.095,0.209
		c-0.851,0.903-1.663,1.825-2.437,2.764c0.191-0.573,0.324-1.166,0.391-1.763c0.164-1.47-1.355-2.805-1.011-4.215l0.321-1.309
		l-1.001,0.902c-1.298,1.169-2.803,3.182-2.799,5.02c0.003,1.68,0.691,2.961,1.737,4.241L68.01,37.3
		c-0.596,0.85-1.157,1.716-1.687,2.6c0.05-0.442,0.067-0.887,0.05-1.33c-0.06-1.477-1.764-2.568-1.635-4.015l0.12-1.342
		l-0.854,1.042c-1.107,1.352-2.291,3.568-2.011,5.384c0.255,1.66,1.129,2.822,2.356,3.931l0.015,0.013
		c-0.525,1.127-0.997,2.283-1.413,3.468c-0.02-0.748-0.134-1.495-0.344-2.216c-0.454-1.563-2.41-2.434-2.898-3.864l-0.313-0.919
		l-0.447,0.862c-0.876,1.689-1.664,4.37-0.872,6.227c0.727,1.704,2.034,2.679,3.659,3.488l0.138,0.069
		c-0.317,1.314-0.566,2.666-0.748,4.054c-0.186-0.879-0.502-1.734-0.938-2.524c-0.823-1.49-3.021-1.959-3.857-3.321l-0.506-0.826
		l-0.248,0.937c-0.509,1.921-0.685,4.803,0.545,6.511c1.132,1.576,2.688,2.289,4.53,2.768l0.168,0.043
		c-0.053,1.222-0.06,2.444-0.018,3.666c-0.415-1.07-1.045-2.058-1.835-2.898c-1.166-1.24-3.413-1.15-4.56-2.263l-0.695-0.675
		l-0.009,0.969c-0.017,1.987,0.526,4.387,2.141,5.739C57.332,64.122,59.017,64,60.919,64h0.058c0.093,2,0.212,2.569,0.356,3.633
		c0.013,0.42,0.063,1.072,0.156,1.526c-0.651-1.032-1.521-1.82-2.508-2.534c-1.41-1.021-3.609-0.522-4.991-1.434l-0.843-0.529
		l0.209,1.002c0.418,1.982,1.573,4.638,3.429,5.686c1.688,0.953,3.377,1.014,5.257,0.729c0.359,1.529,0.83,3.046,1.387,4.538
		c-0.938-0.987-2.109-1.752-3.371-2.258c-1.616-0.646-3.642,0.321-5.203-0.228l-0.953-0.334l0.442,0.908
		c0.889,1.821,2.653,4.11,4.707,4.675c1.86,0.511,3.52,0.158,5.265-0.571c0.635,1.454,1.345,2.876,2.111,4.257
		c-1.33-0.98-3.061-1.646-4.414-1.863c-1.17-0.188-1.879-0.051-2.969,0.321c-1.027,0.349-1.666,0.404-2.747,0.153l-0.975-0.226
		l0.529,0.849c1.336,2.145,3.7,4.253,6.293,4.6c2.316,0.31,3.791-0.044,5.769-1.311c0.471,0.752,0.954,1.491,1.449,2.209
		c0.531,0.771,1.098,1.549,1.689,2.328c-1.566-1.171-3.587-2.026-5.438-2.109c-1.184-0.053-1.872,0.165-2.913,0.658
		c-0.98,0.464-1.608,0.591-2.711,0.466l-0.994-0.113l0.623,0.783c1.572,1.978,4.162,3.802,6.777,3.85
		c2.374,0.043,3.806-0.492,5.667-2.032l0.1-0.082c0.924,1.146,1.91,2.284,2.94,3.396c-1.345-0.713-2.922-1.133-4.234-1.175
		c-1.189-0.039-1.871,0.185-2.917,0.674c-0.975,0.457-1.611,0.574-2.703,0.45l-1.197-0.137l0.86,0.845
		c1.754,1.721,4.146,3.764,6.744,3.812c2.374,0.043,3.805-0.492,5.667-2.032l0.09-0.075c2.789,2.703,5.84,5.127,8.982,6.94
		l-9.75,12.842l-4.596-7.385l-25.613-0.216L42.514,118c-0.347,0-0.694,0-1.041,0c-1.958-8-3.021-16.809-3.021-25.879
		c0-46.339,27.638-84.069,61.523-84.069c33.887,0,61.523,37.745,61.523,84.083c0,9.036-1.055,17.864-2.998,25.864
		C158.184,118,157.867,118,157.551,118z M135.434,43.862c-0.164-2.862,3.057-3.3,4.332-0.852c1.851-1.543,3.355,0.423,2.767,2.402
		c-0.665,0.292-1.192,0.718-1.774,1.263c-0.689-1.11-1.458-2.001-2.421-2.937c-0.098-0.094-0.223-0.133-0.356-0.111
		s-0.24,0.099-0.302,0.219c-0.632,1.229-0.977,1.991-1.197,3.182c-0.903-0.627-2.054-1.131-3.123-1.039
		C133.024,44.532,133.842,42.737,135.434,43.862z M128.445,37.97c1.071,0.307,2.281,0.501,2.95,0.083
		c0.259-0.147,0.481-0.342,0.683-0.563c-0.156,0.832-0.217,1.515-0.153,2.405c-1.026-0.335-2.349-0.473-3.389-0.213
		C128.248,39.182,128.23,38.518,128.445,37.97z M125.292,31.667c-0.819-0.67-0.874-1.411-0.54-2c0.124-0.137,0.236-0.275,0.329-0.42
		c0.836-0.813,2.459-1.068,3.24,0.21c1.083-1.983,3.165-1.539,3.394,0.319c-0.662,0.556-1.169,1.207-1.394,2.053
		c-1.048-0.689-2.086-1.167-3.307-1.609c-0.128-0.046-0.258-0.03-0.37,0.045c-0.113,0.075-0.179,0.188-0.185,0.324
		c-0.073,1.411-0.072,2.254,0.236,3.472c-1.007-0.1-2.372-0.141-3.215,0.274C122.738,33.25,123.336,31.172,125.292,31.667z
		 M121.312,24.315c-0.082-2.012,2.704-2.405,3.401-0.639c-0.602,0.773-1.011,1.612-1.021,2.586
		c-1.187-0.404-2.312-0.607-3.604-0.729c-0.136-0.013-0.257,0.035-0.348,0.136s-0.125,0.228-0.098,0.36
		c0.285,1.389,0.498,2.206,1.107,3.314c-0.966,0.188-2.305,0.576-3.137,1.137c-1.24-0.734-1.656-2.725,0.828-3.229
		C116.078,26.046,118.688,22.171,121.312,24.315z M123.55,31.561c-0.041,0.032-0.085,0.063-0.123,0.099
		C123.465,31.624,123.509,31.594,123.55,31.561z M124.362,31.202c-0.128,0.021-0.247,0.055-0.359,0.097
		C124.115,31.257,124.234,31.223,124.362,31.202z M123.879,31.359c-0.063,0.031-0.13,0.06-0.188,0.097
		C123.749,31.418,123.815,31.39,123.879,31.359z M122.923,32.431c-0.004,0.012-0.01,0.024-0.014,0.037
		C122.913,32.455,122.919,32.443,122.923,32.431z M123.076,32.109c-0.013,0.022-0.026,0.043-0.038,0.065
		C123.05,32.152,123.063,32.131,123.076,32.109z M123.284,31.814c-0.024,0.029-0.052,0.058-0.075,0.088
		C123.232,31.872,123.26,31.844,123.284,31.814z M126.356,28.184c0.032-0.004,0.063-0.007,0.095-0.011
		C126.42,28.176,126.389,28.179,126.356,28.184z M133.567,43.459c-0.071,0.064-0.136,0.136-0.195,0.212
		C133.432,43.595,133.496,43.524,133.567,43.459z M133.883,43.241c-0.099,0.05-0.187,0.113-0.27,0.181
		C133.696,43.354,133.784,43.291,133.883,43.241z M135.611,41.82c0.001,0,0.003-0.001,0.005-0.001
		c-0.042,0.05-0.086,0.096-0.124,0.15C135.529,41.916,135.57,41.869,135.611,41.82z M135.447,42.041
		c-0.05,0.078-0.098,0.159-0.14,0.245C135.35,42.2,135.396,42.119,135.447,42.041z M135.256,42.4
		c-0.036,0.083-0.067,0.17-0.096,0.26C135.188,42.57,135.22,42.483,135.256,42.4z M135.124,42.777
		c-0.035,0.131-0.065,0.268-0.083,0.413C135.059,43.045,135.089,42.909,135.124,42.777z M137.25,41.019
		c-0.024,0.001-0.048,0.003-0.072,0.005C137.202,41.021,137.226,41.02,137.25,41.019z M136.944,41.053
		c-0.028,0.005-0.056,0.012-0.084,0.019C136.889,41.066,136.916,41.058,136.944,41.053z M138.396,41.207
		c-0.002,0-0.005-0.001-0.007-0.002C138.392,41.205,138.395,41.206,138.396,41.207z M135.976,38.465
		c-0.945-0.902-1.912-1.572-3.079-2.237c-0.019-0.01-0.037-0.016-0.056-0.024c0.214-0.547,0.357-1.159,0.445-1.797
		c0.453,0.191,0.893,0.522,1.266,1.024c1.356-1.711,3.406-0.888,3.522,0.913C137.094,36.865,136.558,37.547,135.976,38.465z
		 M133.311,43.755c-0.046,0.067-0.089,0.137-0.128,0.21C133.222,43.892,133.265,43.822,133.311,43.755z M136.106,51.517
		c0.296-0.478,0.712-0.842,1.197-0.971c0.321-0.001,0.672,0.13,1.038,0.447c0.001-0.13,0.017-0.246,0.029-0.365
		c0.229-1.165,0.979-1.807,1.86-1.963c1-0.034,2.125,0.639,2.64,1.919c1.858-1.263,3.098,0.46,2.682,2.172
		c-0.825,0.323-1.522,0.757-2.298,1.202c-0.609-1.223-1.388-2.222-2.28-3.278c-0.087-0.104-0.208-0.155-0.343-0.146
		c-0.136,0.009-0.249,0.075-0.322,0.189c-0.768,1.189-1.191,2.077-1.532,3.307c-0.852-0.734-2.006-1.419-3.096-1.367
		c0.023-0.428,0.149-0.86,0.352-1.221C136.058,51.466,136.081,51.491,136.106,51.517z M145.148,59.64
		c2.028-0.765,3.045,1.139,2.512,2.772c-1.253-0.106-2.288,0.137-3.462,0.454c-0.242-1.407-0.71-2.641-1.277-3.971
		c-0.055-0.129-0.16-0.215-0.297-0.244c-0.138-0.028-0.269,0.009-0.37,0.105c-0.518,0.492-0.957,0.992-1.368,1.576
		c-0.35,0.495-0.672,0.996-1.018,1.489c-0.542-0.89-1.336-1.824-2.282-2.183c0.54-1.333,2.095-2.346,3.078-0.771
		C141.562,55.684,144.875,56.734,145.148,59.64z M140.306,65.523c-0.272-0.2-0.58-0.293-0.897-0.297
		c0.11-0.063,0.224-0.13,0.337-0.195C139.95,65.14,140.14,65.301,140.306,65.523z M141.077,64.856
		c0.048,0.003,0.096,0.002,0.145-0.011c0.533-0.146,1.012-0.073,1.478,0.022c-0.81-0.001-1.504,0.416-2.011,1.041
		c-0.112-0.153-0.236-0.276-0.369-0.375C140.539,65.263,140.794,65.033,141.077,64.856z M143.882,65.038
		c0.147,0.117,0.281,0.247,0.399,0.391c-0.209-0.168-0.448-0.306-0.716-0.405C143.67,65.035,143.775,65.04,143.882,65.038z
		 M140.646,66.724c1.551-2.922,4.979-0.952,4.122,1.797c2.169-0.323,2.882,1.699,2.036,3.135c-1.232-0.382-2.317-0.355-3.567-0.291
		c-0.111-1.389-0.076-2.773-0.343-4.154c-0.026-0.138-0.111-0.244-0.239-0.301s-0.264-0.048-0.384,0.025
		c-1.256,0.764-2.169,1.618-3.212,2.542c-0.256-0.954-0.783-1.987-1.536-2.633C138.267,65.628,140.004,64.937,140.646,66.724z
		 M140.734,72.424c0.472,0.133,0.83,0.354,1.316,0.413c0.193,0.132,0.369,0.291,0.522,0.475c-0.848-0.67-2.085-0.765-3.176,0.128
		c-0.091-0.16-0.191-0.301-0.299-0.424C139.633,72.602,140.197,72.421,140.734,72.424z M138.797,72.733
		c-0.184-0.142-0.381-0.245-0.587-0.311c0.06-0.03,0.119-0.059,0.18-0.089C138.535,72.44,138.671,72.575,138.797,72.733z
		 M139.263,74.147c2.001-2.269,4.909-0.055,3.585,2.765c2.286,0.07,2.564,2.492,1.293,3.79c-1.24-0.724-2.318-0.688-3.623-0.822
		c0.167-1.537,0.475-3.066,0.483-4.615c0.001-0.143-0.063-0.266-0.182-0.345c-0.118-0.081-0.256-0.095-0.389-0.042
		c-1.378,0.559-2.431,1.267-3.619,2.023c-0.04-1.109-0.307-2.5-1.019-3.295C136.781,72.528,138.571,72.169,139.263,74.147z
		 M137.815,79.809c0.495,0.212,0.826,0.507,1.313,0.666c0.1,0.09,0.188,0.188,0.272,0.288c-0.107-0.088-0.219-0.173-0.342-0.248
		c-0.905-0.554-1.898-0.469-2.765,0.003c-0.049-0.168-0.11-0.322-0.182-0.463C136.655,79.799,137.238,79.699,137.815,79.809z
		 M135.512,79.322c-0.155-0.119-0.325-0.214-0.504-0.285c0.078,0.012,0.164,0.019,0.258,0.021
		C135.354,79.137,135.436,79.224,135.512,79.322z M136.001,81.208c2.09-1.647,4.099,0.075,4.062,1.94
		c-0.023,0.157-0.058,0.312-0.106,0.465c0.021-0.007,0.04-0.016,0.06-0.023c-0.092,0.463-0.319,0.92-0.712,1.32
		c2.344,0.669,1.991,3.479,0.226,4.303c-0.741-0.965-1.552-1.355-2.778-1.707c-0.198-0.057-0.398-0.113-0.595-0.177
		c0.517-1.451,1.074-2.897,1.46-4.388c0.036-0.138,0.003-0.273-0.092-0.38s-0.226-0.154-0.367-0.135
		c-1.559,0.216-2.808,0.685-4.243,1.153c-0.067-1.09,0.052-2.713-0.464-3.733C133.674,78.912,135.801,78.964,136.001,81.208z
		 M132.786,86.668c0.041,0.017,0.079,0.033,0.12,0.05c-0.37-0.014-0.747,0.043-1.115,0.163c-0.005-0.053-0.016-0.103-0.024-0.154
		C132.073,86.7,132.428,86.665,132.786,86.668z M133.504,86.746c0.354,0.083,0.675,0.247,0.909,0.545
		c-0.22-0.18-0.453-0.313-0.696-0.406C133.652,86.839,133.582,86.793,133.504,86.746z M130.837,85.75
		c0.208,0.467,0.448,1.003,0.449,1.006c0.022,0,0.048-0.001,0.071-0.001c0.038,0.223,0.047,0.472,0.019,0.75
		c1.623-0.837,2.891-0.173,3.414,0.931c0.04,0.626-0.075,1.464-0.418,2.588c0.101-0.002,0.2-0.009,0.301-0.013
		c-0.169,0.291-0.397,0.564-0.69,0.807c2.558,1.588,1.26,4.064-0.805,4.368c-0.455-0.885-1.063-1.396-2.032-1.831
		c-0.304-0.137-0.615-0.26-0.911-0.413c0.753-1.42,1.572-2.812,2.263-4.261c0.062-0.129,0.055-0.268-0.018-0.39
		c-0.073-0.123-0.192-0.195-0.335-0.202c-1.589-0.085-3.04,0.187-4.588,0.343c0.099-1.007,0.373-2.504,0.155-3.61
		C128.61,85.141,130.051,85.023,130.837,85.75z M126.103,91.947c0.026,0.03,0.057,0.058,0.093,0.081
		c0.18,0.115,0.343,0.211,0.496,0.296c-0.194-0.007-0.39-0.006-0.586,0.013c-0.008-0.136-0.03-0.262-0.054-0.387
		C126.068,91.949,126.086,91.947,126.103,91.947z M128.583,92.981c-0.282-0.228-0.602-0.389-0.941-0.496
		c-0.212-0.145-0.439-0.297-0.684-0.457C127.582,92.16,128.15,92.465,128.583,92.981z M125.298,91.142
		c0.285,0.418,0.445,0.977,0.388,1.676c2.279-0.462,3.628,0.923,3.521,2.613c-0.128,0.713-0.476,1.404-0.94,1.986
		c0.046,0.005,0.094,0.007,0.14,0.012c-0.185,0.239-0.401,0.473-0.653,0.696c2.432,2.101,0.509,4.636-1.53,4.296
		c-0.26-0.762-0.713-1.352-1.446-1.818c-0.459-0.292-1.045-0.521-1.511-0.83c1.063-1.409,2.225-2.766,3.221-4.217
		c0.08-0.117,0.096-0.255,0.043-0.388c-0.053-0.132-0.159-0.222-0.299-0.252c-1.7-0.363-3.319-0.415-5.029-0.443
		c0.062-0.15,0.13-0.299,0.188-0.43c0.188-0.418,0.373-0.833,0.505-1.273c0.188-0.623,0.234-1.211,0.135-1.776
		c0.656-0.886,1.943-0.98,2.808-0.33c-0.008,0.012-0.014,0.023-0.021,0.035C124.638,90.977,124.949,91.052,125.298,91.142z
		 M126.766,28c0.021,0,0.044,0,0.065,0C126.81,28,126.787,28,126.766,28z M122.823,32.766c0,0.003-0.001,0.007-0.002,0.011
		C122.822,32.773,122.823,32.77,122.823,32.766z M133.108,44.126c-0.013,0.031-0.025,0.063-0.037,0.094
		C133.083,44.188,133.096,44.157,133.108,44.126z M99.955,179.089c28.032,0,51.964-24.512,60.685-58.496
		c0.932-0.001,1.857-0.001,2.784-0.002c-8.895,35.502-34.01,61.204-63.469,61.204c-29.431,0-54.526-25.652-63.443-61.102
		c0.928-0.001,1.856-0.002,2.784-0.002C48.038,154.624,71.95,179.089,99.955,179.089z M99.955,2.706
		c36.855,0,66.915,40.225,66.915,89.544c0,9.004-1.006,17.701-2.868,25.909c-0.922,0.001-1.844,0.001-2.766,0.003
		c1.901-8.189,2.928-16.894,2.928-25.912c0-47.829-28.844-86.839-64.209-86.839S35.746,44.421,35.746,92.25
		c0,9.055,1.035,17.793,2.951,26.011c-0.922,0.001-1.844,0.001-2.766,0.002c-1.877-8.238-2.892-16.972-2.892-26.013
		C33.04,42.931,63.1,2.706,99.955,2.706z M182.068,124.756c-1.867,2.754-5.924,2.369-9.773,1.843
		c7.474,3.987,4.783,6.587-1.824,4.61c1.73,1.324,5.413,3.141,4.73,4.92c-14.625,38.17-42.485,61.439-75.279,61.439
		c-35.022,0-63.625-28.586-75.15-61.26c-0.642-1.818,3.377-3.988,4.716-5.117c-8.284,2.097-7.451-1.572-1.835-4.694
		c-13.28,3.502-13.602-9.949-5.476-14.667c0.136,6.547,5.266,8.17,11.53,8.17c0.01,0,0.02,0,0.028,0
		c9.085,37,35.36,64.152,66.22,64.152c30.901,0,57.206-26.74,66.257-63.779c8.251-1.346,10.616-1.715,11.655-8.321
		C179.485,112.95,185.853,119.178,182.068,124.756z"/>
	<rect x="68.21" y="183.183" transform="matrix(0.4647 -0.8855 0.8855 0.4647 -124.318 162.7278)" width="8.424" height="1.992"/>
	<path d="M151.807,166.19c-0.375,0.045-0.787,0.163-1.228,0.347c0.466-0.701,0.694-1.354,0.686-1.959
		c-0.009-0.606-0.264-1.125-0.763-1.556c-0.395-0.339-0.83-0.517-1.307-0.538c-0.477-0.016-0.922,0.098-1.337,0.349
		c-0.418,0.253-0.977,0.786-1.68,1.603l-2.748,3.192l6.386,5.495l1.3-1.51l-2.667-2.295l0.27-0.313
		c0.301-0.35,0.544-0.583,0.729-0.698c0.184-0.116,0.401-0.192,0.649-0.225c0.249-0.034,0.795-0.031,1.637,0.007l2.336,0.095
		l1.562-1.816l-2.035-0.154C152.779,166.152,152.183,166.145,151.807,166.19z M149.469,165.949c-0.119,0.225-0.475,0.68-1.067,1.368
		l-0.969,1.126l-1.623-1.396l1.022-1.188c0.586-0.681,0.956-1.078,1.108-1.191c0.22-0.16,0.44-0.245,0.665-0.256
		c0.224-0.011,0.438,0.072,0.641,0.247c0.213,0.183,0.334,0.388,0.36,0.614C149.634,165.502,149.588,165.727,149.469,165.949z"/>
	<path d="M36.011,144.994l-1.741-3.954l-1.303,0.574l0.925,2.101l-0.973,0.428c-0.334-0.213-0.644-0.484-0.931-0.819
		c-0.285-0.332-0.508-0.677-0.666-1.034c-0.335-0.763-0.395-1.462-0.174-2.092c0.252-0.734,0.84-1.307,1.769-1.715
		c0.863-0.381,1.612-0.422,2.246-0.125c0.635,0.297,1.122,0.836,1.466,1.617c0.223,0.504,0.307,0.983,0.257,1.438
		c-0.053,0.456-0.247,0.837-0.583,1.147l1.086,1.681c0.663-0.514,1.044-1.183,1.142-2.003c0.099-0.821-0.09-1.771-0.566-2.852
		c-0.396-0.902-0.886-1.609-1.468-2.124c-0.583-0.516-1.265-0.843-2.045-0.98c-0.779-0.14-1.597-0.023-2.443,0.35
		c-0.827,0.364-1.459,0.882-1.894,1.55c-0.437,0.669-0.656,1.414-0.662,2.234c-0.006,0.817,0.189,1.675,0.584,2.57
		c0.323,0.734,0.762,1.415,1.318,2.042c0.557,0.625,1.084,1.065,1.586,1.319L36.011,144.994z"/>
	<polygon points="138.763,171.73 140.786,174.36 137.669,176.758 135.646,174.129 134.067,175.344 139.204,182.021 140.783,180.806 
		138.537,177.887 141.654,175.488 143.9,178.407 145.479,177.192 140.342,170.516 	"/>
	<path d="M126.336,181.16c-0.525-0.229-1.081-0.28-1.67-0.154c-0.368,0.08-1.1,0.368-2.189,0.865l-2.926,1.335l3.496,7.665
		l1.813-0.826l-1.318-2.892l1.194-0.545c1.102-0.502,1.842-0.933,2.224-1.29c0.381-0.356,0.638-0.791,0.766-1.303
		c0.129-0.51,0.067-1.045-0.185-1.598C127.262,181.807,126.859,181.387,126.336,181.16z M125.732,184.035
		c-0.076,0.244-0.222,0.455-0.436,0.631c-0.213,0.178-0.66,0.423-1.336,0.73l-1.011,0.462l-0.997-2.184l0.889-0.405
		c0.766-0.35,1.278-0.547,1.54-0.595c0.263-0.049,0.517-0.022,0.757,0.079c0.242,0.102,0.419,0.281,0.536,0.536
		C125.789,183.541,125.81,183.789,125.732,184.035z"/>
	<polygon points="115.701,191.652 115.021,189.46 119.778,187.985 119.356,186.626 114.601,188.101 114.05,186.325 119.161,184.74 
		118.739,183.381 111.726,185.555 114.221,193.602 121.411,191.372 120.989,190.012 	"/>
	<polygon points="163.36,136.568 166.392,137.916 164.795,141.51 161.763,140.163 160.953,141.982 168.651,145.404 169.461,143.585 
		166.096,142.089 167.693,138.495 171.059,139.99 171.868,138.17 164.169,134.748 	"/>
	<path d="M151.549,157.842l4.557,8.065l1.249-1.722l-1.063-1.782l2.34-3.224l2.04,0.434l1.272-1.754l-9.144-1.744L151.549,157.842z
		 M157.097,158.871l-1.597,2.199l-1.742-2.926L157.097,158.871z"/>
	
		<rect x="159.357" y="145.225" transform="matrix(-0.9031 -0.4295 0.4295 -0.9031 248.4908 348.5192)" width="8.425" height="1.993"/>
	<path d="M161.349,152.429c0.614-1.042,0.975-1.819,1.083-2.331c0.107-0.511,0.069-1.014-0.118-1.506
		c-0.188-0.493-0.545-0.896-1.068-1.205c-0.578-0.34-1.148-0.455-1.707-0.34c-0.562,0.113-1.047,0.389-1.457,0.83
		c-0.256,0.277-0.69,0.932-1.299,1.965l-1.633,2.77l7.258,4.278l1.012-1.716l-2.737-1.613L161.349,152.429z M159.455,152.838
		l-2.067-1.219l0.495-0.842c0.427-0.725,0.734-1.18,0.922-1.369c0.187-0.191,0.41-0.314,0.666-0.369
		c0.255-0.055,0.504-0.01,0.745,0.133c0.238,0.14,0.396,0.331,0.475,0.576c0.077,0.244,0.079,0.5,0.006,0.768
		s-0.3,0.725-0.677,1.365L159.455,152.838z"/>
	<polygon points="132.39,184.699 131.224,182.724 135.513,180.192 134.789,178.967 130.501,181.496 129.556,179.896 
		134.164,177.176 133.44,175.95 127.117,179.682 131.398,186.938 137.882,183.111 137.158,181.885 	"/>
	<polygon points="47.813,157.035 42.085,158.902 45.75,154.111 44.028,151.673 37.146,156.531 38.217,158.049 43.645,154.217 
		39.356,159.662 40.458,161.223 47.022,159.002 41.595,162.834 42.666,164.352 49.549,159.492 	"/>
	<polygon points="60.662,171.328 58.379,173.734 55.525,171.025 57.811,168.62 56.365,167.248 50.565,173.359 52.01,174.73 
		54.546,172.059 57.398,174.767 54.862,177.438 56.308,178.809 62.107,172.699 	"/>
	<path d="M52.042,162.498l-8.86,2.703l1.411,1.592l1.97-0.65l2.641,2.981l-0.865,1.898l1.437,1.621l3.682-8.549L52.042,162.498z
		 M49.837,167.691l-1.803-2.033l3.233-1.068L49.837,167.691z"/>
	<path d="M110.543,191.275c-0.302-0.228-0.68-0.429-1.125-0.602c0.822-0.182,1.44-0.494,1.854-0.936
		c0.413-0.443,0.591-0.993,0.528-1.649c-0.048-0.518-0.238-0.948-0.567-1.294c-0.332-0.344-0.731-0.569-1.205-0.678
		c-0.477-0.105-1.248-0.11-2.321-0.01l-4.193,0.395l0.788,8.388l1.983-0.187l-0.329-3.504l0.412-0.038
		c0.459-0.042,0.795-0.042,1.009,0.003c0.213,0.043,0.423,0.139,0.623,0.287c0.203,0.148,0.595,0.529,1.175,1.141l1.617,1.688
		l2.384-0.224l-1.358-1.522C111.271,191.922,110.847,191.503,110.543,191.275z M109.026,189.479
		c-0.242,0.08-0.813,0.161-1.718,0.247l-1.479,0.139l-0.2-2.133l1.561-0.146c0.894-0.084,1.436-0.113,1.625-0.09
		c0.27,0.038,0.487,0.13,0.656,0.277c0.169,0.148,0.265,0.355,0.29,0.623c0.026,0.279-0.028,0.512-0.167,0.693
		C109.456,189.271,109.268,189.402,109.026,189.479z"/>
	<polygon points="34.962,149.534 36.996,148.471 39.303,152.883 40.564,152.225 38.257,147.811 39.905,146.949 42.384,151.691 
		43.646,151.033 40.244,144.525 32.777,148.428 36.266,155.1 37.527,154.439 	"/>
	<polygon points="96.915,189.891 93.003,189.485 93.345,186.185 91.363,185.979 90.495,194.359 92.477,194.564 92.856,190.901 
		96.769,191.307 96.389,194.971 98.37,195.175 99.238,186.795 97.257,186.59 	"/>
	<path d="M69.652,182.412c0.595-0.116,1.061-0.457,1.396-1.025c0.265-0.447,0.363-0.908,0.299-1.381
		c-0.067-0.473-0.259-0.891-0.579-1.255c-0.323-0.366-0.945-0.822-1.873-1.37l-3.628-2.141l-4.281,7.256l1.715,1.012l1.788-3.029
		l0.356,0.21c0.397,0.235,0.67,0.432,0.816,0.593c0.147,0.16,0.261,0.361,0.336,0.6c0.077,0.239,0.172,0.777,0.283,1.613
		l0.319,2.314l2.062,1.217l-0.207-2.029c-0.084-0.815-0.182-1.403-0.294-1.766c-0.11-0.361-0.299-0.746-0.559-1.147
		C68.374,182.419,69.058,182.527,69.652,182.412z M68.674,180.904c-0.219,0.065-0.447,0.061-0.688-0.018
		c-0.242-0.078-0.753-0.346-1.535-0.809l-1.28-0.755l1.089-1.845l1.35,0.797c0.772,0.456,1.229,0.75,1.369,0.881
		c0.195,0.188,0.318,0.391,0.368,0.609c0.051,0.218,0.007,0.442-0.13,0.674C69.073,180.682,68.893,180.837,68.674,180.904z"/>
	<path d="M85.355,184.674l-5.617,7.366l2.074,0.47l1.22-1.678l3.885,0.879l0.405,2.047l2.112,0.479l-1.999-9.092L85.355,184.674z
		 M83.944,189.578l2.003-2.753l0.648,3.354L83.944,189.578z"/>
	<path d="M82.183,186.483c0.232-0.63,0.243-1.21,0.031-1.74c-0.212-0.532-0.569-0.961-1.075-1.286
		c-0.318-0.203-1.04-0.514-2.165-0.93l-3.016-1.114l-2.92,7.902l1.868,0.69l1.101-2.98l1.233,0.456
		c1.135,0.419,1.963,0.636,2.485,0.651c0.522,0.015,1.01-0.112,1.462-0.385C81.639,187.477,81.972,187.054,82.183,186.483z
		 M80.244,185.788c-0.096,0.259-0.256,0.449-0.483,0.569c-0.228,0.119-0.479,0.166-0.755,0.143
		c-0.275-0.025-0.766-0.167-1.463-0.424l-1.042-0.386l0.832-2.251l0.916,0.338c0.789,0.292,1.292,0.513,1.512,0.663
		c0.221,0.15,0.382,0.349,0.481,0.591C80.342,185.271,80.341,185.525,80.244,185.788z"/>
</g>
</svg>
