<?xml version="1.0" encoding="utf-8"?>
<!-- Generator: Adobe Illustrator 16.0.2, SVG Export Plug-In . SVG Version: 6.00 Build 0)  -->
<!DOCTYPE svg PUBLIC "-//W3C//DTD SVG 1.1//EN" "http://www.w3.org/Graphics/SVG/1.1/DTD/svg11.dtd">
<svg version="1.1" id="Layer_1" xmlns="http://www.w3.org/2000/svg" xmlns:xlink="http://www.w3.org/1999/xlink" x="0px" y="0px"
	 width="200px" height="200px" viewBox="0 0 200 200" enable-background="new 0 0 200 200" xml:space="preserve">
<g>
	<path fill-rule="evenodd" clip-rule="evenodd" d="M21.926,113.557c9.433-0.674,18.878-1.186,28.317-1.771
		c2.953-0.184,5.904-0.41,8.825-0.617c0.054-0.488,0.121-0.697,0.092-0.891c-0.656-4.367-1.306-8.736-1.966-13.104
		c0.983,5.807,2.363,11.569,3.355,17.545c27.279-2.273,54.458-2.238,81.661-0.02c0.206-1.189,0.281-1.879,0.448-2.545
		c0.482-1.922,1.002-3.836,1.507-5.754c-0.213,1.545-0.426,3.092-0.646,4.699c0.878,0.117,1.494,0.236,2.114,0.273
		c12.009,0.73,24.021,1.408,36.024,2.211c2.271,0.152,3.748-0.83,5.268-2.4c-10.275-7.389-20.411-14.678-30.767-22.125
		c2.208-1.817,4.205-3.461,6.433-5.294c-4.502-3.133-8.729-6.073-13.381-9.309c1.077-0.596,1.797-0.994,2.541-1.404
		c-0.562-0.649-0.701-0.905-0.917-1.048c-3.996-2.649-7.99-5.303-12.012-7.912c-1.092-0.709-2.008-1.396-3.678-1.26
		c-1.143,0.092-1.918,0.784-2.894,0.804c-3.354,0.068-6.71,0.026-10.065,0.026c-0.041-0.199-0.082-0.398-0.123-0.598
		c2.11-1.657,4.193-3.35,6.341-4.956c1.138-0.852,1.107-1.445-0.133-2.105c-6.009-3.196-11.927-6.579-18.045-9.549
		c-2.904-1.41-5.177-4.404-9.173-3.663c-0.837,0.155-1.975,0.01-2.866,0.485c-7.966,4.247-15.919,8.52-23.858,12.816
		c-0.412,0.223-0.671,0.727-1.057,1.163c2.623,2.057,5.037,3.949,7.451,5.843c-0.071,0.186-0.143,0.371-0.215,0.557
		c-3.247,0-6.495,0.015-9.741-0.019c-0.386-0.005-0.769-0.269-1.154-0.412c-1.6-0.596-3.193-0.826-4.717,0.197
		c-3.809,2.559-7.586,5.165-11.42,7.685c-2.428,1.597-2.464,1.543-0.374,3.638c-4.286,2.995-8.549,5.976-13.001,9.087
		c2.347,1.88,4.329,3.467,6.508,5.212c-10.452,7.519-20.622,14.834-30.807,22.163C17.575,113.164,19.514,113.729,21.926,113.557z
		 M77.131,99.27c-0.22-2.348-0.237-4.714-0.41-7.067c-0.114-1.541,0.609-1.8,2.153-1.391c0.13,2.864,0.307,5.629,0.33,8.396
		c0.004,0.468-0.652,0.941-1.002,1.412C77.83,100.172,77.176,99.75,77.131,99.27z M124,111c-15,0-30,0-46,0c0-2,0-4.896,0-7.863
		c16-1.25,31-1.184,46-0.014C124,106.01,124,109,124,111z M80.917,90.803c1.391-0.49,2.056-0.092,2.049,1.48
		c-0.01,2.224,0.165,4.45,0.111,6.672c-0.014,0.562-0.595,1.109-0.915,1.663c-0.416-0.567-1.16-1.119-1.188-1.705
		C80.844,96.283,80.917,93.643,80.917,90.803z M85.058,91c0.503,0,1.032,0,1.537,0c0.11,0,0.257,0.107,0.262,0.219
		c0.141,2.768,0.309,5.467,0.346,8.238c0.006,0.398-0.631,0.771-0.971,1.175c-0.392-0.44-1.104-0.748-1.122-1.202
		C85.005,96.669,85.058,94,85.058,91z M91.371,90.896c0,2.765,0.048,5.531-0.046,8.293c-0.016,0.487-0.63,0.953-0.968,1.429
		c-0.388-0.439-1.071-0.853-1.115-1.324c-0.218-2.351-0.213-4.721-0.395-7.076C88.729,90.688,89.384,90.374,91.371,90.896z
		 M93.063,90.772c1.194-0.328,2.011-0.227,2.004,1.222c-0.013,2.762-0.003,5.524-0.003,8.406c-1.252,0.477-2.019,0.22-2.006-1.392
		C93.078,96.317,93.063,93.625,93.063,90.772z M97,100.599C97,97.268,97,94,97,91c3,0,5.925,0,9.25,0c0,3,0.035,5.805-0.049,8.752
		c-0.009,0.33-0.457,0.851-0.835,0.861C102.603,100.692,100,100.599,97,100.599z M107.766,91.716
		c0.015-0.38,0.863-0.729,1.326-1.093c0.271,0.454,0.771,0.906,0.773,1.361c0.011,2.355-0.077,4.714-0.188,7.069
		c-0.071,1.502-0.116,1.5-1.973,1.333C107.704,97.498,107.653,94.604,107.766,91.716z M113.476,99.537
		c-0.065,0.468-0.777,0.749-1.194,1.167c-0.31-0.432-0.889-0.917-0.885-1.347c0.025-2.563,0.137-5.153,0.352-7.707
		c0.031-0.367,0.738-0.842,1.204-0.95c0.223-0.051,0.853,0.795,0.885,1.168C113.948,93.175,113.88,95,113.88,96
		c-0.115,0-0.231,0-0.347,0C113.533,97,113.646,98.314,113.476,99.537z M116,100.469c0-3.241,0-6.399,0-9.523
		c2-0.66,2.257-0.281,2.116,1.452c-0.181,2.212-0.196,4.436-0.219,6.654C117.883,100.558,117,100.792,116,100.469z M119.887,91.789
		c0.016-0.405,0.813-0.779,1.249-1.168c0.303,0.428,0.862,0.854,0.864,1.283c0.012,2.359-0.098,4.72-0.198,7.077
		c-0.064,1.522-0.09,1.521-1.974,1.467C119.828,97.456,119.776,94.62,119.887,91.789z M126.008,92.176
		c-0.162,2.355-0.184,4.722-0.402,7.071c-0.045,0.486-0.694,0.916-1.064,1.372c-0.357-0.469-1.026-0.94-1.021-1.403
		c0.037-2.769,0.229-5.534,0.376-8.415C125.387,90.38,126.113,90.643,126.008,92.176z M121,57c2,0,3.886,0,6.768,0
		C125.17,59,123,60.318,121,62.275C121,60.14,121,59,121,57z M149.18,72c0.039,0,0.077,0.461,0.115,0.619
		c-0.581,0.424-1.161,0.917-1.406,1.095c-1.139-0.376-1.777-0.732-2.419-0.736c-7.074-0.044-14.149-0.01-21.369-0.01
		c-0.093,0.724-0.194,1.389-0.322,2.389C122.244,74.286,120.827,74,119.16,72C129.435,72,139.308,72,149.18,72z M123.267,79.89
		c0.047,0.596-0.267,1.198-0.267,1.795c0-1.516,0-2.685,0-4.685c1,0,1.755,0,2.559,0c6.676,0,13.352-0.061,20.027-0.07
		c2.511-0.006,2.522-0.037,1.62,1.929c-0.625-0.211-1.166-0.564-1.709-0.567c-6.814-0.038-13.661-0.012-20.476-0.057
		C123.779,78.227,123.167,78.612,123.267,79.89z M114.89,64C106.002,64,97,64,88,64c0,0,0,0,0-1c9,0,18,0,26.887,0
		C114.888,64,114.889,64,114.89,64z M75.004,57C88.345,57,101,57,114,57c0,0,0-0.338,0-0.317c-9,0-18.59,0.01-27.898-0.004
		c-4.484-0.007-3.577,0.015-3.667,3.486c-0.014,0.529,0.004,1.249,0.004,2.403C79.745,60.482,77.578,59,75.004,57z M53.554,72
		c9.859,0,19.718,0,29.553,0c-1.104,2-2.841,2.268-3.441,3.752c-0.62,1.539-0.138,3.593-0.138,5.382
		c-0.046-0.071-0.092,0.198-0.138,0.126C79.338,80.438,79.285,79,79.224,79c-7.822,0-15.506,0-23.321,0
		c-0.088,0-0.175,1.049-0.255,1.662c-0.098-0.611-0.226-1.27-0.309-1.952C55.265,78.109,55.24,77,55.199,77
		c8.16,0,16.007,0,24.034,0c-0.202-1-0.4-2.572-0.613-3.85c-2.273,0-4.539-0.088-6.804-0.084c-4.729,0.009-9.458-0.051-14.186,0.016
		c-0.752,0.011-1.499,0.382-2.741,0.739c-0.194-0.133-0.836-0.726-1.479-1.165C53.458,72.49,53.506,72,53.554,72z M42.065,84
		c39.742,0,78.895,0,118.576,0c-2.233,1-4,2.912-5.846,4.404c-2.061-1.409-4.11-2.97-6.662-4.716
		c-0.363,1.295-0.738,2.162-0.884,3.144c-0.607,4.103-1.145,8.25-1.708,12.359c0.45-4.725,0.899-9.19,1.354-14.19
		c-30.542,0-60.656,0-90.912,0c0.019,3,0.27,5.727,0.651,8.58c-0.412-2.695-0.827-5.427-1.253-8.121
		c-0.185-1.173-0.932-1.873-2.226-0.948c-1.746,1.249-3.531,2.753-5.21,3.91C46.026,86.876,44.242,85,42.065,84z"/>
	<path fill-rule="evenodd" clip-rule="evenodd" d="M182.052,120.287c-1.125-2.621-2.932-3.678-5.85-3.67
		c-24.904,0.082-49.81,0.047-74.715,0.049c-24.835,0.002-49.67,0-74.506,0.008c-0.9,0-1.818,0.004-2.696,0.17
		c-2.245,0.422-3.808,2.035-3.83,4.303c-0.073,7.582-0.084,15.166,0.017,22.748c0.037,2.73,1.485,3.939,4.29,4.004
		c2.225,0.049,4.452,0.016,6.678,0.016c4.759,0.002,5.688,0.92,5.799,5.734c0.098,4.184,0.914,5.16,5.042,5.188
		c0.348,0.002,0.696,0.164,1.043,0.164c41.601,0,83.202,0,124.802,0c5.706,0,5.706-0.164,5.735-5.941
		c0.019-3.711,1.271-5.039,5.058-5.061c3.199-0.018,6.402,0.047,9.598-0.066c3.55-0.127,4.669-1.835,3.289-5.089
		C188.612,135.306,185.28,127.809,182.052,120.287z M118.904,122.752c0.024-2.42,0.919-3.273,3.324-3.303
		c4.312-0.053,8.624-0.031,12.937-0.008c1.353,0.006,2.569,0.354,2.576,2.039c0.008,1.707-1.27,2.244-2.583,2.271
		c-2.851,0.059-5.702,0.248-8.554,0.248c-0.747,0-1.604,0-2.604,0c0,2,0,3,0,6c3,0,5.533,0,8.146,0c0.695,0,1.391-0.291,2.087-0.279
		c1.385,0.025,2.599,0.279,2.565,1.914c-0.031,1.523-1.204,1.793-2.505,1.795c-2.781,0.002-5.566,0.038-8.345-0.062
		c-1.488-0.055-1.969,0.321-1.881,1.757c0.097,1.584,0.022,2.875,0.022,4.875c0.965,0,1.7,0,2.437,0
		c3.061,0,6.121,0.115,9.181,0.168c1.376,0.023,2.503,0.607,2.442,2.266c-0.055,1.539-1.163,2.012-2.438,2.021
		c-4.59,0.033-9.181,0.077-13.771,0.003c-2.115-0.033-3.018-0.96-3.037-3.146C118.848,135.123,118.845,128.941,118.904,122.752z
		 M37.204,144.309c-3.427,0.41-6.933,0.201-10.404,0.166c-1.826-0.02-2.806-1.041-2.807-2.906
		c-0.002-6.391,0.004-12.781-0.001-19.174c-0.002-1.744,0.84-2.867,2.574-2.902c3.608-0.07,7.227-0.094,10.828,0.102
		c2.857,0.152,5.088,1.58,5.91,4.455c0.84,2.939-0.173,5.318-2.986,7.061c4.738,3.037,5.925,7.574,2.609,10.754
		C41.51,143.223,39.205,144.07,37.204,144.309z M46.97,150.457c-0.106,0.725-0.869,1.555-1.564,1.938
		c-0.743,0.41-1.743,0.35-2.177,0.42c-0.716,1.303-1.187,2.16-1.657,3.018c-0.27-0.973-0.614-1.934-0.783-2.926
		c-0.126-0.742-0.106-1.533-0.004-2.283c0.131-0.965,0.312-2.691,0.638-2.732c1.522-0.189,3.153-0.096,4.633,0.309
		C46.562,148.338,47.077,149.729,46.97,150.457z M54.782,155.707c-0.479-0.137-1.075-0.145-1.408-0.445
		c-0.446-0.4-0.625-1.086-1.035-1.543c-0.499-0.557-1.121-1.002-1.689-1.496c-0.205,0.131-0.41,0.26-0.615,0.391
		c0,0.756,0.094,1.531-0.04,2.264c-0.066,0.359-0.555,0.643-0.852,0.959c-0.28-0.332-0.789-0.654-0.802-0.996
		c-0.078-2.014-0.044-4.029-0.036-6.045c0.001-0.201,0.059-0.566,0.134-0.578c1.39-0.217,2.812-0.631,4.171-0.482
		c0.83,0.09,2.027,0.941,2.217,1.67c0.211,0.814-0.533,1.875-0.86,2.83c-0.171-0.025-0.343-0.053-0.514-0.078
		c0.461,0.742,0.991,1.453,1.353,2.242C54.969,154.756,54.8,155.266,54.782,155.707z M59.983,155.91
		c-2.502-0.031-3.955-1.646-3.914-4.352c0.039-2.494,1.619-4.129,3.991-4.127c2.407,0.002,4.104,1.797,4.071,4.305
		C64.097,154.316,62.482,155.941,59.983,155.91z M62.941,140.006c-0.362-1.15-0.991-1.477-2.125-1.441
		c-2.291,0.07-4.589,0.109-6.875-0.014c-1.323-0.072-1.841,0.518-2.211,1.631c-0.393,1.182-0.71,2.498-1.476,3.406
		c-0.565,0.67-2.071,1.311-2.664,1.006c-0.806-0.416-1.649-1.795-1.565-2.674c0.148-1.535,0.963-3.014,1.546-4.498
		c2.002-5.098,4.031-10.186,6.037-15.283c0.647-1.641,1.563-2.973,3.515-3.096c1.629-0.104,2.918,0.615,3.525,2.088
		c2.774,6.729,5.469,13.49,8.182,20.244c0.127,0.316,0.155,0.674,0.335,1.5c-0.494,0.5-1.08,1.576-1.881,1.77
		c-0.786,0.191-2.12-0.252-2.624-0.885C63.827,142.709,63.355,141.32,62.941,140.006z M71.449,149.188
		c-0.612,1.904-1.313,3.785-2.107,5.621c-0.199,0.459-0.843,0.934-1.33,0.99c-0.35,0.041-0.964-0.523-1.141-0.951
		c-0.794-1.912-1.52-3.857-2.157-5.826c-0.127-0.395,0.241-0.951,0.381-1.432c0.429,0.328,1.065,0.568,1.249,1.002
		c0.641,1.512,1.125,3.09,1.8,5.016c0.673-1.906,1.158-3.467,1.793-4.965c0.188-0.443,0.799-0.705,1.216-1.051
		C71.264,148.127,71.595,148.734,71.449,149.188z M74.613,154.734c-0.053,0.398-0.603,0.734-0.926,1.098
		c-0.255-0.354-0.719-0.703-0.731-1.064c-0.067-2.07-0.064-4.145,0.016-6.213c0.013-0.342,0.521-0.664,0.8-0.994
		c0.294,0.322,0.802,0.619,0.841,0.969c0.114,1.023,0.041,2.066,0.041,3.104C74.657,152.668,74.747,153.715,74.613,154.734z
		 M83.306,154.252c-0.028,0.535-0.465,1.049-0.714,1.572c-0.557-0.318-1.273-0.514-1.64-0.982c-0.917-1.168-1.675-2.461-2.498-3.705
		c-0.138,0.031-0.276,0.064-0.415,0.096c0,1.146,0.076,2.301-0.041,3.434c-0.042,0.408-0.548,0.768-0.842,1.15
		c-0.264-0.354-0.744-0.697-0.757-1.061c-0.075-2.012-0.077-4.029-0.001-6.041c0.015-0.393,0.465-1.07,0.741-1.084
		c0.438-0.021,1.047,0.293,1.322,0.662c0.989,1.326,1.869,2.734,3.19,4.08c0-1.127-0.082-2.264,0.037-3.377
		c0.054-0.496,0.514-0.947,0.79-1.42c0.287,0.49,0.792,0.965,0.822,1.469C83.403,150.775,83.398,152.52,83.306,154.252z
		 M91.091,153.439c-0.13,0.861-1.103,1.955-1.959,2.266c-1.527,0.553-3.221,0.42-4.159-1.293c-0.198-0.361,0.062-0.975,0.111-1.471
		c0.394,0.158,0.829,0.256,1.171,0.488c0.432,0.295,0.771,0.965,1.181,0.992c0.585,0.037,1.199-0.363,1.8-0.576
		c-0.361-0.467-0.646-1.039-1.105-1.369c-0.425-0.305-1.048-0.318-1.564-0.512c-1.253-0.471-2.014-1.328-1.607-2.711
		c0.45-1.531,1.777-1.881,3.15-1.795c1.278,0.08,2.506,0.48,2.696,2.047c0.031,0.256-0.307,0.555-0.487,0.854
		c-1.294-0.289-2.178-3.008-3.993-0.375c1.167,0.418,2.303,0.6,3.153,1.193C90.228,151.699,91.194,152.764,91.091,153.439z
		 M86.967,134.055c-1.567,0.482-3.26,0.607-4.908,0.756c-1.294,0.117-2.607,0.023-4.271,0.023c0,2.434,0.05,4.512-0.013,6.584
		c-0.071,2.342-1.071,3.645-2.687,3.475c-2.035-0.211-2.528-1.711-2.533-3.449c-0.018-6.18-0.035-12.361,0.009-18.543
		c0.018-2.49,0.952-3.455,3.41-3.443c3.326,0.016,6.675-0.021,9.969,0.357c3.474,0.4,5.525,2.99,5.781,6.592
		C91.989,130.123,90.275,133.039,86.967,134.055z M94.248,154.707c-0.057,0.406-0.576,0.75-0.886,1.123
		c-0.271-0.34-0.766-0.672-0.778-1.021c-0.075-2.07-0.075-4.146-0.001-6.217c0.012-0.352,0.508-0.686,0.78-1.025
		c0.31,0.377,0.834,0.727,0.886,1.137c0.129,1.021,0.042,2.068,0.042,3.105C94.29,152.777,94.38,153.758,94.248,154.707z
		 M95.8,141.572c-0.03-6.256,0.008-12.51-0.019-18.766c-0.008-1.854,0.633-3.275,2.625-3.299c3.534-0.043,7.094-0.074,10.598,0.305
		c3.543,0.385,5.543,2.832,5.791,6.297c0.299,4.176-1.261,6.936-4.795,7.98c-1.639,0.484-3.407,0.572-5.126,0.723
		c-1.222,0.107-2.461,0.021-3.915,0.021c0,2.389,0.028,4.525-0.008,6.66c-0.036,2.141-1.004,3.389-2.565,3.418
		C96.784,144.943,95.811,143.764,95.8,141.572z M103.426,153.988c-0.124,0.711-1.158,1.639-1.901,1.77
		c-0.865,0.15-2.07,0.004-2.736-0.588c-0.483-0.428-0.329-2.17-0.459-2.17c0.215,0,0.431,0,0.647,0c0.716,0,1.432,1.008,2.148,1.627
		c0.229-1.088,0.518-2.283,0.668-3.383c0.112-0.816-0.062-1.736,0.102-2.535c0.087-0.424,0.621-0.784,0.953-1.159
		c0.257,0.367,0.727,0.714,0.735,1.087C103.627,150.428,103.729,152.24,103.426,153.988z M111.49,155.797
		c-0.383-0.199-0.89-0.303-1.126-0.613c-1.378-1.803-2.902-1.816-4.219-0.033c-0.267,0.361-0.768,0.549-1.673,1.164
		c0.411-3.492,1.667-5.998,3.002-8.445c0.095-0.174,1.607,0.01,1.776,0.359c0.992,2.055,1.814,4.195,2.604,6.34
		C111.974,154.891,111.623,155.383,111.49,155.797z M122.626,148.951c-0.404,1.969-0.903,3.92-1.477,5.846
		c-0.126,0.426-0.819,1.078-1.022,1.004c-0.49-0.182-1.037-0.658-1.215-1.143c-0.466-1.266-0.745-2.6-1.268-4.527
		c-0.533,1.816-0.818,3.074-1.286,4.262c-0.223,0.564-0.793,0.99-1.206,1.479c-0.423-0.465-1.055-0.863-1.229-1.408
		c-0.528-1.648-0.927-3.346-1.274-5.045c-0.121-0.596,0.049-1.252,0.086-1.881c0.289-0.057,0.578-0.115,0.866-0.172
		c0.543,1.648,1.087,3.297,1.706,5.178c0.402-1.447,0.662-2.715,1.129-3.9c0.188-0.477,0.789-0.973,1.282-1.076
		c0.274-0.057,0.881,0.615,1.046,1.066c0.444,1.217,0.731,2.488,1.225,4.25c0.409-1.773,0.636-3.07,1.034-4.311
		c0.133-0.414,0.704-0.686,1.075-1.023C122.288,148.02,122.712,148.537,122.626,148.951z M130.04,155.961
		c-0.352-0.268-0.793-0.471-1.04-0.813c-1.26-1.75-2.951-1.787-4.133-0.115c-0.251,0.355-0.809,0.492-1.226,0.73
		c-0.089-0.492-0.378-1.055-0.233-1.465c0.689-1.959,1.405-3.92,2.325-5.775c0.226-0.455,1.762-0.826,1.838-0.705
		c1.506,2.428,2.63,5.02,3.16,7.807C130.501,155.736,130.271,155.85,130.04,155.961z M141.158,154.318
		c-0.424,0.758-1.737,1.023-2.671,1.488c-0.111,0.057-0.102,0.008-0.24,0.012c-3.416,0.059-3.247,0.059-3.247-3.307
		c0-0.486,0-0.971,0-1.455c0-3.633-0.059-3.736,3.539-3.473c2.639,0.191,3.22,1.457,2.294,3.209
		C141.066,152.383,141.549,153.619,141.158,154.318z M148.836,155.799c-0.353-0.135-0.815-0.17-1.041-0.42
		c-1.888-2.078-2.685-2.098-4.42-0.057c-0.206,0.242-0.501,0.41-1.082,0.873c-0.188-0.721-0.517-1.242-0.387-1.598
		c0.776-2.139,1.562-4.283,2.542-6.332c0.57-1.189,1.677-1.111,2.223,0.016c0.991,2.043,1.784,4.186,2.572,6.318
		C149.356,154.908,148.983,155.395,148.836,155.799z M145.243,144.486c-2.223-0.051-3.015-0.865-3.06-3.08
		c-0.064-3.127-0.017-6.406-0.017-9.406c-0.004,0-0.007,0-0.011,0c0-3,0.006-6.375-0.002-9.574
		c-0.004-1.852,0.919-2.945,2.746-2.959c3.262-0.025,6.538-0.045,9.782,0.23c4.223,0.357,6.765,3.022,8.044,6.872
		c1.167,3.516,1.138,7.12,0.058,10.675c-1.334,4.389-4.573,6.918-9.41,7.197C150.672,144.598,147.952,144.549,145.243,144.486z
		 M156.934,155.73c-0.476-0.145-1.079-0.156-1.397-0.465c-0.481-0.467-0.695-1.201-1.15-1.707c-0.454-0.504-1.064-0.869-1.965-1.576
		c-0.088,1.328-0.052,2.143-0.231,2.906c-0.086,0.363-0.583,0.631-0.895,0.939c-0.267-0.33-0.751-0.654-0.764-0.994
		c-0.075-2.002-0.049-4.008-0.033-6.012c0.003-0.264,0.114-0.742,0.217-0.754c1.472-0.168,2.979-0.492,4.416-0.301
		c0.729,0.096,1.813,1.1,1.876,1.775c0.085,0.895-0.67,1.869-1.165,3.053c0.287,0.449,0.802,1.109,1.14,1.85
		C157.141,154.795,156.96,155.297,156.934,155.73z M165.15,155.744c-0.459-0.275-1.061-0.451-1.353-0.85
		c-1.05-1.439-2.949-1.441-3.985-0.012c-0.296,0.41-0.909,0.588-1.377,0.871c-0.064-0.504-0.314-1.076-0.162-1.504
		c0.679-1.893,1.439-3.76,2.246-5.602c0.222-0.508,0.709-0.898,1.614-1.998c0.42,0.836,0.702,1.318,0.912,1.83
		c0.789,1.926,1.596,3.848,2.299,5.805C165.491,154.697,165.227,155.256,165.15,155.744z M169.327,152.904
		c-0.12,0.988-0.549,1.941-0.842,2.91c-0.315-0.992-0.771-1.963-0.911-2.977c-0.159-1.148-0.036-2.334-0.036-3.451
		c-0.987-0.256-1.796-0.465-2.792-0.723c1.497-1.352,5.354-1.469,7.471-0.203c-1.024,0.361-1.776,0.627-2.854,1.006
		C169.362,150.451,169.475,151.693,169.327,152.904z M186.047,144.672c-0.749,0.209-1.945-0.367-2.621-0.963
		c-0.616-0.543-0.971-1.545-1.14-2.404c-0.473-2.393-1.885-3.016-4.158-2.76c-1.783,0.201-3.611,0.111-5.412,0.016
		c-1.183-0.061-1.744,0.387-2.086,1.49c-0.366,1.188-0.728,2.479-1.481,3.406c-0.569,0.701-2.007,1.461-2.604,1.189
		c-0.821-0.371-1.352-1.637-1.732-2.625c-0.178-0.463,0.24-1.189,0.467-1.768c2.329-5.936,4.616-11.891,7.066-17.779
		c0.497-1.193,1.439-2.414,2.51-3.105c1.489-0.965,3.696-0.268,4.435,1.469c2.922,6.883,5.661,13.84,8.46,20.773
		c0.075,0.188,0.052,0.412,0.075,0.619c0.121,0.119,0.242,0.236,0.364,0.354C187.485,143.318,186.889,144.439,186.047,144.672z"/>
	<path fill-rule="evenodd" clip-rule="evenodd" d="M39,169.535c22,0,44.081,0.035,66.024-0.008
		c21.938-0.043,43.976,0.201,65.976-0.172c0-1.375,0-2.355,0-3.355c-2,0-3.266,0-4.777,0c1.803,0,1.807-1,1.358-3
		c-43.965,0-87.951,0-132.307,0c0.211,1,0.205,2.188,0.378,3.209C34.828,166.254,34,166.17,32,166.244c0,1.061,0,1.756,0,2.756
		c2,0,3.485,0,4.958,0c-0.001,1-0.001,1-0.002,1c-2.671,0-4.957,0-7.957,0c0,1,0,2,0,3c49,0,97,0,145,0c0-1,0-2,0-3
		c-45,0-90,0-135,0C39,170,39,169.59,39,169.535z"/>
	<path fill-rule="evenodd" clip-rule="evenodd" d="M195.093,61.059c-0.552-0.228-1.191-0.428-1.768-0.375
		c-2.149,0.196-3.887-0.519-5.523-1.9c-2.359-1.992-4.028-1.981-6.596-0.257c-3.362,2.257-6.721,4.519-10.081,6.777
		c-0.044,0.32-0.087,0.639-0.131,0.958c3.528,0.009,6.214,1.825,9.016,3.416c0.474,0.269,1.263-0.082,1.847,0.073
		c1.093,0.292,2.271,0.557,3.179,1.176c1.378,0.938,2.683,1.907,4.351,0.961c1.715-0.973,1.186-2.548,0.878-3.488
		c1.262-0.58,2.543-0.859,3.377-1.625c1.277-1.174,2.506-2.052,4.32-2.187c0.77-0.057,1.485-0.843,2.195-1.279
		C198.169,62.419,196.646,61.702,195.093,61.059z M189.164,66.157c-1.784,1.508-3.247,0.563-4.796,0.409
		c-1.343-0.133-2.462-1.279-1.934-2.629c0.318-0.813,1.673-1.382,2.676-1.695c0.457-0.143,1.236,0.543,1.765,0.979
		c0.127,0.105-0.16,0.713-0.257,1.09c-0.639-0.197-1.278-0.395-2.085-0.644c-0.793,0.897-0.485,1.898,0.741,1.793
		c1.822-0.156,3.594-0.902,5.459-1.418c-1.87-1.146-3.462-2.173-5.103-3.113c-1.847-1.058-3.281-0.294-4.598,1.107
		c-1.019,1.086-2.145,2.071-3.549,3.413c3.004,0.801,6.029,1.606,9.197,2.45c0.036,0.228,0.147,0.916,0.27,1.67
		c0.47-0.164,0.621-0.174,0.706-0.255c0.405-0.387,0.791-0.792,1.185-1.191c0.188,0.399,0.631,0.917,0.513,1.174
		c-0.244,0.527-0.722,1.044-1.235,1.315c-0.363,0.192-0.991,0.094-1.42-0.078c-3.166-1.271-6.302-2.619-9.471-3.884
		c-1.061-0.424-2.191-0.673-3.601-1.095c0.995-0.848,1.719-1.583,2.555-2.152c1.937-1.32,3.933-2.553,5.894-3.836
		c1.624-1.063,3.376-1.229,4.83,0.02c2.001,1.719,4.16,2.654,6.801,2.621c0.577-0.008,1.16,0.435,1.74,0.67
		c0.006,0.214,0.013,0.428,0.02,0.642C193.332,64.358,190.822,64.754,189.164,66.157z"/>
	<path fill-rule="evenodd" clip-rule="evenodd" d="M23.424,67.84c0.603-0.649,1.863-0.698,2.831-0.997
		c0.978-0.301,1.964-0.572,2.947-0.856c0.019-0.241,0.038-0.481,0.057-0.722c-3.636-2.426-7.188-4.998-10.96-7.188
		c-1.122-0.651-3.254-0.824-4.25-0.178c-2.49,1.615-4.794,3.271-7.965,2.814c-0.23-0.033-0.5,0.205-0.75,0.318
		c-1.588,0.721-3.177,1.442-5.177,2.351c0.78,0.417,1.564,0.854,2.364,1.261c1.37,0.699,2.749,1.379,4.123,2.069
		c1.068,0.537,2.133,1.08,2.976,1.508c0.458,1.157,0.617,2.859,1.546,3.611c1.437,1.164,2.908,0.067,4.236-1.001
		c0.748-0.602,1.863-1.058,2.804-1.042C20.259,69.823,21.943,69.438,23.424,67.84z M14.256,70.276
		c-0.857,0.262-1.873,0.212-2.757,0.02c-0.216-0.047-0.215-1.197-0.255-1.844c-0.007-0.105,0.297-0.229,0.432-0.326
		c0.182,0.05,0.345,0.049,0.438,0.128c0.406,0.345,0.792,0.714,1.186,1.074c0.17-0.271,0.548-0.665,0.474-0.789
		c-0.29-0.485-0.641-1.038-1.115-1.292c-2.552-1.364-5.148-2.646-7.772-4.495c0.865-0.216,1.727-0.598,2.595-0.614
		c2.042-0.04,3.742-0.693,5.307-2.028c2.134-1.821,3.697-1.81,6.016-0.228c2.608,1.778,5.208,3.569,8.186,5.611
		c-3.205,1.125-6,2.067-8.766,3.093C16.876,69.084,15.623,69.86,14.256,70.276z"/>
	<path fill-rule="evenodd" clip-rule="evenodd" d="M149.993,53.044c0.253,0.108,0.525,0.169,0.787,0.254
		c1.399,0.457,2.836,0.823,4.186,1.396c1.594,0.677,2.552,0.103,2.538-1.384c-0.69,0.175-1.561,0.709-2.183,0.5
		c-2.899-0.973-5.73-2.15-9.033-3.428c2.431-1.607,4.421-3.074,6.57-4.25c0.603-0.329,1.71,0.092,2.523,0.358
		c1.469,0.479,2.893,1.098,4.331,1.668c0.449,0.178,0.886,0.388,1.51,0.663c-5.168,2.748-5.866,3.067-7.477,2.589
		c1.361,1.24,4.189,1.3,5.828,0.237c1.183-0.766,2.516-1.297,3.757-1.978c0.352-0.192,0.618-0.541,0.876-0.775
		c-1.571-0.585-2.971-1.11-4.373-1.627c-1.383-0.511-2.739-1.146-4.166-1.477c-1.186-0.273-2.705-0.655-3.643-0.162
		c-2.52,1.322-4.806,3.088-7.333,4.776c0.462,0.382,0.644,0.608,0.878,0.714C147.038,51.778,148.516,52.412,149.993,53.044z"/>
	<path fill-rule="evenodd" clip-rule="evenodd" d="M153.598,51.366c0.051,0.016,0.1,0.031,0.148,0.046
		c-0.032-0.03-0.069-0.058-0.101-0.089L153.598,51.366z"/>
	<path fill-rule="evenodd" clip-rule="evenodd" d="M43.374,54.608c0.394,0.354,1.464,0.249,2.093-0.002
		c2.418-0.968,4.761-2.124,7.175-3.106c0.879-0.357,1.876-0.425,2.819-0.625c-2.227-2.111-4.424-3.775-6.799-5.122
		c-0.896-0.508-2.334-0.653-3.307-0.322c-3.036,1.035-5.968,2.376-9.013,3.629c2.036,1.074,4.169,2.2,6.087,3.212
		C42.744,53.134,42.833,54.123,43.374,54.608z M41.068,48.104c1.202-0.441,2.512-0.73,3.558-1.416
		c1.427-0.934,2.638-1.006,4.009-0.017c1.67,1.206,3.39,2.342,5.46,3.764c-3.318,1.247-6.226,2.404-9.182,3.419
		c-1.094,0.376-1.705-0.154-1.575-0.811c1.515-0.574,2.64-1.001,3.754-1.424c-2.826-0.065-5.338-1.027-8.007-2.916
		C39.989,48.433,40.54,48.297,41.068,48.104z"/>
	<path fill-rule="evenodd" clip-rule="evenodd" d="M47.2,51.58c-0.036,0.014-0.072,0.027-0.108,0.04
		c0.047,0.002,0.093,0.008,0.141,0.008L47.2,51.58z"/>
	<path fill-rule="evenodd" clip-rule="evenodd" d="M102.093,40.258c0.073-3.957,0.074-7.916,0.004-11.873
		c-0.007-0.431-0.421-0.852-0.739-1.276C101.18,27.223,101,27.338,101,27.453c0,4.56,0,9.12,0,13.68c0,0.12,0.154,0.241,0.317,0.361
		C101.648,41.083,102.085,40.676,102.093,40.258z"/>
	<path fill-rule="evenodd" clip-rule="evenodd" d="M67.3,61.59c0.314-0.418,0.894-0.832,0.901-1.255
		c0.07-3.942,0.065-7.886,0.003-11.828c-0.006-0.365-0.563-0.722-0.863-1.082c-0.22,0.364-0.627,0.727-0.631,1.093
		c-0.045,4.211-0.029,8.423-0.029,12.635C66.888,61.298,67.094,61.444,67.3,61.59z"/>
	<path fill-rule="evenodd" clip-rule="evenodd" d="M135.328,61.412c0.241-0.41,0.673-0.986,0.688-1.404
		C136.091,58.064,136.05,57,136.05,54c0.003,0,0.007,0,0.011,0c0-2,0.035-3.721-0.031-5.664c-0.013-0.365-0.431-0.629-0.662-0.986
		c-0.286,0.374-0.814,0.788-0.82,1.167c-0.061,3.891-0.061,7.804-0.001,11.694C134.553,60.608,135.056,61.019,135.328,61.412z"/>
	<path fill-rule="evenodd" clip-rule="evenodd" d="M153.595,51.369c0.003-0.003,0.051-0.046,0.051-0.046
		c-0.032-0.005-0.064-0.01-0.097-0.015C153.564,51.329,153.58,51.348,153.595,51.369z"/>
	<path fill-rule="evenodd" clip-rule="evenodd" d="M153.471,48.327c0.663,0.032,1.283,0.609,1.955,0.87
		c0.66,0.256,1.362,0.403,2.046,0.599c0.04-0.199,0.079-0.398,0.119-0.598c-1.47-0.673-3.023-2.01-4.388-1.837
		c-1.441,0.182-2.703,1.799-4.043,2.789c0.027,0.175,0.056,0.349,0.084,0.522c1.435,0.212,2.87,0.424,4.305,0.636
		c-0.446-0.599-1.021-1.16-1.224-1.834C152.244,49.206,153.082,48.307,153.471,48.327z"/>
	<path fill-rule="evenodd" clip-rule="evenodd" d="M36.979,133.838c-2.566-0.359-4.979-0.373-7.979-0.537c0,2.607,0,4.795,0,7.361
		c3-0.156,5.338-0.16,7.842-0.506c1.586-0.219,2.471-1.463,2.512-3.125C39.394,135.369,38.589,134.064,36.979,133.838z"/>
	<path fill-rule="evenodd" clip-rule="evenodd" d="M38.411,126.582c0.07-1.412-0.585-2.582-2.037-2.773
		c-2.361-0.313-4.374-0.375-7.374-0.551c0,2.32,0,4.229,0,6.486c3-0.117,4.755-0.119,6.992-0.381
		C37.471,129.189,38.337,128.078,38.411,126.582z"/>
	<path fill-rule="evenodd" clip-rule="evenodd" d="M158.701,131.975c0.131-6.984-2.701-8.912-10.701-8.205
		c0,5.563,0,10.986,0,16.395C154,140.736,158.542,140.449,158.701,131.975z"/>
	<path fill-rule="evenodd" clip-rule="evenodd" d="M53.861,135c2.491,0,4.626,0,7.012,0c-1.163-4-2.266-6.225-3.563-9.787
		C56.039,128.824,54.976,131,53.861,135z"/>
	<path fill-rule="evenodd" clip-rule="evenodd" d="M172.699,135c2.398,0,4.568,0,7.004,0c-1.187-4-2.288-6.172-3.586-9.672
		C174.849,128.918,173.795,131,172.699,135z"/>
	<path fill-rule="evenodd" clip-rule="evenodd" d="M83.793,123.709c-1.839-0.254-3.707-0.299-5.956-0.463
		c0,2.43-0.038,4.492,0.038,6.549c0.012,0.334,0.539,0.938,0.809,0.928c1.92-0.076,3.885-0.068,5.74-0.5
		c1.786-0.416,2.065-2.031,1.919-3.682C86.203,124.951,85.342,123.92,83.793,123.709z"/>
	<path fill-rule="evenodd" clip-rule="evenodd" d="M109.596,127.021c-0.039-1.486-0.62-2.887-2.17-3.178
		c-2.059-0.385-4.426-0.396-6.426-0.578c0,2.668,0,4.924,0,7.729c2-0.248,4.477-0.314,6.528-0.75
		C109.071,129.918,109.637,128.523,109.596,127.021z"/>
	<path fill-rule="evenodd" clip-rule="evenodd" d="M136,152.078c0,1.01,0,1.6,0,2.635c2-0.344,2.346-0.594,3.246-0.941
		c0.106-0.043-0.048-0.877-0.151-0.912C138.179,152.555,138,152.35,136,152.078z"/>
	<path fill-rule="evenodd" clip-rule="evenodd" d="M139.255,150.049c-0.481-0.334-0.937-0.867-1.454-0.938
		c-0.406-0.055-0.89,0.463-1.339,0.727c0.282,0.408,0.564,0.818,0.996,1.447C138.239,150.748,138.747,150.398,139.255,150.049z"/>
	<path fill-rule="evenodd" clip-rule="evenodd" d="M152,148.953c0,0.865,0,1.426,0,2.322c2-0.285,2.053-0.461,2.816-0.781
		c0.135-0.057-0.009-1.031-0.112-1.059C153.896,149.209,154,149.109,152,148.953z"/>
	<path fill-rule="evenodd" clip-rule="evenodd" d="M52.521,149.234c-0.766-0.156-1.521-0.125-2.521-0.17c0,0.742,0,1.262,0,2.484
		c1-0.568,2.128-0.955,2.978-1.344C52.816,149.867,52.742,149.279,52.521,149.234z"/>
	<path fill-rule="evenodd" clip-rule="evenodd" d="M60.05,149.023c-1.753,0.004-2.125,1.24-2.147,2.795
		c0.06,1.332,0.424,2.617,2.154,2.613c1.725-0.002,2.144-1.281,2.144-2.719C62.2,150.277,61.809,149.018,60.05,149.023z"/>
	<path fill-rule="evenodd" clip-rule="evenodd" d="M44.318,149.248c-0.591-0.207-1.318-0.119-2.318-0.154c0,0.775,0,1.309,0,2.502
		c2-0.496,1.973-0.805,2.652-1.221C44.713,150.338,44.595,149.346,44.318,149.248z"/>
	<path fill-rule="evenodd" clip-rule="evenodd" d="M19.023,61.675c-1.278-1.253-2.712-1.655-4.328-0.711
		c-1.625,0.95-3.216,1.957-5.012,3.056c1.771,0.521,3.482,1.244,5.256,1.471c1.27,0.162,1.449-0.845,1.124-1.699
		c-1.093,0.181-1.741,0.287-2.388,0.394c0.079-0.555-0.034-1.276,0.275-1.632c0.718-0.826,3.056-0.434,3.75,0.563
		c0.861,1.235,0.399,2.334-0.716,3.012c-0.877,0.533-1.968,0.714-3.121,1.104c0.405,0.275,0.802,0.745,1.036,0.674
		c2.676-0.815,5.326-1.713,7.89-2.559C21.438,64.029,20.228,62.855,19.023,61.675z"/>
</g>
</svg>
