<?xml version="1.0" encoding="utf-8"?>
<!-- Generator: Adobe Illustrator 16.0.2, SVG Export Plug-In . SVG Version: 6.00 Build 0)  -->
<!DOCTYPE svg PUBLIC "-//W3C//DTD SVG 1.1//EN" "http://www.w3.org/Graphics/SVG/1.1/DTD/svg11.dtd">
<svg version="1.1" id="Layer_1" xmlns="http://www.w3.org/2000/svg" xmlns:xlink="http://www.w3.org/1999/xlink" x="0px" y="0px"
	 width="200px" height="200px" viewBox="0 0 200 200" enable-background="new 0 0 200 200" xml:space="preserve">
<g>
	<path fill="#020202" d="M14.564,91.661c-5.57-1.188-10.146,1.383-12.99,6.831C1.018,99.561,0,101.214,0,101.669
		c0,1.495,0,2.988,0,4.481c0,0.359,1.245,1.945,1.856,2.994c3.122,5.369,7.9,7.595,13.441,6.055
		c4.976-1.383,8.635-6.414,8.604-11.706C23.867,97.968,19.724,92.762,14.564,91.661z"/>
	<path fill="#020202" d="M100.409,67.759c6.358,0.068,11.961-5.68,11.942-12.26c-0.021-6.468-5.142-11.899-11.42-12.112
		c-6.613-0.221-11.941,5.026-12.058,11.871C88.762,62.074,93.938,67.688,100.409,67.759z"/>
	<path fill="#020202" d="M70.856,113.959c-6.514-0.055-11.934,5.479-11.911,12.157c0.021,6.418,5.185,11.942,11.405,12.198
		c6.434,0.265,11.966-5.215,12.082-11.976C82.553,119.521,77.402,114.014,70.856,113.959z"/>
	<path fill="#020202" d="M130.176,113.959c-6.496,0.061-11.865,5.727-11.711,12.367c0.15,6.404,5.457,11.869,11.643,11.997
		c6.437,0.133,11.812-5.41,11.83-12.202C141.955,119.247,136.785,113.898,130.176,113.959z"/>
	<path fill="#020202" d="M100.496,72.971c-6.307,0.023-11.449,5.258-11.61,11.825c-0.171,6.938,4.777,12.351,11.398,12.47
		c6.562,0.116,11.995-5.274,12.073-11.975C112.434,78.735,106.859,72.949,100.496,72.971z"/>
	<path fill="#020202" d="M42.361,98.146c-6.648,0.002-11.715,5.313-11.651,12.217c0.064,6.865,5.317,12.111,11.959,11.947
		c6.272-0.16,11.453-5.543,11.531-11.983C54.277,103.688,48.892,98.146,42.361,98.146z"/>
	<path fill="#020202" d="M100.76,102.729c-6.648-0.115-11.843,5.136-11.881,12.015c-0.039,6.812,5.229,12.353,11.699,12.315
		c6.35-0.035,11.902-5.89,11.779-12.416C112.232,108.17,107.046,102.841,100.76,102.729z"/>
	<path fill="#020202" d="M100.545,132.266c-6.482-0.019-11.722,5.534-11.667,12.354c0.057,6.874,5.285,12.139,11.916,11.998
		c6.284-0.138,11.453-5.489,11.558-11.968C112.457,138.096,106.914,132.283,100.545,132.266z"/>
	<path fill="#020202" d="M158.798,98.143c-6.687-0.059-11.782,5.169-11.778,12.078c0.01,6.87,5.196,12.182,11.812,12.09
		c6.291-0.092,11.474-5.365,11.633-11.853C170.627,103.784,165.344,98.202,158.798,98.143z"/>
	<path fill="#020202" d="M190.63,91.577c-6.009-0.887-11.603,3.052-12.96,8.866c-1.439,6.14,1.814,12.563,7.376,14.551
		c6.29,2.251,11.742-0.524,15.021-7.645c0.045-2.338,0.097-4.672,0.146-7.008C198.967,95.29,195.699,92.324,190.63,91.577z"/>
</g>
</svg>
