<?xml version="1.0" encoding="utf-8"?>
<!-- Generator: Adobe Illustrator 16.0.2, SVG Export Plug-In . SVG Version: 6.00 Build 0)  -->
<!DOCTYPE svg PUBLIC "-//W3C//DTD SVG 1.1//EN" "http://www.w3.org/Graphics/SVG/1.1/DTD/svg11.dtd">
<svg version="1.1" id="Layer_1" xmlns="http://www.w3.org/2000/svg" xmlns:xlink="http://www.w3.org/1999/xlink" x="0px" y="0px"
	 width="200px" height="200px" viewBox="0 0 200 200" enable-background="new 0 0 200 200" xml:space="preserve">
<g>
	<path fill-rule="evenodd" clip-rule="evenodd" d="M41.266,40.518c9.476-2.153,17.908,0.913,25.663,6.047
		c4.638,3.072,4.643-1.854,6.484-3.428c2.541-2.171,0.582-3.305-1.295-4.532c-6.409-4.184-13.31-6.991-20.929-7.962
		c-2.418-0.767-4.907-0.193-7.36-0.371c-12.671-0.164-22.063,5.587-28.57,16.172c-9.668,15.724-8.667,31.625,2.969,47.47
		c4.244,5.781,5.657,4.787-1.051,11.233c-8.93,8.584-13.716,19.275-15.753,31.295C0.737,140.48,2,144.646,0,148.654
		c0,1.135,0,2.266,0,3.4c10-0.272,9.943-0.293,11.458-10.54c2.592-17.532,10.535-31.283,27.789-38.255
		c1.203-0.484,2.975-0.529,3.525-2.705c-7.109-4.583-13.997-9.518-18.508-16.984C13.808,66.268,22.225,44.842,41.266,40.518z"/>
	<path fill-rule="evenodd" clip-rule="evenodd" d="M122.271,123.32c16.818-22.44,17.04-43.578,0.742-58.845
		c-13.324-12.48-32.274-12.983-46.154-1.144c-7.625,6.508-12.092,14.759-13.51,24.727c-1.976,13.889,2.988,25.329,12.572,35.173
		c-14.495,10.248-21.251,24.623-24.663,41.001c-0.546,2.624-0.21,4.643,2.999,4.553c2.344-0.064,5.468,2.437,6.362-2.572
		c3.518-19.73,13.596-34.51,33.288-41.664c-2.21-2.911-5.179-3.883-7.611-5.575c-10.188-7.092-14.884-16.708-13.69-29.128
		c1.487-15.442,16.851-28.305,30.345-25.318c11.844,2.621,19.262,9.94,21.997,21.694c2.894,12.423-1.18,22.586-10.714,30.815
		c-3.065,2.648-7.169,3.919-10.145,7.536c19.801,7.355,29.865,22.076,33.225,41.941c0.771,4.575,3.932,2.268,6.164,2.286
		c2.674,0.023,3.816-0.958,3.192-4.218C143.467,147.851,136.362,133.521,122.271,123.32z"/>
	<path fill-rule="evenodd" clip-rule="evenodd" d="M200.219,149.312c-1.414-17.55-5.516-34.082-19.87-45.843
		c-3.96-3.243-3.911-4.491-0.537-8.135c10.534-11.364,14.169-24.933,9.163-39.789c-4.799-14.239-15.18-22.561-30.153-24.9
		c-3.06,0.011-6.118,0.022-9.177,0.037c-6.813,0.994-13.17,3.287-18.914,7.056c-1.816,1.194-5.818,1.751-2.746,5.573
		c1.979,2.462,3.127,6.234,7.58,2.61c2.547-2.072,5.922-3.315,9.109-4.375c16.813-5.6,33.713,4.047,36.498,21.053
		c2.086,12.752-3.309,22.708-12.736,30.936c-3.167,2.764-7.264,4.433-10.149,8.301c17.079,5.742,26.966,17.447,30.565,34.489
		c0.896,4.228,1.443,8.563,1.707,12.876c0.266,4.332,3.293,2.709,5.369,2.732C197.688,151.95,200.514,152.965,200.219,149.312z"/>
	<path fill-rule="evenodd" clip-rule="evenodd" d="M100.595,145.814c-0.408-0.023-0.816-0.046-1.224-0.068
		c-1.079,6.163-2.026,12.354-3.306,18.478c-0.458,2.2-0.002,3.489,1.812,4.69c1.385,0.918,2.39,1.267,3.962,0.187
		c1.959-1.344,2.614-2.664,2.086-5.104C102.624,157.979,101.681,151.882,100.595,145.814z"/>
	<path fill-rule="evenodd" clip-rule="evenodd" d="M102.972,134.007c-0.786-1.35-5.246-1.362-5.986,0.072
		c-1.305,2.521,1.538,4.741,3.229,8.785C101.192,138.699,104.479,136.603,102.972,134.007z"/>
</g>
</svg>
