<?xml version="1.0" encoding="utf-8"?>
<!-- Generator: Adobe Illustrator 16.0.2, SVG Export Plug-In . SVG Version: 6.00 Build 0)  -->
<!DOCTYPE svg PUBLIC "-//W3C//DTD SVG 1.1//EN" "http://www.w3.org/Graphics/SVG/1.1/DTD/svg11.dtd">
<svg version="1.1" id="Layer_1" xmlns="http://www.w3.org/2000/svg" xmlns:xlink="http://www.w3.org/1999/xlink" x="0px" y="0px"
	 width="200px" height="200px" viewBox="0 0 200 200" enable-background="new 0 0 200 200" xml:space="preserve">
<path d="M199.973,47.47C199.95,35.063,194.645,29,183.042,29c-46.325,0-92.653,0-138.99,0c-9.707,0-14.729,4.166-17.299,13.544
	c-1.68,6.126-0.903,12.323-0.959,18.513c-0.096,10.613,0.063,9.593-9.546,9.804C5.428,71.099,0.29,76.301,0.002,87.01
	c0,16.702-0.001,33.406,0.001,50.117c-0.104,6.616,2.829,11.229,8.994,13.749c2.896,1.185,5.94,1.056,8.964,1.058
	c31.139,0.03,62.277,0.074,93.416-0.055c5.116-0.021,8.79,1.807,12.063,6.063c3.914,5.092,7.17,12.06,13.77,14.06
	c0.337,0,0.676,0,1.014,0c4.137,0,5.133-3.438,5.146-7.067c0.041-11.468,0.043-23.162-0.006-34.63
	c-0.016-3.846,1.508-5.715,5.396-5.581c3.031,0.104,6.129,0.336,9.096-0.119c11.168-1.711,19.506,1.842,25.426,11.762
	c2.189,3.671,5.301,6.947,8.383,10.066c1.622,1.641,3.568,2.547,5.955,1.641c2.425-0.92,2.367-3.004,2.365-5.063
	c0-1.519,0.006-2.993,0.006-4.512C199.988,108.141,200.023,77.827,199.973,47.47z M136.866,163.827
	c-4.625-5.593-8.466-9.979-11.995-14.603c-1.938-2.541-4.098-3.367-7.278-3.354c-32.876,0.12-65.753,0.077-98.63,0.071
	c-11.294-0.002-14.637-3.4-14.642-14.86c-0.006-13.656-0.036-27.313,0.012-40.97c0.032-9.127,4.14-13.107,13.396-13.156
	C28.026,76.9,28.026,76.9,28.026,87.021c0.001,5.227-0.082,10.455,0.021,15.679c0.228,11.436,7.555,19.22,18.986,19.313
	c26.968,0.217,53.938,0.068,81.084,0.068c0.559-2.23-2.663-3.652-0.907-4.889c2.038-1.437,4.901-0.506,7.396-0.461
	c2.397,0.043,1.668,2.086,1.738,3.442C137.066,134.232,137.04,148.293,136.866,163.827z M122.154,116.454
	c0.093,0.76-0.506,1.221-1.271,1.137c-0.845-0.093-0.949-0.748-0.89-1.467c0.157-1.88,0.188-3.724-1.693-4.899
	c0.026-0.426-0.413-1.142,0.382-1.154c5.144-0.098,10.314-1.01,15.41,0.465c-0.917,4.131-4.072,1.335-6.1,1.809
	C125.342,112.962,121.521,111.271,122.154,116.454z M133.596,106.17c-17.351-0.23-34.703-0.179-52.055-0.201
	c-2.057-0.002-4.562-0.667-4.096,3.553c-1.715-2.189-2.397-3.806-2.696-6.125c15.408,0,30.659,0.078,45.907-0.092
	c2.062-0.022,5.748,2.075,5.677-2.996c-0.062-4.219-0.896-7.516-5.892-7.572c-8.758-0.098-17.52-0.042-26.279-0.056
	c-1.179-0.002-2.359,0-3.534-0.076c-0.882-0.057-1.749-0.417-1.725-1.425c0.03-1.22,1.14-0.993,1.892-0.997
	c6.064-0.033,12.135,0.124,18.189-0.116c1.688-0.066,4.768,1.8,4.871-2.204c0.095-3.653-0.017-7.223-4.426-8.464
	c-1.303-0.367-2.998,0.396-4.377-2.198c8.829,0.079,17.109-1.645,25.131,1.136c3.864,1.34,6.035,4.758,6.106,9.064
	c0.089,5.389,0,10.782,0.112,16.171C136.448,105.691,135.99,106.201,133.596,106.17z M106.068,110.417
	c1.213-0.011,2.426-0.019,3.638-0.03c-0.017,1.999-0.03,3.997-0.046,5.994c-0.223,0.973-0.688,1.527-1.766,1.029
	C108.198,114.841,107.973,112.41,106.068,110.417z M94.816,112.313c-0.392-0.263-0.688-0.668-1.027-1.01
	c0.706-2.718,2.38-1.414,3.858-0.928c0.006,0.166,0.051,0.342,0.014,0.497c-0.531,2.246,1.456,6.039-0.984,6.491
	C93.996,117.861,96.799,113.643,94.816,112.313z M81.588,110.549c1.185-1.122,2.403-0.954,3.642-0.101
	c0.033,1.645,0.014,3.293,0.115,4.932c0.07,1.154,0.484,2.386-1.357,2.45c-1.64,0.061-2.404-0.674-2.359-2.348
	C81.673,113.84,81.606,112.193,81.588,110.549z M110.07,84.485c-0.236,0.513-0.475,1.026-0.711,1.538
	c-6.563,0-13.131-0.153-19.686,0.105c-1.698,0.067-4.779-1.893-5.094,1.916c-0.296,3.59-0.424,7.392,4.159,8.622
	c1.431,0.384,3.004,0.381,4.513,0.386c8.1,0.028,16.195,0.393,24.295,0.437c1.535,0.008,3.282-0.488,5.449,2.512
	c-18.846,0-36.637,0-55.23,0c2.806,5,5.223,11.701,8.021,18.256c-11.561-0.201-22.586,0.598-33.493-1.076
	c-5.742-0.883-9.687-6.746-9.908-13.254c-0.27-7.921-0.015-15.893-0.142-23.82c-0.039-2.432,0.781-3.188,3.203-3.179
	c20.921,0.08,41.842,0.033,62.763,0.054c0.8,0.001,2.274,0.169,2.302,0.393C101.137,82.734,105.674,83.513,110.07,84.485z
	 M194.668,140.143c-5.844-7.035-11.053-13.152-16.066-19.426c-1.738-2.173-3.592-3.089-6.422-3.033
	c-8.933,0.18-17.875-0.065-26.807,0.137c-3.208,0.074-4.373-0.687-4.26-4.119c0.265-7.916,0.127-15.847,0.074-23.771
	c-0.076-10.954-6.262-17.169-17.236-17.179c-28.832-0.023-57.664-0.058-86.495,0.152c-4.206,0.03-5.521-1.067-5.267-5.296
	c0.372-6.216,0.039-12.472,0.109-18.709c0.118-10.483,5.525-16.091,15.872-16.106c43.501-0.063,87.003-0.059,130.503-0.001
	c9.906,0.012,15.897,5.523,15.94,15.008C194.756,78.133,194.668,108.47,194.668,140.143z"/>
</svg>
