<?xml version="1.0" standalone="no"?>
<!DOCTYPE svg PUBLIC "-//W3C//DTD SVG 20010904//EN"
 "http://www.w3.org/TR/2001/REC-SVG-20010904/DTD/svg10.dtd">
<svg version="1.0" xmlns="http://www.w3.org/2000/svg"
 width="198.000000pt" height="141.000000pt" viewBox="0 0 198.000000 141.000000"
 preserveAspectRatio="xMidYMid meet">

<g transform="translate(0.000000,141.000000) scale(0.100000,-0.100000)"
fill="#000000" stroke="none">
<path d="M421 1400 c-64 -15 -116 -69 -131 -136 -5 -21 -10 -96 -10 -166 l0
-128 -78 0 c-90 0 -134 -18 -169 -70 -22 -32 -23 -39 -23 -309 0 -258 1 -278
20 -309 11 -18 34 -41 52 -52 32 -19 52 -20 570 -20 l537 0 86 -104 c127 -153
125 -155 125 145 l0 239 162 -2 163 -3 100 -122 c73 -89 105 -122 120 -120 20
2 20 10 23 496 1 317 -2 507 -8 532 -13 46 -51 93 -94 117 -28 16 -90 17 -721
19 -379 1 -705 -2 -724 -7z m1427 -50 c33 -15 47 -29 63 -64 18 -42 19 -66 17
-513 l-3 -468 -88 108 -89 107 -173 0 -173 0 -4 174 c-3 193 -7 205 -78 254
l-33 22 -483 0 -484 0 0 137 c0 166 15 208 83 242 41 21 53 21 722 21 652 0
682 -1 723 -20z m-1567 -579 c4 -158 4 -160 34 -202 58 -81 44 -79 527 -79
396 0 453 3 418 25 -23 14 -7 25 39 25 l48 0 7 -46 c9 -66 8 -414 -1 -413 -5
0 -39 38 -77 85 l-69 84 -548 0 -547 0 -31 31 -31 31 0 275 0 275 34 34 c33
33 36 34 114 34 l80 0 3 -159z m731 132 c9 -18 23 -30 42 -33 16 -3 31 -11 34
-17 3 -10 -26 -13 -122 -13 l-126 0 0 -33 c0 -68 9 -72 199 -75 276 -5 204
-22 -94 -22 -146 0 -265 -2 -265 -4 0 -2 16 -41 35 -86 19 -45 35 -86 35 -92
0 -7 -58 -9 -164 -7 -147 4 -167 6 -192 25 -64 48 -69 62 -72 230 l-3 154 340
0 340 0 13 -27z m309 -11 c28 -32 29 -35 29 -145 l0 -112 -290 3 -290 3 0 -23
c-1 -19 -3 -17 -15 11 -8 18 -15 35 -15 37 0 2 115 4 255 4 l255 0 0 39 c0 21
-6 43 -13 50 -8 6 -78 12 -182 13 -124 2 -169 6 -173 16 -3 9 26 12 122 12
l126 0 0 33 c0 43 -18 65 -54 69 -16 2 -31 9 -34 16 -3 11 20 13 123 10 l127
-3 29 -33z m-471 -333 c0 -33 -3 -40 -17 -37 -13 2 -19 14 -21 41 -3 32 0 37
17 37 18 0 21 -6 21 -41z m120 1 c0 -30 -4 -40 -16 -40 -11 0 -13 6 -9 20 3
10 1 28 -5 40 -9 17 -8 20 10 20 17 0 20 -6 20 -40z m120 0 c0 -22 -4 -40 -10
-40 -5 0 -10 13 -10 28 0 15 -5 33 -12 40 -9 9 -7 12 10 12 19 0 22 -5 22 -40z
m240 30 c0 -5 -26 -10 -57 -12 -55 -3 -58 -4 -61 -30 -4 -37 -22 -36 -22 0 0
15 -5 33 -12 40 -9 9 6 12 70 12 45 0 82 -4 82 -10z m-425 -29 c3 -5 1 -12 -5
-16 -5 -3 -10 1 -10 9 0 18 6 21 15 7z m125 -7 c0 -8 -4 -12 -10 -9 -5 3 -10
10 -10 16 0 5 5 9 10 9 6 0 10 -7 10 -16z m115 7 c3 -5 1 -12 -5 -16 -5 -3
-10 1 -10 9 0 18 6 21 15 7z"/>
</g>
</svg>
